<svg width="43" height="31" viewBox="0 0 43 31" fill="none" xmlns="http://www.w3.org/2000/svg">
<g opacity="0.5" clip-path="url(#clip0_433_63)">
<path d="M23.4532 29.5944L13.3774 7.70783C13.377 7.7075 13.377 7.7075 13.377 7.70717L13.3751 7.70288C13.3728 7.69759 13.3695 7.69231 13.3669 7.68703C13.3619 7.67712 13.357 7.66689 13.3518 7.65731C13.3472 7.64939 13.3423 7.6418 13.3373 7.63387C13.3331 7.62661 13.3288 7.61934 13.3239 7.61241C13.318 7.6035 13.3114 7.59491 13.3049 7.58633C13.3009 7.58104 13.297 7.57543 13.2927 7.57048C13.2855 7.56123 13.278 7.55298 13.2704 7.5444C13.2661 7.53977 13.2622 7.53515 13.2579 7.53086C13.2501 7.52261 13.2419 7.51468 13.2333 7.50676C13.2291 7.50246 13.2245 7.49817 13.2199 7.49388C13.2117 7.48662 13.2028 7.47968 13.1943 7.47275C13.1891 7.46879 13.1841 7.4645 13.1789 7.46053C13.1704 7.45393 13.1612 7.44799 13.1523 7.44204C13.1467 7.43808 13.1412 7.43412 13.1353 7.43049C13.1261 7.42488 13.1166 7.41959 13.107 7.41431C13.1011 7.41101 13.0952 7.40771 13.0893 7.40474C13.0788 7.39912 13.0683 7.3945 13.0578 7.38988C13.0522 7.38757 13.047 7.38493 13.0418 7.38261C13.029 7.37733 13.0162 7.37304 13.003 7.36842C12.9994 7.3671 12.9958 7.36578 12.9922 7.36445C12.9761 7.3595 12.9597 7.34762 12.9433 7.34365C12.9423 7.34365 12.9417 7.3354 12.9407 7.3354H12.9404C12.9063 7.3354 12.8712 7.33078 12.8357 7.3288C12.8347 7.3288 12.8338 7.33243 12.8328 7.33243C12.8203 7.33177 12.8075 7.33408 12.795 7.33408C12.7895 7.33441 12.7839 7.33507 12.778 7.33507C12.7708 7.3354 12.7632 7.33705 12.7557 7.33738C12.7449 7.33837 12.7344 7.33903 12.7239 7.34068C12.7186 7.34134 12.7137 7.34233 12.7084 7.34332C12.6956 7.3453 12.6829 7.34729 12.6704 7.34993C12.6697 7.35026 12.6687 7.35026 12.6681 7.35059C12.6632 7.35158 12.6582 7.35323 12.6533 7.35455C12.6418 7.35719 12.6304 7.36016 12.6189 7.36379C12.611 7.36611 12.6035 7.36908 12.5959 7.37172C12.5871 7.37469 12.5782 7.37766 12.5697 7.38129C12.5605 7.38493 12.552 7.38889 12.5434 7.39285C12.5362 7.39615 12.529 7.39945 12.5218 7.40275C12.5129 7.40738 12.5041 7.41233 12.4952 7.41728C12.4886 7.42124 12.4821 7.42455 12.4758 7.42851C12.4673 7.43379 12.4591 7.4394 12.4512 7.44502C12.4447 7.44931 12.4381 7.4536 12.4319 7.45822C12.4243 7.46384 12.4171 7.46978 12.4099 7.47572C12.4033 7.48067 12.3968 7.48596 12.3902 7.49157C12.3837 7.49718 12.3774 7.50346 12.3712 7.5094C12.3646 7.51567 12.3581 7.52194 12.3518 7.52855C12.3463 7.53449 12.3407 7.54043 12.3351 7.54671C12.3289 7.55364 12.3226 7.5609 12.3167 7.56817C12.3115 7.57477 12.3062 7.58138 12.3013 7.58831C12.2957 7.59557 12.2902 7.60284 12.2849 7.61043C12.2797 7.61835 12.2747 7.62628 12.2698 7.6342C12.2656 7.64114 12.261 7.64807 12.257 7.65533C12.2514 7.66491 12.2465 7.67481 12.2419 7.68439C12.239 7.69 12.236 7.69495 12.2334 7.70024L2.02929 29.5917C1.93776 29.7882 1.95253 30.018 2.068 30.2012C2.18348 30.3841 2.38426 30.4951 2.5998 30.4951H22.882C23.0969 30.4951 23.297 30.3848 23.4128 30.2022C23.5283 30.0199 23.5434 29.7908 23.4532 29.5944Z" fill="#702D22"/>
<path d="M31.2803 8.68483C30.9322 8.68483 30.6504 8.40121 30.6504 8.0509V5.76878C30.6504 5.41847 30.9322 5.13486 31.2803 5.13486C31.6284 5.13486 31.9102 5.41847 31.9102 5.76878V8.0509C31.9102 8.40088 31.628 8.68483 31.2803 8.68483Z" fill="#594235"/>
<path d="M12.8037 8.68483C12.456 8.68483 12.1738 8.40121 12.1738 8.0509V5.76878C12.1738 5.41847 12.456 5.13486 12.8037 5.13486C13.1515 5.13486 13.4336 5.41847 13.4336 5.76878V8.0509C13.4336 8.40088 13.1515 8.68483 12.8037 8.68483Z" fill="#594235"/>
<path d="M12.9408 7.34763C12.6528 7.28291 12.3589 7.42819 12.2335 7.69694L2.02943 29.5884C1.9379 29.7849 1.95233 30.0147 2.06781 30.1979C2.18362 30.3808 2.38406 30.4918 2.5996 30.4918H12.8037C13.1515 30.4918 13.4336 30.2081 13.4336 29.8578V7.96636C13.4336 7.66921 13.2289 7.41234 12.9408 7.34763Z" fill="#F26944"/>
<path d="M22.3796 30.2408C20.155 27.3466 18.3274 27.2013 16.1001 27.9062C15.9253 27.961 15.7357 27.9376 15.5802 27.8402C15.425 27.7438 15.3184 27.5843 15.2898 27.4024L12.188 8.10172C12.1982 8.14629 12.2126 8.1902 12.2319 8.23246L20.3856 20.273L22.3107 30.1239C22.3301 30.1655 22.3527 30.2052 22.3796 30.2408Z" fill="#D36E00"/>
<path d="M41.9295 29.5917L31.8514 7.70024C31.7487 7.47605 31.5253 7.33243 31.2802 7.33243H12.8036C12.7902 7.33243 12.7767 7.33309 12.7633 7.33408C12.7541 7.33408 12.7455 7.33507 12.7364 7.33672C12.7127 7.33837 12.6885 7.34266 12.6652 7.34861C12.6524 7.35092 12.6406 7.35422 12.6281 7.35785C12.6248 7.35851 12.6222 7.3595 12.6189 7.36016C12.6002 7.36611 12.5818 7.37304 12.5635 7.38063C12.55 7.38559 12.5356 7.39252 12.5231 7.39912C12.5087 7.40606 12.4946 7.41365 12.4818 7.4219C12.4408 7.44568 12.403 7.4744 12.3693 7.50742C12.3627 7.51402 12.3552 7.52095 12.3492 7.52756C12.3256 7.55232 12.3046 7.5784 12.2853 7.60614C12.2813 7.61208 12.2771 7.61901 12.2728 7.62496C12.2712 7.62727 12.2695 7.62991 12.2685 7.63255C12.2492 7.66359 12.2325 7.6966 12.22 7.73061C12.2147 7.73986 12.2115 7.7491 12.2088 7.75835C12.1964 7.79301 12.1878 7.82867 12.1823 7.86499C12.1803 7.87589 12.1787 7.88612 12.178 7.89702C12.1764 7.9056 12.1764 7.91319 12.1754 7.92145C12.1727 7.95447 12.1737 7.98913 12.1764 8.02281C12.178 8.03833 12.1796 8.05253 12.1823 8.06771L12.1878 8.10172C12.198 8.14629 12.2124 8.19021 12.2318 8.23247L22.3106 30.1239C22.3299 30.1656 22.3516 30.2062 22.3795 30.2408C22.5248 30.4194 22.64 30.4795 22.8381 30.4901C22.8522 30.4908 22.8667 30.4918 22.8817 30.4918H41.3583C41.5732 30.4918 41.7733 30.3811 41.8891 30.1992C42.0049 30.0166 42.02 29.7875 41.9295 29.5917Z" fill="#DD9300"/>
<path d="M41.8885 30.1992C41.7727 30.3802 41.5729 30.4918 41.3583 30.4918H39.6019C39.8164 30.4918 40.0162 30.3802 40.1324 30.1992C40.2482 30.0163 40.2636 29.7872 40.1727 29.5914L30.0943 7.70025C29.9922 7.47541 29.7692 7.33179 29.5234 7.33179H31.2796C31.5253 7.33179 31.7487 7.47541 31.8507 7.70025L41.9292 29.5914C42.0201 29.7872 42.0046 30.0163 41.8885 30.1992Z" fill="#D68003"/>
<path d="M35.7579 21.9856L30.3829 10.2369C30.2798 10.0121 30.0564 9.86813 29.8107 9.86813H16.5412C16.326 9.86813 16.1252 9.97907 16.0097 10.1617C15.8939 10.3446 15.8791 10.5744 15.9707 10.7705L21.4297 22.5192C21.533 22.7424 21.7554 22.8847 22.0002 22.8847H35.1857C35.4006 22.8847 35.6004 22.7747 35.7162 22.5925C35.832 22.4106 35.8478 22.1818 35.7579 21.9856Z" fill="#FFB127"/>
<path d="M29.87 15.2475L28.6102 12.733C28.5036 12.5184 28.2854 12.4038 28.0469 12.4038H20.5303C20.3135 12.4038 20.112 12.4949 19.9966 12.6798C19.8814 12.8647 19.8689 13.0856 19.9631 13.2821L21.1809 15.8333C21.2862 16.0525 21.5063 16.2073 21.7481 16.2073H29.3067C29.5249 16.2073 29.7276 16.0723 29.8424 15.8854C29.9572 15.6986 29.9677 15.444 29.87 15.2475Z" fill="#EFD6A3"/>
<path d="M2.59953 30.4917C2.43845 30.4917 2.27704 30.43 2.15402 30.3062L0.68429 28.827C0.43857 28.5794 0.43857 28.1779 0.68429 27.9303C0.930338 27.683 1.32926 27.683 1.57531 27.9303L3.04504 29.4094C3.29076 29.6571 3.29076 30.0585 3.04504 30.3062C2.92202 30.4296 2.76061 30.4917 2.59953 30.4917Z" fill="#594235"/>
<path d="M41.4003 30.4917C41.2392 30.4917 41.0778 30.43 40.9548 30.3062C40.7088 30.0585 40.7088 29.6571 40.9548 29.4094L42.4245 27.9303C42.6706 27.683 43.0695 27.683 43.3156 27.9303C43.5613 28.1779 43.5613 28.5794 43.3156 28.827L41.8458 30.3062C41.7228 30.4296 41.5614 30.4917 41.4003 30.4917Z" fill="#594235"/>
<path d="M22.8539 30.4917C22.6925 30.4917 22.5314 30.43 22.4084 30.3062C22.1624 30.0585 22.1624 29.6571 22.4084 29.4094L23.8781 27.9303C24.1242 27.683 24.5228 27.683 24.7688 27.9303C25.0149 28.1779 25.0149 28.5794 24.7688 28.827L23.2991 30.3062C23.1761 30.4296 23.015 30.4917 22.8539 30.4917Z" fill="#594235"/>
</g>
<defs>
<clipPath id="clip0_433_63">
<rect width="43" height="30" fill="white" transform="translate(0 0.242371)"/>
</clipPath>
</defs>
</svg>
