<svg width="133" height="31" viewBox="0 0 133 31" fill="none" xmlns="http://www.w3.org/2000/svg">
<path d="M9.24 22.168C6.34667 22.168 4.21867 21.4307 2.856 19.956C1.512 18.4813 0.84 16.54 0.84 14.132C0.84 11.7053 1.25067 9.50267 2.072 7.524C2.912 5.52667 4.15333 3.89333 5.796 2.624C7.43867 1.336 9.212 0.691999 11.116 0.691999C13.0387 0.691999 14.5413 1.15867 15.624 2.092C16.7253 3.00667 17.276 4.248 17.276 5.816C17.276 7.36533 16.7907 8.65333 15.82 9.68C14.868 10.7067 13.748 11.22 12.46 11.22C11.172 11.22 10.1733 10.94 9.464 10.38C8.75467 9.80133 8.4 9.19467 8.4 8.56C8.4 7.90667 8.652 7.40267 9.156 7.048C9.67867 6.67467 10.4347 6.488 11.424 6.488C11.1813 6.73067 11.06 7.05733 11.06 7.468C11.06 7.86 11.1813 8.20533 11.424 8.504C11.6667 8.80267 12.04 8.952 12.544 8.952C13.048 8.952 13.552 8.69067 14.056 8.168C14.56 7.62667 14.812 6.91733 14.812 6.04C14.812 5.16267 14.5413 4.46267 14 3.94C13.4773 3.41733 12.7307 3.156 11.76 3.156C10.4907 3.156 9.33333 3.66933 8.288 4.696C7.26133 5.72267 6.47733 7.02933 5.936 8.616C5.39467 10.2027 5.124 11.8733 5.124 13.628C5.124 15.14 5.45067 16.4747 6.104 17.632C6.44 18.2293 6.93467 18.7053 7.588 19.06C8.26 19.4147 9.044 19.592 9.94 19.592C11.4707 19.592 12.9453 19.1067 14.364 18.136C15.7827 17.1467 16.9773 15.8773 17.948 14.328L18.9 16.036C17.7987 17.828 16.4173 19.3027 14.756 20.46C13.0947 21.5987 11.256 22.168 9.24 22.168ZM24.6735 18.808L25.3455 12.62C25.3455 12.116 25.2148 11.696 24.9535 11.36C24.6921 11.024 24.2721 10.856 23.6935 10.856C23.1148 10.856 22.6201 11.0893 22.2095 11.556C21.8175 12.004 21.5281 12.6013 21.3415 13.348C21.2108 14.412 21.0148 15.9707 20.7535 18.024C20.4921 20.0587 20.3241 21.384 20.2495 22H16.5255C17.8695 10.5573 18.6815 3.52933 18.9615 0.915999C19.3535 0.766666 19.8855 0.691999 20.5575 0.691999C22.0135 0.691999 22.7415 1.12133 22.7415 1.98V2.148C22.4241 5.07867 22.0881 7.65467 21.7335 9.876C22.7228 8.98 23.8428 8.532 25.0935 8.532C26.3441 8.532 27.3335 8.84933 28.0615 9.484C28.7895 10.1187 29.1535 10.9213 29.1535 11.892C29.1535 12.1533 29.0975 12.6387 28.9855 13.348C28.5561 16.148 28.3415 17.7907 28.3415 18.276C28.3415 19.1533 28.6308 19.592 29.2095 19.592C29.6948 19.592 30.2081 19.2747 30.7495 18.64C31.3095 17.9867 31.7575 16.988 32.0935 15.644C32.7281 16.316 33.1108 16.848 33.2415 17.24C32.2708 20.488 30.5535 22.112 28.0895 22.112C26.9321 22.112 26.0735 21.7573 25.5135 21.048C24.9535 20.3387 24.6735 19.592 24.6735 18.808ZM33.0754 1.392C33.5048 0.943998 34.0274 0.719999 34.6434 0.719999C35.2594 0.719999 35.7821 0.943998 36.2114 1.392C36.6594 1.82133 36.8834 2.344 36.8834 2.96C36.8834 3.576 36.6594 4.09867 36.2114 4.528C35.7821 4.95733 35.2594 5.172 34.6434 5.172C34.0274 5.172 33.5048 4.95733 33.0754 4.528C32.6461 4.09867 32.4314 3.576 32.4314 2.96C32.4314 2.344 32.6461 1.82133 33.0754 1.392ZM31.9274 9.596C32.1141 9.26 32.4688 9.008 32.9914 8.84C33.5141 8.65333 34.0274 8.56 34.5314 8.56C35.0541 8.56 35.5114 8.62533 35.9034 8.756C35.1754 14.3747 34.8114 17.212 34.8114 17.268C34.7181 17.6413 34.6714 17.9587 34.6714 18.22C34.6714 18.4627 34.6901 18.6773 34.7274 18.864C34.8021 19.3493 35.1381 19.592 35.7354 19.592C36.3514 19.592 36.9114 19.2 37.4154 18.416C37.9381 17.6133 38.3301 16.708 38.5914 15.7C38.7221 15.7747 38.9274 15.9987 39.2074 16.372C39.4874 16.7453 39.6554 17.0253 39.7114 17.212C39.3381 18.7053 38.7034 19.9093 37.8074 20.824C36.9114 21.7387 35.8381 22.196 34.5874 22.196C33.3368 22.196 32.4034 21.888 31.7874 21.272C31.1901 20.656 30.8914 19.8627 30.8914 18.892C30.8914 18.6867 30.9008 18.472 30.9194 18.248L31.9274 9.596ZM43.7559 2.512C43.7559 2.624 43.5039 4.63067 42.9999 8.532H47.1159V10.688H42.7199L42.6359 11.388C44.8199 13.2173 45.9119 15.2147 45.9119 17.38C45.9119 19.0787 45.4732 20.3013 44.5959 21.048C43.7372 21.7947 42.7012 22.168 41.4879 22.168C40.2746 22.168 39.3879 21.8507 38.8279 21.216C38.2679 20.5627 37.9879 19.7787 37.9879 18.864C37.9879 18.6587 38.0066 18.4347 38.0439 18.192L38.9119 10.744L38.7999 10.688H36.5319C36.5132 10.5013 36.5039 10.2027 36.5039 9.792C36.5039 9.36267 36.5879 8.94267 36.7559 8.532H39.1639L40.0599 0.915999C40.4519 0.766666 40.9746 0.691999 41.6279 0.691999C43.0466 0.691999 43.7559 1.29867 43.7559 2.512ZM44.0359 17.352C44.0359 16.064 43.4759 14.7947 42.3559 13.544C42.0199 16.3253 41.8519 17.9307 41.8519 18.36C41.8519 19.2 42.1226 19.62 42.6639 19.62C43.0559 19.62 43.3826 19.4427 43.6439 19.088C43.9052 18.7147 44.0359 18.136 44.0359 17.352ZM53.3809 2.512C53.3809 2.624 53.1289 4.63067 52.6249 8.532H56.7409V10.688H52.3449L52.2609 11.388C54.4449 13.2173 55.5369 15.2147 55.5369 17.38C55.5369 19.0787 55.0982 20.3013 54.2209 21.048C53.3622 21.7947 52.3262 22.168 51.1129 22.168C49.8996 22.168 49.0129 21.8507 48.4529 21.216C47.8929 20.5627 47.6129 19.7787 47.6129 18.864C47.6129 18.6587 47.6316 18.4347 47.6689 18.192L48.5369 10.744L48.4249 10.688H46.1569C46.1382 10.5013 46.1289 10.2027 46.1289 9.792C46.1289 9.36267 46.2129 8.94267 46.3809 8.532H48.7889L49.6849 0.915999C50.0769 0.766666 50.5996 0.691999 51.2529 0.691999C52.6716 0.691999 53.3809 1.29867 53.3809 2.512ZM53.6609 17.352C53.6609 16.064 53.1009 14.7947 51.9809 13.544C51.6449 16.3253 51.4769 17.9307 51.4769 18.36C51.4769 19.2 51.7476 19.62 52.2889 19.62C52.6809 19.62 53.0076 19.4427 53.2689 19.088C53.5302 18.7147 53.6609 18.136 53.6609 17.352ZM69.1379 22.14C67.4206 22.14 66.2819 21.5427 65.7219 20.348C64.7512 21.5613 63.5006 22.168 61.9699 22.168C60.4579 22.168 59.1792 21.6547 58.1339 20.628C57.1072 19.6013 56.5939 18.248 56.5939 16.568C56.5939 14.1227 57.3126 12.172 58.7499 10.716C60.1872 9.26 62.0072 8.532 64.2099 8.532C64.2659 8.532 64.3219 8.532 64.3779 8.532C65.3112 8.532 66.1699 8.69067 66.9539 9.008C67.4579 8.69067 68.0646 8.532 68.7739 8.532C69.5019 8.532 70.0246 8.62533 70.3419 8.812C70.1739 10.1933 69.9966 11.556 69.8099 12.9C69.6232 14.2253 69.4926 15.168 69.4179 15.728C69.2499 16.9973 69.1659 17.912 69.1659 18.472C69.1659 19.2187 69.4646 19.592 70.0619 19.592C70.5286 19.592 71.0232 19.284 71.5459 18.668C72.0686 18.0333 72.5259 17.044 72.9179 15.7C73.4592 16.1853 73.8326 16.7267 74.0379 17.324C73.4966 19.0973 72.7686 20.348 71.8539 21.076C70.9392 21.7853 70.0339 22.14 69.1379 22.14ZM64.6299 10.716C63.4352 10.716 62.4832 11.1733 61.7739 12.088C61.0832 12.984 60.6726 14.328 60.5419 16.12C60.5232 16.288 60.5139 16.4467 60.5139 16.596C60.5139 17.5107 60.7286 18.2387 61.1579 18.78C61.6059 19.3213 62.1752 19.592 62.8659 19.592C64.0419 19.592 64.9286 18.7613 65.5259 17.1L66.1979 11.052C65.6566 10.828 65.1339 10.716 64.6299 10.716ZM79.5498 8.532C80.5764 8.532 81.5191 8.7 82.3778 9.036C82.9564 8.68133 83.5631 8.504 84.1978 8.504C84.8324 8.504 85.3364 8.588 85.7098 8.756L84.7018 16.652C86.0831 15.588 87.1284 14.6173 87.8378 13.74L88.6498 15.448C87.5858 16.568 86.1671 17.7627 84.3938 19.032L83.6378 24.884C83.4324 26.6387 82.8538 27.9827 81.9018 28.916C80.9684 29.868 79.7551 30.344 78.2618 30.344C77.4031 30.344 76.5631 30.064 75.7418 29.504C74.8831 28.9067 74.4538 27.9453 74.4538 26.62C74.4538 24.996 75.2284 23.512 76.7778 22.168C75.4524 22.0747 74.3137 21.524 73.3618 20.516C72.4098 19.508 71.9338 18.192 71.9338 16.568C71.9338 14.1227 72.6524 12.172 74.0898 10.716C75.5271 9.26 77.3471 8.532 79.5498 8.532ZM79.9698 10.716C78.7751 10.716 77.8231 11.1733 77.1138 12.088C76.4231 12.984 76.0124 14.328 75.8818 16.12C75.8631 16.288 75.8538 16.4467 75.8538 16.596C75.8538 17.5107 76.0684 18.2387 76.4978 18.78C76.9458 19.3213 77.5151 19.592 78.2058 19.592C79.3818 19.592 80.2684 18.7707 80.8658 17.128L81.5658 11.052C80.9871 10.828 80.4551 10.716 79.9698 10.716ZM76.6098 26.2C76.6098 26.704 76.7498 27.096 77.0298 27.376C77.3284 27.6747 77.6644 27.824 78.0378 27.824C79.0831 27.824 79.6898 27.1613 79.8578 25.836L80.3338 21.636C77.8511 23.1107 76.6098 24.632 76.6098 26.2ZM94.2561 8.532C95.9734 8.532 97.4014 9.08267 98.5401 10.184C99.6974 11.2853 100.276 12.6293 100.276 14.216C100.276 16.624 99.5668 18.556 98.1481 20.012C96.7481 21.4493 95.0494 22.168 93.0521 22.168C91.0548 22.168 89.4681 21.5987 88.2921 20.46C87.1348 19.3213 86.5561 17.912 86.5561 16.232C86.5561 13.88 87.2748 12.0133 88.7121 10.632C90.1681 9.232 92.0161 8.532 94.2561 8.532ZM93.6961 10.8C92.8188 10.8 92.0814 11.304 91.4841 12.312C90.8868 13.32 90.5601 14.5893 90.5041 16.12C90.5041 17.2027 90.7188 18.0987 91.1481 18.808C91.5961 19.5173 92.2681 19.872 93.1641 19.872C94.0601 19.872 94.8068 19.3773 95.4041 18.388C96.0201 17.3987 96.3281 16.2693 96.3281 15C96.3281 13.7307 96.1134 12.7227 95.6841 11.976C95.2548 11.192 94.5921 10.8 93.6961 10.8ZM109.447 18.864L110.119 12.62C110.119 12.116 109.988 11.696 109.727 11.36C109.466 11.024 109.027 10.856 108.411 10.856C107.814 10.856 107.3 11.1267 106.871 11.668C106.46 12.1907 106.199 12.8533 106.087 13.656C105.415 18.7707 105.06 21.552 105.023 22H101.243L102.783 8.812C103.567 8.60667 104.164 8.504 104.575 8.504C105.826 8.504 106.479 8.96133 106.535 9.876C107.45 8.98 108.542 8.532 109.811 8.532C111.099 8.532 112.107 8.84933 112.835 9.484C113.563 10.1187 113.927 10.9213 113.927 11.892C113.927 12.1533 113.871 12.648 113.759 13.376C113.33 16.2133 113.115 17.8653 113.115 18.332C113.115 19.1907 113.404 19.62 113.983 19.62C115.252 19.62 116.214 18.2947 116.867 15.644C117.502 16.316 117.884 16.848 118.015 17.24C117.026 20.5253 115.308 22.168 112.863 22.168C111.706 22.168 110.847 21.8133 110.287 21.104C109.727 20.3947 109.447 19.648 109.447 18.864ZM123.519 8.532C124.545 8.532 125.488 8.7 126.347 9.036C126.925 8.68133 127.532 8.504 128.167 8.504C128.801 8.504 129.305 8.588 129.679 8.756L128.671 16.652C130.052 15.588 131.097 14.6173 131.807 13.74L132.619 15.448C131.555 16.568 130.136 17.7627 128.363 19.032L127.607 24.884C127.401 26.6387 126.823 27.9827 125.871 28.916C124.937 29.868 123.724 30.344 122.231 30.344C121.372 30.344 120.532 30.064 119.711 29.504C118.852 28.9067 118.423 27.9453 118.423 26.62C118.423 24.996 119.197 23.512 120.747 22.168C119.421 22.0747 118.282 21.524 117.331 20.516C116.379 19.508 115.903 18.192 115.903 16.568C115.903 14.1227 116.621 12.172 118.059 10.716C119.496 9.26 121.316 8.532 123.519 8.532ZM123.939 10.716C122.744 10.716 121.792 11.1733 121.083 12.088C120.392 12.984 119.981 14.328 119.851 16.12C119.832 16.288 119.823 16.4467 119.823 16.596C119.823 17.5107 120.037 18.2387 120.467 18.78C120.915 19.3213 121.484 19.592 122.175 19.592C123.351 19.592 124.237 18.7707 124.835 17.128L125.535 11.052C124.956 10.828 124.424 10.716 123.939 10.716ZM120.579 26.2C120.579 26.704 120.719 27.096 120.999 27.376C121.297 27.6747 121.633 27.824 122.007 27.824C123.052 27.824 123.659 27.1613 123.827 25.836L124.303 21.636C121.82 23.1107 120.579 24.632 120.579 26.2Z" fill="black"/>
</svg>
