<svg width="40" height="40" viewBox="0 0 40 40" fill="none" xmlns="http://www.w3.org/2000/svg">
<g opacity="0.5">
<path d="M33.1242 38.7211L31.8757 38.7789L30.9734 19.375L30.7703 15L30.6257 11.889L31.8742 11.8312L32.0796 16.25L32.225 19.375L33.1242 38.7211Z" fill="#E0E0DE"/>
<path d="M32.2252 19.375H30.9736L30.7705 15H31.2502V16.25H32.0799L32.2252 19.375Z" fill="#CFCFCD"/>
<path d="M21.875 20.625H16.875V10.625H21.25L21.431 10.806C22.1155 11.4905 22.5 12.4188 22.5 13.3868C22.5 14.0413 22.3945 14.6916 22.1875 15.3125C21.9805 15.9334 21.875 16.5837 21.875 17.2382V20.625Z" fill="#2D7DBF"/>
<path d="M22.5 3.75H18.125V10.625H21.25V8.75C21.5815 8.75 21.8995 8.6183 22.1339 8.38388C22.3683 8.14946 22.5 7.83152 22.5 7.5V3.75Z" fill="#FEC9A3"/>
<path d="M20 8.75H21.25V10H20V8.75Z" fill="#FEB784"/>
<path d="M28.1249 36.25H25.4807L25.6249 38.125H29.2734C29.4661 38.125 29.6509 38.0485 29.7871 37.9122C29.9234 37.7759 29.9999 37.5911 29.9999 37.3984C29.9999 37.246 29.9519 37.0974 29.8628 36.9737C29.7736 36.85 29.6478 36.7575 29.5032 36.7093L28.1249 36.25Z" fill="#D6D6D4"/>
<path d="M28.125 29.0305V36.25H25.4805L25 30L20 25L19.5227 26.2734L19.0813 27.4508L18.4258 29.1977C18.2306 29.7176 17.8681 30.1579 17.3953 30.4492L14.8031 32.0445L13.6922 32.7281L10 35L8.125 32.8844L15 28.125L16.0938 23.75L16.4078 22.493L16.875 20.625H21.875L24.6008 23.8969L25.4062 24.8625L27.5453 27.4297C27.9201 27.8789 28.1253 28.4454 28.125 29.0305Z" fill="#4D5E78"/>
<path d="M10 35L8.125 32.8846L6.875 33.75L7.90352 37.3499C7.96732 37.5732 8.10213 37.7697 8.28756 37.9095C8.47298 38.0494 8.69892 38.125 8.93117 38.125C9.21464 38.125 9.4865 38.0124 9.68695 37.812C9.88739 37.6115 10 37.3397 10 37.0562V35Z" fill="#D6D6D4"/>
<path d="M22.5 15L20.5694 11.6213C20.3964 11.3187 20.1465 11.0671 19.845 10.8921C19.5434 10.7172 19.201 10.625 18.8524 10.625C18.328 10.625 17.825 10.8333 17.4542 11.2042C17.0833 11.575 16.875 12.078 16.875 12.6024V13.1163C16.875 13.5285 17.0038 13.9303 17.2434 14.2656L19.4391 17.3398C19.6126 17.5827 19.8416 17.7806 20.1069 17.9172C20.3723 18.0538 20.6665 18.125 20.9649 18.125H29.375V15H22.5Z" fill="#348FD9"/>
<path d="M33.125 18.125H29.375V15L30 13.75H31.25V15H33.125V18.125Z" fill="#4D5E78"/>
<path d="M26.875 15H29.375V18.125H26.875V15Z" fill="#FEC9A3"/>
<path d="M19.3836 20.625L19.3656 20.7305C19.3633 20.746 19.3602 20.7614 19.3563 20.7766L19.1859 21.4578C19.0229 22.1129 18.6452 22.6945 18.1131 23.1099C17.5809 23.5254 16.9251 23.7507 16.25 23.75H16.0938L16.4078 22.493C16.7756 22.4606 17.1242 22.3143 17.4048 22.0744C17.6855 21.8345 17.8843 21.513 17.9734 21.1547L18.1063 20.625H19.3836Z" fill="#3B495E"/>
<path d="M14.803 32.0445L13.6921 32.7281L12.4741 31.6375L13.3069 30.7062L14.803 32.0445Z" fill="#3B495E"/>
<path d="M26.5625 30.625H28.125V31.875H26.5625V30.625Z" fill="#3B495E"/>
<path d="M19.5225 26.2735L19.0811 27.4508L16.7217 26.8563L17.0279 25.6438L19.5225 26.2735Z" fill="#3B495E"/>
<path d="M25.4061 24.8625L23.4702 26.1461L22.7795 25.1039L24.6006 23.8969L25.4061 24.8625Z" fill="#3B495E"/>
<path d="M21.875 4.375H19.375L18.125 5.625V3.125C18.125 2.79348 18.2567 2.47554 18.4911 2.24112C18.7255 2.0067 19.0435 1.875 19.375 1.875H21.875C22.2065 1.875 22.5245 2.0067 22.7589 2.24112C22.9933 2.47554 23.125 2.79348 23.125 3.125C23.125 3.45652 22.9933 3.77446 22.7589 4.00888C22.5245 4.2433 22.2065 4.375 21.875 4.375Z" fill="#7A432A"/>
<path d="M13.5669 26.067L12.6831 25.183C13.0224 24.8456 13.2914 24.4442 13.4746 24.002C13.6577 23.5599 13.7513 23.0858 13.75 22.6073V20.625H15V22.6073C15.0017 23.2501 14.876 23.8868 14.63 24.4807C14.384 25.0745 14.0226 25.6137 13.5669 26.067Z" fill="#BF2D21"/>
<path d="M11.6919 25.442L10.8081 24.558C11.1474 24.2206 11.4164 23.8192 11.5996 23.377C11.7827 22.9349 11.8763 22.4608 11.875 21.9823V18.75H13.125V21.9823C13.1267 22.6251 13.001 23.2618 12.755 23.8557C12.509 24.4495 12.1476 24.9887 11.6919 25.442Z" fill="#BF2D21"/>
<path d="M16.875 8.15078V20.625H13.125C12.7935 20.625 12.4755 20.4933 12.2411 20.2589C12.0067 20.0245 11.875 19.7065 11.875 19.375V8.15078C11.875 7.98324 11.908 7.81733 11.9721 7.66254C12.0362 7.50774 12.1302 7.36709 12.2486 7.24862C12.3671 7.13015 12.5077 7.03618 12.6625 6.97207C12.8173 6.90796 12.9832 6.87498 13.1508 6.875H15.5992C15.7668 6.87498 15.9327 6.90796 16.0875 6.97207C16.2423 7.03618 16.3829 7.13015 16.5014 7.24862C16.6198 7.36709 16.7138 7.50774 16.7779 7.66254C16.842 7.81733 16.875 7.98324 16.875 8.15078Z" fill="#DE4132"/>
<path d="M19.375 20.625H16.875V17.5L19.375 18.125V20.625Z" fill="#BB3E2D"/>
<path d="M19.375 18.125H21.875V20.625H19.375V18.125Z" fill="#B33522"/>
<path d="M16.875 8.15102V9.375L11.875 10.625V8.15102C11.875 7.8126 12.0095 7.48805 12.2488 7.24876C12.4881 7.00946 12.8126 6.87502 13.151 6.875H15.599C15.9374 6.87502 16.2619 7.00946 16.5012 7.24876C16.7405 7.48805 16.875 7.8126 16.875 8.15102Z" fill="#F35244"/>
<path d="M16.875 18.125V20.625H13.125C12.7935 20.625 12.4755 20.4933 12.2411 20.2589C12.0067 20.0245 11.875 19.7065 11.875 19.375V18.125H16.875Z" fill="#CF3B2E"/>
<path d="M15 14.375H16.25C16.4158 14.375 16.5747 14.4408 16.6919 14.5581C16.8092 14.6753 16.875 14.8342 16.875 15V18.125H14.375V15C14.375 14.8342 14.4408 14.6753 14.5581 14.5581C14.6753 14.4408 14.8342 14.375 15 14.375Z" fill="#F35244"/>
<path d="M10.625 13.75H11.875V18.125H10.625C10.2935 18.125 9.97554 17.9933 9.74112 17.7589C9.5067 17.5245 9.375 17.2065 9.375 16.875V15C9.375 14.6685 9.5067 14.3505 9.74112 14.1161C9.97554 13.8817 10.2935 13.75 10.625 13.75Z" fill="#D63F30"/>
<path d="M10.3125 10.625H11.875V13.75H10.3125C10.0639 13.75 9.8254 13.6512 9.64959 13.4754C9.47377 13.2996 9.375 13.0611 9.375 12.8125V11.5625C9.375 11.3139 9.47377 11.0754 9.64959 10.8996C9.8254 10.7238 10.0639 10.625 10.3125 10.625Z" fill="#D63F30"/>
<path d="M14.375 18.75C14.2092 18.75 14.0503 18.6842 13.9331 18.5669C13.8158 18.4497 13.75 18.2908 13.75 18.125V10C13.75 9.83424 13.8158 9.67527 13.9331 9.55806C14.0503 9.44085 14.2092 9.375 14.375 9.375C14.5408 9.375 14.6997 9.44085 14.8169 9.55806C14.9342 9.67527 15 9.83424 15 10V18.125C15 18.2908 14.9342 18.4497 14.8169 18.5669C14.6997 18.6842 14.5408 18.75 14.375 18.75Z" fill="#CF3B2E"/>
</g>
</svg>
