<svg width="32" height="32" viewBox="0 0 32 32" fill="none" xmlns="http://www.w3.org/2000/svg">
<g opacity="0.5" clip-path="url(#clip0_433_39)">
<path d="M8.89668 29.0227C5.21725 31.0111 2.13117 31.846 1.01348 30.7289C-0.0975573 29.6179 0.727697 26.5336 2.71848 22.8445L8.89668 29.0227Z" fill="#FED843"/>
<path d="M8.89663 29.0227C5.2172 31.0111 2.13112 31.846 1.01343 30.7289L5.80814 25.9342L8.89663 29.0227Z" fill="#FABE2C"/>
<path d="M29.2809 8.64144L26.1912 5.55113L23.1033 2.46263C26.7827 0.473666 29.8688 -0.361276 30.9865 0.755814C32.0975 1.86685 31.2723 4.95171 29.2809 8.64144Z" fill="#FED843"/>
<path d="M29.2809 8.64145L26.1912 5.55114L30.9865 0.755829C32.0975 1.86686 31.2723 4.95173 29.2809 8.64145Z" fill="#FABE2C"/>
<path d="M29.281 8.64142C27.2745 12.359 24.0837 16.6911 20.4951 20.2374C16.9767 23.7975 12.6312 27.0041 8.89671 29.0227C7.71181 28.2283 6.57353 27.2983 5.50911 26.2333C4.44349 25.1683 3.51288 24.0294 2.71851 22.8445C4.72503 19.1263 7.91646 14.7942 11.5051 11.2474C15.0234 7.68721 19.3689 4.48064 23.1034 2.46262C24.2883 3.25639 25.4266 4.18639 26.491 5.25141C27.5567 6.31642 28.4867 7.45592 29.281 8.64142Z" fill="#FABE2C"/>
<path d="M29.281 8.64142C27.2744 12.359 24.0836 16.6911 20.495 20.2374C16.9766 23.7975 12.6312 27.0041 8.89663 29.0227C7.71173 28.2283 6.57345 27.2983 5.50903 26.2333L26.491 5.2514C27.5566 6.31642 28.4866 7.45592 29.281 8.64142Z" fill="#FF9100"/>
<path d="M23.28 8.46221C22.0778 7.25993 20.0503 7.83876 18.7844 9.10461C17.5245 10.3646 16.9329 12.3905 18.1426 13.5996C19.3257 14.7833 21.3419 14.2535 22.6376 12.9578C23.8982 11.6972 24.4892 9.67133 23.28 8.46221Z" fill="#61729B"/>
<path d="M22.6378 12.9578C21.3421 14.2535 19.3259 14.7833 18.1428 13.5996L23.2802 8.46222C24.4893 9.67134 23.8984 11.6972 22.6378 12.9578Z" fill="#47568C"/>
<path d="M13.8574 17.8851C12.6554 16.683 10.6299 17.2594 9.36238 18.5269C8.10179 19.7875 7.51086 21.8134 8.71998 23.0225C9.90367 24.2056 11.9187 23.6771 13.2156 22.3801C14.656 20.9397 14.9381 18.9653 13.8574 17.8851Z" fill="#61729B"/>
<path d="M13.2156 22.3801C11.9187 23.677 9.90366 24.2056 8.71997 23.0225L13.8574 17.8851C14.9381 18.9653 14.656 20.9397 13.2156 22.3801Z" fill="#47568C"/>
<path d="M24.812 24.5544C24.4572 24.9092 23.882 24.9092 23.5278 24.5544L7.18798 8.21458C6.83317 7.85977 6.83317 7.28518 7.18798 6.93038C7.54278 6.57557 8.11798 6.57557 8.47218 6.93038L24.812 23.2702C25.1668 23.625 25.1668 24.1996 24.812 24.5544Z" fill="#61729B"/>
<path d="M24.8119 24.5543C24.4571 24.9091 23.8819 24.9091 23.5277 24.5543L15.3582 16.3848L16.6424 15.1006L24.8119 23.2701C25.1667 23.6249 25.1667 24.1995 24.8119 24.5543Z" fill="#47568C"/>
<path d="M7.83102 8.48069H5.26226C5.02135 8.48069 4.79036 8.38496 4.6201 8.21464L0.766898 4.36144C0.412457 4.00706 0.412215 3.43168 0.766898 3.07706L3.33566 0.5083C3.69034 0.153616 4.26542 0.153677 4.62004 0.5083L8.47324 4.3615C8.64356 4.53182 8.73929 4.76281 8.73929 5.00366V7.57242C8.73923 8.07405 8.33259 8.48069 7.83102 8.48069Z" fill="#61729B"/>
<path d="M27.3807 30.9763L23.5275 27.1231C23.3572 26.9528 23.2615 26.7218 23.2615 26.481V23.9122C23.2615 23.4106 23.6681 23.004 24.1697 23.004H26.7385C26.9794 23.004 27.2104 23.0997 27.3807 23.27L31.2339 27.1232C31.5883 27.4776 31.5886 28.053 31.2339 28.4076L28.665 30.9764C28.3104 31.331 27.7353 31.3311 27.3807 30.9763Z" fill="#47568C"/>
</g>
<defs>
<clipPath id="clip0_433_39">
<rect width="31" height="31" fill="white" transform="translate(0.5 0.242371)"/>
</clipPath>
</defs>
</svg>
