<svg width="31" height="32" viewBox="0 0 31 32" fill="none" xmlns="http://www.w3.org/2000/svg">
<g clip-path="url(#clip0_433_5)">
<path d="M13.8965 16.0205C13.9241 19.0673 13.5046 22.1016 12.6512 25.0266L7.48275 27.0469L6.41379 27.4637L2.89687 28.8374C1.14379 25.9726 0 21.3012 0 16.0205C0 7.7093 2.82742 0.910674 6.41379 0.296062C6.76654 0.224799 7.13 0.224799 7.48275 0.296062C11.0691 0.910674 13.8965 7.7093 13.8965 16.0205Z" fill="#F29C1F"/>
<path d="M13.0253 8.37189C11.8227 11.8567 9.05412 13.9946 4.73549 14.9407C2.77498 15.352 1.08106 16.5758 0.0747754 18.3079C0.0267012 17.565 0 16.7953 0 16.0203C0 15.7477 0.00532812 15.4751 0.0107168 15.2079C0.900514 13.5713 2.45657 12.4013 4.27588 12.0009C8.60516 11.0389 11.2028 9.21094 12.0686 5.35199C12.4595 6.33442 12.7793 7.34362 13.0253 8.37189Z" fill="#D25627"/>
<path d="M13.5546 11.1512V11.1565C12.5925 14.7055 10.0323 16.4212 5.8794 17.3458C2.27698 18.1475 1.0744 21.3384 0.700279 22.8991C0.376111 21.3867 0.167104 19.8519 0.0749512 18.3079C1.08118 16.5757 2.77516 15.3519 4.73567 14.9406C9.05429 13.9946 11.8229 11.8567 13.0255 8.37183C13.2492 9.28863 13.4258 10.2163 13.5546 11.1512Z" fill="#C03A2B"/>
<path d="M7.48253 20.5527V27.0467L6.41357 27.4635V20.5527C6.41357 20.2575 6.65286 20.0182 6.94808 20.0182C7.24331 20.0182 7.48253 20.2575 7.48253 20.5527Z" fill="#E57E25"/>
<path d="M7.48259 0.295849V8.25964C7.48259 8.55481 7.24331 8.79415 6.94808 8.79415C6.65286 8.79415 6.41357 8.55487 6.41357 8.25964V0.295849C6.76638 0.224585 7.12984 0.224585 7.48259 0.295849Z" fill="#E57E25"/>
<path d="M31.0001 16.0203C31.0001 21.301 29.8563 25.9724 28.1032 28.8372L24.5863 27.4635L23.5174 27.0467L18.3489 25.0263C17.4955 22.1014 17.0759 19.0671 17.1036 16.0203C17.1036 7.70909 19.931 0.91046 23.5174 0.295788C23.8701 0.224524 24.2336 0.224524 24.5863 0.295788C28.1727 0.91046 31.0001 7.70909 31.0001 16.0203Z" fill="#4482C3"/>
<path d="M24.586 21.6217V27.4636L23.5171 27.0468V21.6218C23.5171 21.3266 23.7564 21.0872 24.0516 21.0872C24.3468 21.0872 24.586 21.3265 24.586 21.6217Z" fill="#285680"/>
<path d="M24.5861 0.295849V6.65618C24.5861 6.95134 24.3468 7.19068 24.0516 7.19068C23.7564 7.19068 23.5171 6.9514 23.5171 6.65618V0.295849C23.8699 0.224585 24.2334 0.224585 24.5861 0.295849Z" fill="#285680"/>
<path d="M31 31.2424C26.8585 27.1784 21.3021 24.8792 15.5 24.8286C9.69785 24.8792 4.14147 27.1783 0 31.2424H31Z" fill="#E4C05C"/>
<path d="M7.59502 28.0783C7.2025 28.2464 6.80586 28.4308 6.41545 28.6266C6.15153 28.7589 6.04484 29.0801 6.1772 29.344C6.30949 29.6079 6.63069 29.7146 6.89462 29.5823C7.26625 29.3959 7.6431 29.2206 8.01576 29.0611C8.2872 28.9449 8.41301 28.6307 8.29682 28.3593C8.18063 28.088 7.86645 27.9621 7.59502 28.0783Z" fill="#F9EAB0"/>
<path d="M15.5 26.4321C13.6411 26.4335 11.7916 26.6973 10.0064 27.2155C9.82145 27.2674 9.67856 27.4145 9.63212 27.6008C9.58562 27.7872 9.64272 27.9841 9.78161 28.1167C9.92051 28.2493 10.1199 28.2973 10.3039 28.2422C11.9924 27.752 13.7417 27.5025 15.5 27.5011C15.7951 27.5011 16.0345 27.2618 16.0345 26.9666C16.0345 26.6713 15.7951 26.4321 15.5 26.4321Z" fill="#F9EAB0"/>
<path d="M30.9947 16.2769C30.9947 17.1908 30.952 18.0834 30.8771 18.9493H17.2264C17.1517 18.0834 17.1088 17.1908 17.1035 16.2769H30.9947Z" fill="#F3D55B"/>
<path d="M30.7704 12.001H17.3335C17.4404 11.071 17.5794 10.1784 17.7611 9.32861H30.3428C30.5245 10.1784 30.6635 11.071 30.7704 12.001Z" fill="#F3D55B"/>
</g>
<defs>
<clipPath id="clip0_433_5">
<rect width="31" height="31" fill="white" transform="translate(0 0.242371)"/>
</clipPath>
</defs>
</svg>
