<svg width="60" height="54" viewBox="0 0 60 54" fill="none" xmlns="http://www.w3.org/2000/svg">
<path d="M26.5411 0.768555H3.79617C1.69957 0.768555 0 2.46824 0 4.56473V23.4414C0 25.5215 1.6732 27.2099 3.74695 27.2363V27.2375L4.80469 27.836H10.8398L12.2558 27.2376H26.5407C28.6373 27.2376 30.3369 25.538 30.3369 23.4414V4.56473C30.3369 2.46836 28.6375 0.768789 26.5411 0.768555Z" fill="#06607B"/>
<path d="M33.8158 0.768555H26.2039C28.3005 0.768555 30 2.46812 30 4.56473V23.4414C30 25.538 28.3005 27.2376 26.2039 27.2376H33.8158C35.9124 27.2376 37.6119 25.538 37.6119 23.4414V4.56473C37.6119 2.46824 35.9124 0.768555 33.8158 0.768555Z" fill="#06607B"/>
<path d="M3.74707 36.056C3.74707 36.6092 4.44516 36.8516 4.78805 36.4176L11.5829 27.8153C11.871 27.4506 12.3102 27.2378 12.775 27.2378H3.74707V36.056Z" fill="#06607B"/>
<path d="M46.6946 43.3596L48.0582 45.086C48.2922 45.0774 48.482 44.8994 48.5127 44.6672C48.6497 43.63 49.3108 42.7376 50.2784 42.2824C51.7594 41.5858 52.7847 40.0806 52.7847 38.3354V16.6513C52.7847 14.243 50.8323 12.2905 48.4239 12.2905H21.1547C18.7463 12.2905 16.7939 14.2429 16.7939 16.6513V38.3354C16.7939 40.7439 18.7463 42.6962 21.1547 42.6962H45.325C45.8591 42.6962 46.3636 42.9407 46.6946 43.3596Z" fill="#00B493"/>
<path d="M55.6393 12.2905H48.0017C50.41 12.2905 52.3625 14.2429 52.3625 16.6513V38.3354C52.3625 40.0806 51.3372 41.5858 49.8562 42.2824C48.7652 42.7956 48.0583 43.8804 48.0583 45.0859L54.5001 53.2412C54.894 53.7399 55.6959 53.4613 55.6959 52.8259V42.6947C58.0781 42.6644 60.0002 40.7248 60.0002 38.3353V16.6513C60.0001 14.2429 58.0477 12.2905 55.6393 12.2905Z" fill="#00B493"/>
</svg>
