<svg width="60" height="54" viewBox="0 0 60 54" fill="none" xmlns="http://www.w3.org/2000/svg">
<path d="M47.5781 0.632812H40.5469H33.5156C26.7315 0.632812 21.0938 6.1534 21.0938 12.9375C21.0938 19.1259 25.8029 24.262 31.7578 25.1169V30.5156C31.7578 31.2262 32.1852 31.8683 32.8427 32.1395C33.4911 32.4101 34.2517 32.265 34.7585 31.7584L40.5469 25.97L41.2747 25.2422H47.5781C54.3622 25.2422 60 19.7216 60 12.9375C60 6.1534 54.3622 0.632812 47.5781 0.632812Z" fill="#06607B"/>
<path d="M47.5781 25.2422C54.3622 25.2422 60 19.7216 60 12.9375C60 6.1534 54.3622 0.632812 47.5781 0.632812H40.5469V25.97L41.2747 25.2422H47.5781Z" fill="#06607B"/>
<path d="M44.7656 41.0625V48.0938C44.7656 51.1523 42.2684 53.3672 39.5168 53.3672C29.3906 53.3672 19.5117 48.5801 12.1641 41.2617C4.81641 33.9434 0 24.0938 0 13.9676C0 11.059 2.36602 8.71875 5.27344 8.71875H12.3047C13.0617 8.71875 13.7332 9.20273 13.9711 9.91992L17.4867 20.4422C17.659 20.9578 17.5828 21.5227 17.2828 21.9738L14.3016 26.4469C15.4313 28.8164 17.4305 31.4062 19.7391 33.6867C22.0488 35.966 24.668 37.9359 27.0375 39.0656L31.5105 36.0844C31.9641 35.7855 32.5266 35.707 33.0422 35.8805L43.5891 39.3961C44.3062 39.634 44.7656 40.3055 44.7656 41.0625Z" fill="#00B493"/>
<path d="M44.7656 41.0623V48.0936C44.7656 51.1521 42.2684 53.367 39.5168 53.367C29.3906 53.367 19.5117 48.5799 12.1641 41.2615L19.7391 33.6865C22.0488 35.9658 24.668 37.9357 27.0375 39.0654L31.5106 36.0842C31.9641 35.7854 32.5266 35.7068 33.0422 35.8803L43.5891 39.3959C44.3063 39.6338 44.7656 40.3053 44.7656 41.0623Z" fill="#00B493"/>
<path d="M33.5154 14.6953C34.4862 14.6953 35.2732 13.9083 35.2732 12.9375C35.2732 11.9667 34.4862 11.1797 33.5154 11.1797C32.5446 11.1797 31.7576 11.9667 31.7576 12.9375C31.7576 13.9083 32.5446 14.6953 33.5154 14.6953Z" fill="white"/>
<path d="M40.5469 14.6953C41.5177 14.6953 42.3047 13.9083 42.3047 12.9375C42.3047 11.9667 41.5177 11.1797 40.5469 11.1797C39.5761 11.1797 38.7891 11.9667 38.7891 12.9375C38.7891 13.9083 39.5761 14.6953 40.5469 14.6953Z" fill="white"/>
<path d="M42.3047 12.9375C42.3047 11.9667 41.5177 11.1797 40.5469 11.1797V14.6953C41.5177 14.6953 42.3047 13.9083 42.3047 12.9375Z" fill="white"/>
<path d="M47.5781 14.6953C48.5489 14.6953 49.3359 13.9083 49.3359 12.9375C49.3359 11.9667 48.5489 11.1797 47.5781 11.1797C46.6073 11.1797 45.8203 11.9667 45.8203 12.9375C45.8203 13.9083 46.6073 14.6953 47.5781 14.6953Z" fill="white"/>
</svg>
