<svg width="56" height="56" viewBox="0 0 56 56" fill="none" xmlns="http://www.w3.org/2000/svg">
<path d="M48.3565 37.5103H34.2214C32.3276 40.5065 30.2499 43.3825 28.0001 46.1217C25.7504 43.3825 23.6726 40.5065 21.7789 37.5103H7.64371L0.956055 55.0438H55.0442L48.3565 37.5103Z" fill="#00B493"/>
<path d="M28.0002 0.95752C24.1823 0.957644 20.5209 2.47433 17.8213 5.17395C15.1217 7.87356 13.605 11.535 13.6049 15.3528C13.5205 29.0872 28.0002 46.1216 28.0002 46.1216C28.0002 46.1216 42.4799 29.0872 42.3955 15.3528C42.3954 11.535 40.8787 7.87356 38.1791 5.17395C35.4794 2.47433 31.818 0.957644 28.0002 0.95752ZM28.0002 21.4606C26.7922 21.4606 25.6113 21.1024 24.6069 20.4313C23.6024 19.7602 22.8196 18.8062 22.3573 17.6902C21.895 16.5741 21.774 15.3461 22.0097 14.1613C22.2454 12.9765 22.8271 11.8881 23.6813 11.034C24.5355 10.1798 25.6238 9.59805 26.8086 9.36238C27.9934 9.12671 29.2215 9.24766 30.3375 9.70995C31.4536 10.1722 32.4075 10.9551 33.0786 11.9595C33.7498 12.9639 34.108 14.1448 34.108 15.3528C34.1083 16.155 33.9505 16.9494 33.6437 17.6906C33.3368 18.4317 32.887 19.1052 32.3197 19.6724C31.7525 20.2396 31.0791 20.6895 30.3379 20.9963C29.5967 21.3032 28.8023 21.461 28.0002 21.4606Z" fill="#00B493"/>
<path d="M49.9095 41.5748L22.9189 51.1748L12.4001 37.5107H21.7798C23.6731 40.507 25.7506 43.3828 28.0001 46.1217C30.2497 43.3828 32.3272 40.507 34.2205 37.5107H48.358L49.9095 41.5748Z" fill="#06607B"/>
<path d="M12.0439 55.044L38.7608 45.5405L46.0752 55.044H12.0439Z" fill="#06607B"/>
</svg>
