<svg width="45" height="45" viewBox="0 0 45 45" fill="none" xmlns="http://www.w3.org/2000/svg">
<path fill-rule="evenodd" clip-rule="evenodd" d="M33.1284 4.15228C32.9485 3.65561 32.6951 3.19189 32.1681 3.19189H21.9135C21.3839 3.19189 21.133 3.65561 20.9532 4.15228L20.0208 6.72932L27.2474 7.55795L34.0609 6.72932L33.1284 4.15228Z" fill="#7E707D"/>
<path fill-rule="evenodd" clip-rule="evenodd" d="M34.0609 6.7292L33.1285 4.15215C32.9486 3.65548 32.6952 3.19177 32.1682 3.19177H28.4814C29.011 3.19177 29.2644 3.65548 29.4417 4.15215L30.3742 6.7292H34.0609Z" fill="#6A5C6B"/>
<path fill-rule="evenodd" clip-rule="evenodd" d="M12.3789 7.5578V4.47653C12.3789 3.9723 11.9685 3.56177 11.4641 3.56177H8.52745C8.02577 3.56177 7.61523 3.9723 7.61523 4.47653V7.5578H12.3789Z" fill="#7E707D"/>
<path fill-rule="evenodd" clip-rule="evenodd" d="M44.341 17.5287V8.54089C44.341 7.5451 43.5276 6.72913 42.5318 6.72913H11.5503V17.5287H44.341Z" fill="#63D0BC"/>
<path fill-rule="evenodd" clip-rule="evenodd" d="M44.3409 29.9931V21.3854C32.5204 21.3854 23.135 21.3854 11.5503 21.3854V31.8048H42.5317C43.5275 31.8048 44.3409 30.9889 44.3409 29.9931Z" fill="#63D0BC"/>
<path fill-rule="evenodd" clip-rule="evenodd" d="M37.0432 16.7C35.8624 12.8029 32.244 9.96484 27.9593 9.96484C23.6771 9.96484 20.0588 12.8028 18.878 16.7C18.6119 17.5717 18.47 18.4966 18.47 19.457C18.47 20.4148 18.6118 21.3397 18.878 22.2139C20.0588 26.1111 23.6771 28.9466 27.9593 28.9466C32.244 28.9466 35.8624 26.1112 37.0432 22.2139C37.3092 21.3397 37.4511 20.4148 37.4511 19.457C37.4511 18.4966 37.3092 17.5717 37.0432 16.7Z" fill="#7E707D"/>
<path fill-rule="evenodd" clip-rule="evenodd" d="M37.0433 22.214C37.3093 21.3398 37.4513 20.4149 37.4513 19.4571C37.4513 18.4967 37.3094 17.5718 37.0433 16.7002C35.8625 12.803 32.2441 9.96497 27.9594 9.96497C27.6199 9.96497 27.2828 9.98272 26.951 10.0181C30.5871 10.5756 33.5415 13.1932 34.5854 16.6418C34.593 16.6621 34.5981 16.6798 34.6032 16.7001C34.8566 17.5566 34.9934 18.4611 34.9934 19.3987C34.9934 20.3591 34.8516 21.284 34.5854 22.1557C34.5803 22.176 34.5753 22.1936 34.5677 22.2139C33.4655 25.7716 30.326 28.4347 26.51 28.8376C26.9838 28.9085 27.4678 28.9466 27.9594 28.9466C32.2441 28.9467 35.8625 26.1112 37.0433 22.214Z" fill="#6A5C6B"/>
<path fill-rule="evenodd" clip-rule="evenodd" d="M44.3407 8.5409C44.3407 7.5451 43.5274 6.72913 42.5316 6.72913H39.4783C40.4741 6.72913 41.29 7.54501 41.29 8.5409V10.2488V16.7002H44.3407V8.5409Z" fill="#06607B"/>
<path fill-rule="evenodd" clip-rule="evenodd" d="M44.3409 29.9933V22.2141H41.2901V29.9933C41.2901 30.9866 40.4768 31.8025 39.481 31.8051H39.4835H42.5317C43.5275 31.8051 44.3409 30.9891 44.3409 29.9933Z" fill="#06607B"/>
<path fill-rule="evenodd" clip-rule="evenodd" d="M33.9874 19.4571C33.9874 18.4637 33.7467 17.5262 33.321 16.7001C32.3201 14.7566 30.2956 13.4288 27.9594 13.4288C25.6257 13.4288 23.6011 14.7566 22.6002 16.7001C22.1746 17.5262 21.9338 18.4637 21.9338 19.4571C21.9338 20.4504 22.1746 21.388 22.6002 22.214C23.6011 24.155 25.6257 25.4828 27.9594 25.4828C30.2956 25.4828 32.3201 24.155 33.321 22.214C33.7468 21.388 33.9874 20.4504 33.9874 19.4571Z" fill="#EFF6FF"/>
<path fill-rule="evenodd" clip-rule="evenodd" d="M33.9875 19.4571C33.9875 18.4637 33.7467 17.5262 33.3211 16.7001C32.3202 14.7566 30.2956 13.4288 27.9594 13.4288C27.369 13.4288 26.7963 13.515 26.2542 13.6747C28.0988 13.9788 29.6622 15.1241 30.5364 16.7002C30.5668 16.7534 30.5946 16.8092 30.625 16.8624C31.0507 17.6885 31.2889 18.626 31.2889 19.6193C31.2889 20.5493 31.0811 21.4286 30.7061 22.2141C30.6782 22.2673 30.6529 22.3231 30.625 22.3763C29.8774 23.8257 28.5599 24.933 26.9686 25.4018C27.2904 25.455 27.6223 25.483 27.9593 25.483C30.2955 25.483 32.3201 24.1552 33.321 22.2142C33.7468 21.388 33.9875 20.4504 33.9875 19.4571Z" fill="#D9EEFF"/>
<path fill-rule="evenodd" clip-rule="evenodd" d="M18.8781 22.2141C18.612 21.3399 18.4701 20.415 18.4701 19.4571C18.4701 18.4968 18.6119 17.5719 18.8781 16.7002H12.3787L10.9978 19.0391L12.3787 22.2141H18.8781Z" fill="#63D0BC"/>
<path fill-rule="evenodd" clip-rule="evenodd" d="M44.3408 22.2141V16.7003H37.0432C37.3093 17.572 37.4512 18.4969 37.4512 19.4573C37.4512 20.4151 37.3093 21.34 37.0432 22.2142H44.3408V22.2141Z" fill="#63D0BC"/>
<path fill-rule="evenodd" clip-rule="evenodd" d="M44.3408 21.3855V17.5289V16.7003H41.29V17.5289V21.3855V22.2141H44.3408V21.3855Z" fill="#06607B"/>
<path fill-rule="evenodd" clip-rule="evenodd" d="M12.3788 16.7002V6.72913H7.61514C6.49015 6.72913 5.52222 7.29927 5.52222 8.54089V13.2033L7.6481 19.0389C7.74443 19.305 5.87949 24.3576 5.52222 25.0468V29.993C5.52222 30.9888 6.33555 31.8048 7.33134 31.8048H12.3788V22.214V16.7002Z" fill="#06607B"/>
<path fill-rule="evenodd" clip-rule="evenodd" d="M8.82868 24.5581V13.6926C8.82868 13.424 8.60825 13.2036 8.33966 13.2036H5.52197V25.0472H8.33966C8.60825 25.0472 8.82868 24.8267 8.82868 24.5581Z" fill="#7E707D"/>
<path fill-rule="evenodd" clip-rule="evenodd" d="M12.3788 16.7002V7.55775V6.72913H11.5502H10.2605V7.55775V31.8049H11.5502H12.3788V22.214V21.3853V17.5287V16.7002Z" fill="#06607B"/>
<path fill-rule="evenodd" clip-rule="evenodd" d="M12.3787 4.47653C12.3787 3.9723 11.9683 3.56177 11.4639 3.56177H9.34814C9.84983 3.56177 10.2604 3.9723 10.2604 4.47653V6.72917H11.5501H12.3786V4.47653H12.3787Z" fill="#6A5C6B"/>
<path fill-rule="evenodd" clip-rule="evenodd" d="M22.9627 36.7181L20.0006 21.4512C19.8283 20.5542 18.9516 19.9637 18.0572 20.1361L2.00265 23.2503C1.10564 23.4251 0.515285 24.2994 0.690099 25.1964L3.64962 40.4658C3.82444 41.3602 4.69868 41.9507 5.5956 41.7783L21.6501 38.6641C22.5471 38.4893 23.1375 37.6151 22.9627 36.7181Z" fill="#EFF6FF"/>
<path fill-rule="evenodd" clip-rule="evenodd" d="M6.78628 38.1677L19.0122 35.7959C19.3138 35.7377 19.5266 35.5045 19.4809 35.279L18.6017 30.8624L17.9581 27.6316L15.7637 28.0573C13.9241 28.4146 12.9232 28.8834 12.1909 29.4003C11.8793 29.6182 11.6182 29.8437 11.3624 30.0743C11.071 30.3354 10.7872 30.5989 10.4476 30.8624C9.52021 31.5795 8.17732 32.2788 5.15942 32.8185L5.8056 36.0468L6.15777 37.8636C6.20102 38.0892 6.48481 38.2259 6.78628 38.1677Z" fill="#63D0BC"/>
<path fill-rule="evenodd" clip-rule="evenodd" d="M10.6354 31.805C10.975 31.5415 11.2588 31.2753 11.5502 31.0144C11.8061 30.7863 12.0696 30.5583 12.3788 30.3404C13.1111 29.8259 14.1144 29.3572 15.9541 28.9999L18.1459 28.5742L17.2413 24.0232C17.1957 23.7977 16.9144 23.6608 16.6129 23.7191L12.3788 24.5401L11.5502 24.7023L10.2605 24.9506L5.52206 25.8705L4.38431 26.0909C4.08276 26.1492 3.87244 26.3824 3.91551 26.6078L5.34716 33.7611C8.36506 33.2189 9.70802 32.5195 10.6354 31.805Z" fill="#06607B"/>
<path fill-rule="evenodd" clip-rule="evenodd" d="M18.1458 28.5742L17.2412 24.0232C17.1956 23.7977 16.9143 23.6608 16.6128 23.7191L14.7605 24.0789C15.0595 24.0232 15.3382 24.1601 15.3813 24.3855L16.2884 28.9339L18.1458 28.5742Z" fill="#06607B"/>
<path fill-rule="evenodd" clip-rule="evenodd" d="M18.7895 31.8049L18.1459 28.5741L16.2886 28.9339L16.8587 31.8049L16.9322 32.1647L17.624 35.6387C17.6671 35.8643 17.4567 36.0974 17.1552 36.1556L19.0125 35.7958C19.314 35.7375 19.5268 35.5044 19.4812 35.2789L18.7895 31.8049Z" fill="#06607B"/>
<path fill-rule="evenodd" clip-rule="evenodd" d="M20.8291 25.7185L20.0006 21.4513C19.998 21.4286 19.993 21.4057 19.9879 21.3854C19.8181 20.6709 19.1999 20.1641 18.4929 20.1108C18.3485 20.1007 18.204 20.1083 18.057 20.1362L14.0435 20.9166C14.606 20.8076 15.1634 21.0028 15.5385 21.3854C15.7563 21.6059 15.916 21.8897 15.9819 22.2141C15.9819 22.2192 15.9844 22.2242 15.9844 22.2293L16.286 23.7825L16.6128 23.7192C16.9144 23.6609 17.1956 23.7977 17.2413 24.0233L18.1458 28.5742L18.7894 31.805L19.4812 35.279C19.5268 35.5045 19.314 35.7376 19.0125 35.7959L18.6299 35.8694L18.9467 37.4987C19.1189 38.3906 18.5337 39.2623 17.6418 39.4422L21.6503 38.6643C22.5474 38.4895 23.1377 37.6152 22.9629 36.7182L22.0102 31.805L20.8291 25.7185Z" fill="#D9EEFF"/>
<path d="M39.6885 9.58948H37.5981C37.234 9.58948 36.939 9.88453 36.939 10.2487C36.939 10.6128 37.234 10.9078 37.5981 10.9078H39.6885C40.0527 10.9078 40.3477 10.6128 40.3477 10.2487C40.3477 9.88453 40.0527 9.58948 39.6885 9.58948Z" fill="black"/>
<path d="M27.9594 12.7697C24.2734 12.7697 21.2747 15.7696 21.2747 19.4571C21.2747 23.1431 24.2734 26.142 27.9594 26.142C31.6467 26.142 34.6466 23.1432 34.6466 19.4571C34.6466 15.7696 31.6467 12.7697 27.9594 12.7697ZM27.9594 24.8236C25.0003 24.8236 22.5929 22.4161 22.5929 19.457C22.5929 16.4965 25.0003 14.0879 27.9594 14.0879C30.9198 14.0879 33.3282 16.4965 33.3282 19.457C33.3282 22.4162 30.9198 24.8236 27.9594 24.8236Z" fill="black"/>
<path d="M42.5316 6.06999H34.5233L33.7482 3.92758C33.6232 3.58253 33.2428 2.53259 32.1681 2.53259H21.9137C20.8389 2.53259 20.4586 3.58253 20.3335 3.92785L19.5584 6.06999H13.038V4.47655C13.038 3.60872 12.332 2.9027 11.4642 2.9027H8.52721C7.66079 2.9027 6.95591 3.60872 6.95591 4.47655V6.09856C5.77239 6.28005 4.86299 7.30617 4.86299 8.54094V22.0242L1.87648 22.6034C0.620971 22.8481 -0.201417 24.068 0.0430056 25.3219L3.00271 40.5924C3.21874 41.6971 4.19344 42.4675 5.28205 42.4675C5.42689 42.4675 5.57384 42.4539 5.72123 42.4255L12.1597 41.1763C12.5171 41.107 12.7506 40.761 12.6813 40.4036C12.6119 40.0463 12.2658 39.8125 11.9086 39.8821L5.47127 41.131C4.92882 41.2357 4.40227 40.8801 4.2968 40.3405L1.33701 25.0703C1.23154 24.5292 1.58671 24.003 2.12802 23.8974L18.1818 20.7834C18.4421 20.7336 18.708 20.7886 18.9306 20.939C19.1531 21.0894 19.3032 21.3155 19.3534 21.577L22.3156 36.8444C22.4211 37.3855 22.0659 37.9117 21.5246 38.0173L15.0836 39.2664C14.7262 39.3358 14.4927 39.6817 14.5619 40.0391C14.6313 40.3964 14.9772 40.6297 15.3346 40.5608L21.7762 39.3114C23.0317 39.0667 23.8542 37.8468 23.6097 36.5927L22.8087 32.4642H30.1664C30.5305 32.4642 30.8256 32.1691 30.8256 31.805C30.8256 31.4409 30.5305 31.1458 30.1664 31.1458H22.5529L21.8583 27.5657C23.6027 28.8782 25.7406 29.6059 27.9594 29.6059C32.3583 29.6059 36.1121 26.7937 37.518 22.8733H43.6816V29.9932C43.6816 30.6288 43.1658 31.1458 42.5316 31.1458H33.3945C33.0304 31.1458 32.7353 31.4409 32.7353 31.805C32.7353 32.1691 33.0304 32.4642 33.3945 32.4642H42.5316C43.8926 32.4642 44.9999 31.3557 44.9999 29.9932V8.54094C44.9999 7.17846 43.8926 6.06999 42.5316 6.06999ZM21.5731 4.3767C21.6995 4.02787 21.814 3.85103 21.9137 3.85103H32.1682C32.2922 3.85103 32.4218 4.13694 32.5086 4.37653L33.1214 6.07017H20.9603L21.5731 4.3767ZM17.811 19.4571C17.811 19.4755 17.8118 19.4939 17.8119 19.5123L13.0379 20.4384V17.3594H18.0294C17.8865 18.0365 17.811 18.738 17.811 19.4571ZM8.27427 4.47655C8.27427 4.33803 8.39011 4.22105 8.52721 4.22105H11.464C11.6049 4.22105 11.7195 4.33566 11.7195 4.47655V6.07008H8.27418V4.47655H8.27427ZM6.18134 8.54094C6.18134 7.90549 6.69725 7.38843 7.33129 7.38843H7.61509H11.7196V20.6941L9.48794 21.127V13.6924C9.48794 13.0593 8.97291 12.5442 8.33974 12.5442H6.18134V8.54094ZM6.18134 13.8626H8.16968V21.3827L6.18134 21.7684V13.8626ZM27.9594 28.2875C25.4774 28.2875 23.1118 27.2414 21.4405 25.4121L20.6479 21.327C20.5313 20.7203 20.1836 20.1945 19.6687 19.8466C19.4994 19.7322 19.3189 19.6422 19.1313 19.5765C19.1308 19.5367 19.1292 19.497 19.1292 19.4572C19.1292 14.5867 23.0904 10.6243 27.9593 10.6243C32.8296 10.6243 36.7919 14.5867 36.7919 19.4572C36.792 24.3261 32.8297 28.2875 27.9594 28.2875ZM43.6816 21.5548H37.8917C38.0346 20.8777 38.1103 20.1761 38.1103 19.4571C38.1103 18.738 38.0346 18.0365 37.8918 17.3594H43.6816V21.5548ZM43.6816 16.041H37.5183C36.1126 12.1192 32.3585 9.30584 27.9594 9.30584C23.5613 9.30584 19.8082 12.1192 18.4028 16.041H13.0379V7.38835H20.0209H34.0609H42.5316C43.1658 7.38835 43.6816 7.9054 43.6816 8.54085V16.041Z" fill="black"/>
<path d="M19.9689 35.9104C20.1236 35.6793 20.1799 35.4087 20.1276 35.1502L17.8872 23.8925C17.7682 23.3037 17.1536 22.944 16.4872 23.0719L4.25918 25.4437C3.59016 25.5729 3.15484 26.1386 3.26919 26.7372L5.51056 37.9871C5.56031 38.2474 5.71412 38.4765 5.94386 38.6322C6.14487 38.7684 6.39201 38.8401 6.64795 38.8401C6.7354 38.8401 6.8239 38.8317 6.91197 38.8147L19.1374 36.443C19.4839 36.3761 19.787 36.1819 19.9689 35.9104ZM5.86617 32.9909L4.61004 26.7185L16.6411 24.385L17.3711 28.053L15.8285 28.3526C12.8864 28.9231 11.9098 29.8042 10.9652 30.6562C10.0502 31.4814 9.10518 32.333 5.86617 32.9909ZM6.75931 37.5014L6.45222 35.9173L6.125 34.2833C9.7227 33.551 10.8491 32.5364 11.8481 31.6353C12.733 30.8371 13.4972 30.1477 16.0797 29.647L17.6283 29.3462L18.7869 35.1682L6.75931 37.5014Z" fill="black"/>
</svg>
