<svg width="45" height="45" viewBox="0 0 45 45" fill="none" xmlns="http://www.w3.org/2000/svg">
<path d="M44.0113 11.512C44.0113 11.7159 43.9234 11.9198 43.7494 12.0622L38.7581 16.1174V7.64478C38.7581 7.34859 39.1017 7.18512 39.3311 7.37232L43.7494 10.9618C43.9234 11.1042 44.0113 11.3081 44.0113 11.512Z" fill="#06607B"/>
<path d="M40.7101 32.9889L31.8832 43.084C31.0368 44.0526 29.5471 44.1027 28.6374 43.1939L26.3496 40.907V44.3426C26.3496 44.7056 26.0552 45 25.6922 45H1.86768C1.38252 45 0.98877 44.6063 0.98877 44.1211V33.525C0.98877 31.0992 2.64375 28.9864 4.99922 28.4054L10.473 27.0554C11.2579 26.8612 11.8099 26.1572 11.8099 25.3486V19.8756H19.1909V25.2141C19.1909 26.086 19.822 26.8286 20.6824 26.9701L24.2974 27.5625C26.2081 27.8763 27.864 29.0602 28.778 30.7679L30.9059 34.7406C30.9894 34.8961 31.1247 34.9981 31.2759 35.0429C31.4974 35.1088 31.7522 35.0508 31.9228 34.8566L36.9009 29.178L40.7101 32.9889Z" fill="#63D0BC"/>
<path d="M42.3431 26.8597C41.5051 26.1897 40.3844 26.1012 39.4764 26.5494C40.1262 27.0815 40.4622 27.8532 40.4622 28.6304C40.4622 29.2571 40.2443 29.8872 39.7978 30.3979L37.8211 32.6593L28.9934 42.7544C28.8661 42.9001 28.7241 43.0246 28.5718 43.1286L28.6373 43.1942C29.547 44.1029 31.0368 44.0528 31.8831 43.0843L40.7109 32.9892L42.6875 30.7277C43.134 30.2171 43.352 29.5869 43.352 28.9603C43.3521 28.1736 43.0084 27.3923 42.3431 26.8597Z" fill="#60CFBB"/>
<path d="M31.2759 35.0429C30.9735 35.2556 30.6703 35.4665 30.368 35.6784C29.4768 36.3024 28.2419 36.0071 27.7277 35.0491L26.1413 32.0863C25.2272 30.3785 23.5714 29.1947 21.6606 28.8809L18.0457 28.2885C17.1853 28.147 16.5542 27.4043 16.5542 26.5325V21.194L19.1909 19.8756V25.2141C19.1909 26.086 19.822 26.8286 20.6824 26.9701L24.2974 27.5625C26.2081 27.8763 27.864 29.0602 28.778 30.7679L30.9059 34.7406C30.9894 34.8961 31.1247 34.9981 31.2759 35.0429Z" fill="#60CFBB"/>
<path d="M20.6818 26.9697L21.363 27.0815C20.2961 29.242 18.0721 30.7286 15.5002 30.7286C12.9921 30.7286 10.8162 29.3142 9.72021 27.2405L10.4726 27.055C11.2578 26.8613 11.8096 26.157 11.8096 25.3483V25.2946V19.8751H19.1909V25.214C19.1909 26.0855 19.8219 26.8288 20.6818 26.9697Z" fill="#FFCEBF"/>
<path d="M16.554 26.5323C16.554 27.4039 17.1853 28.1472 18.0454 28.2883L20.2737 28.6537C20.7089 28.188 21.0776 27.6592 21.3628 27.0815L20.6821 26.9699C20.6821 26.9699 20.6821 26.9699 20.682 26.9699L20.6816 26.9698C19.8218 26.8289 19.1907 26.0856 19.1907 25.214V19.8751L16.554 21.1935V26.5323Z" fill="#FFB09E"/>
<path d="M23.0227 10.8796V17.5023C23.0227 21.6584 19.6547 25.0276 15.5001 25.0276C11.3455 25.0276 7.97754 21.6584 7.97754 17.5023V10.8796L15.5001 9.56128L23.0227 10.8796Z" fill="#FFCEBF"/>
<path d="M20.3861 10.8796V17.5023C20.387 18.256 20.278 19.9894 19.0893 21.5612C17.5148 23.6432 14.6883 24.5926 11.8096 24.0606C12.5662 24.473 13.5894 24.8842 14.8329 24.9971C15.064 25.0181 15.2867 25.0274 15.5003 25.0274C19.6549 25.0274 23.0228 21.6583 23.0228 17.5022C23.0228 15.5449 23.0228 12.8367 23.0228 10.8795H20.3861V10.8796Z" fill="#FFB09E"/>
<path d="M43.3521 28.9599C43.3521 29.5866 43.1341 30.2168 42.6876 30.7274L40.7101 32.9889L36.9009 29.1779L38.6473 27.1872C38.8863 26.9138 39.1693 26.7012 39.4761 26.5491C40.384 26.1009 41.5046 26.1896 42.3431 26.8594C43.0084 27.392 43.3521 28.1733 43.3521 28.9599Z" fill="#FFCEBF"/>
<path d="M43.3521 28.9599C43.3521 29.5866 43.1342 30.2168 42.6877 30.7274L40.7102 32.9889L39.0156 31.2926C40.3111 30.0524 41.2788 28.1795 39.4762 26.5491C40.3841 26.1009 41.5047 26.1896 42.3432 26.8594C43.0085 27.392 43.3521 28.1733 43.3521 28.9599Z" fill="#FFB09E"/>
<path d="M7.06431 16.5572H7.97749V13.0476H7.06431C6.09514 13.0476 5.30957 13.8333 5.30957 14.8023C5.30948 15.7716 6.09514 16.5572 7.06431 16.5572Z" fill="#FFB09E"/>
<path d="M23.9359 16.5572H23.0227V13.0476H23.9359C24.9051 13.0476 25.6906 13.8333 25.6906 14.8023C25.6907 15.7716 24.9051 16.5572 23.9359 16.5572Z" fill="#FFCEBF"/>
<path d="M23.831 11.5447L15.5002 10.2023L7.16943 11.5447V5.05731C7.16943 2.62828 9.13854 0.65918 11.5676 0.65918H19.433C21.862 0.65918 23.8311 2.62828 23.8311 5.05731V11.5447H23.831Z" fill="#06607B"/>
<path d="M19.4329 0.65918H16.7961C19.2252 0.65918 21.1943 2.62828 21.1943 5.05731V11.1199L23.831 11.5448V5.05731C23.8309 2.62828 21.8618 0.65918 19.4329 0.65918Z" fill="#05313D"/>
<path d="M25.1125 12.4656C25.1081 12.4743 25.1037 12.4831 25.0993 12.491C24.7469 13.1573 23.9401 13.428 23.251 13.123C22.6648 12.8628 22.068 12.6343 21.4642 12.4365C16.987 10.967 12.0968 11.1964 7.74886 13.123C7.06067 13.428 6.25384 13.1573 5.9014 12.491C5.897 12.4831 5.89261 12.4743 5.88734 12.4656C5.5015 11.7361 5.81439 10.8299 6.56937 10.495C11.4631 8.32327 16.9554 8.02093 22.0153 9.58802C22.8335 9.84202 23.6404 10.1444 24.4314 10.495C25.1863 10.8299 25.4992 11.7361 25.1125 12.4656Z" fill="#63D0BC"/>
<path d="M25.1127 12.4656C24.7549 13.1406 23.9477 13.4321 23.2512 13.123C22.6649 12.8628 22.0682 12.6343 21.4644 12.4365C21.7579 12.281 22.1525 11.9936 22.3477 11.5075C22.5876 10.9099 22.4584 10.1804 22.0154 9.58801C22.8337 9.84202 23.6405 10.1444 24.4315 10.495C25.1865 10.8299 25.4994 11.7361 25.1127 12.4656Z" fill="#60CFBB"/>
<path d="M44.0112 11.5119C44.0112 11.7158 43.9233 11.9197 43.7493 12.0621L40.9456 14.3402V8.68359L43.7493 10.9617C43.9233 11.1041 44.0112 11.308 44.0112 11.5119Z" fill="#05313D"/>
<path d="M35.0346 39.4798C34.7606 39.2401 34.3442 39.2681 34.1045 39.5421L31.3868 42.6502C31.099 42.9797 30.6994 43.1693 30.2619 43.1841C29.8231 43.1997 29.4129 43.0368 29.1034 42.7277L27.0089 40.634V39.2495C27.0089 38.8854 26.7138 38.5903 26.3497 38.5903C25.9856 38.5903 25.6905 38.8854 25.6905 39.2495V40.9037V40.9104V44.3408C25.6905 44.7049 25.9856 45 26.3497 45C26.7138 45 27.0089 44.7049 27.0089 44.3408V42.4981L28.1715 43.6602C28.711 44.1991 29.4492 44.5033 30.2099 44.5033C31.0366 44.5033 31.8357 44.1406 32.3794 43.5179L35.097 40.4099C35.3367 40.1358 35.3087 39.7194 35.0346 39.4798ZM7.65861 38.5903C7.29448 38.5903 6.99943 38.8854 6.99943 39.2495V44.3408C6.99943 44.7049 7.29448 45 7.65861 45C8.02274 45 8.31779 44.7049 8.31779 44.3408V39.2495C8.31779 38.8854 8.02266 38.5903 7.65861 38.5903ZM44.1651 10.4504L39.7468 6.86039C39.4412 6.61219 39.0306 6.56297 38.675 6.73225C38.3195 6.90144 38.0987 7.25115 38.0987 7.6449V16.1176C38.0987 16.1189 38.0989 16.12 38.0989 16.1213V26.8128L31.4618 34.3825L29.3592 30.4568C28.3556 28.5819 26.5033 27.2567 24.404 26.912C23.5383 26.7699 21.5176 26.4395 20.7894 26.3197C20.2452 26.2302 19.85 25.7652 19.85 25.2141V24.4351C20.3636 24.1112 20.8459 23.7296 21.2857 23.2894C22.8311 21.7431 23.6821 19.6879 23.6821 17.5025V17.216H23.9361C25.2403 17.222 26.3496 16.1129 26.3496 14.8025C26.3496 14.1073 26.0443 13.4612 25.5491 13.0122C25.9323 12.4656 26.0409 11.7474 25.8229 11.1168C25.6346 10.5725 25.2248 10.1262 24.6985 9.89262C24.6293 9.86186 24.5595 9.83232 24.4898 9.80227V5.05723C24.4898 2.26872 22.2211 0 19.4326 0H11.5673C8.77878 0 6.51006 2.26872 6.51006 5.05723V9.80227C6.44063 9.83232 6.37102 9.86186 6.30185 9.89253C5.77547 10.1262 5.36563 10.5725 5.17737 11.1168C4.9565 11.7556 5.06496 12.4628 5.44992 13.013C4.95519 13.4616 4.65029 14.1073 4.65029 14.8025C4.65029 16.1094 5.74682 17.2235 7.06465 17.216H7.31865V17.5025C7.31865 20.4176 8.85041 22.9811 11.1508 24.4313V25.3485C11.1508 25.855 10.807 26.2936 10.3153 26.4154L4.84145 27.7654C2.18487 28.4206 0.32959 30.7891 0.32959 33.525V44.3408C0.32959 44.7049 0.624639 45 0.98877 45C1.3529 45 1.64795 44.7049 1.64795 44.3408V33.525C1.64795 31.3971 3.09094 29.555 5.15707 29.0454L9.39709 27.9998C10.708 30.102 13.0013 31.3879 15.5001 31.3879C18.0929 31.3879 20.4334 30.0283 21.7205 27.8082L24.1906 28.213C25.8878 28.4917 27.3855 29.5631 28.1969 31.0791L30.3245 35.0512C30.5225 35.4218 30.8901 35.6716 31.3078 35.7196C31.7261 35.7676 32.1412 35.6073 32.4184 35.2911L36.9329 30.1423L39.8004 33.0108C39.8031 33.0135 39.806 33.0158 39.8087 33.0184L36.1328 37.2225C35.8931 37.4965 35.9212 37.9129 36.1952 38.1526C36.4683 38.3914 36.8849 38.3652 37.1254 38.0903L43.1839 31.1614C44.424 29.7548 44.2065 27.5053 42.7546 26.3446C41.7792 25.5648 40.5018 25.4162 39.4172 25.8534V16.4312L44.1651 12.5735C44.4862 12.3125 44.6704 11.9256 44.6704 11.5118C44.6704 11.0981 44.4862 10.7112 44.1651 10.4504ZM25.0312 14.8025C25.0312 15.3967 24.5307 15.9006 23.9361 15.8977H23.6821V13.8973C23.9324 13.9152 24.1813 13.8878 24.4184 13.8189C24.7866 14.0005 25.0312 14.3822 25.0312 14.8025ZM7.31865 15.8977H7.06465C6.46664 15.9007 5.96865 15.3975 5.96865 14.8025C5.96865 14.3825 6.21264 14.0016 6.57993 13.8202C6.81715 13.8891 7.07001 13.9171 7.31856 13.8988V15.8977H7.31865ZM7.48186 12.52C7.1042 12.6875 6.66677 12.5236 6.47024 12.1574C6.26317 11.7715 6.43685 11.2751 6.83675 11.0976C10.4594 9.48955 14.4512 8.92213 18.3815 9.45694C18.7416 9.50555 19.0745 9.25339 19.1235 8.89269C19.1726 8.53198 18.92 8.19976 18.5592 8.15063C14.9317 7.65703 11.2545 8.04832 7.82833 9.28072V5.05723C7.82833 2.99558 9.50555 1.31836 11.5672 1.31836H19.4326C21.4943 1.31836 23.1715 2.99558 23.1715 5.05723V9.28046C22.6669 9.09905 22.1562 8.93531 21.6425 8.79082C21.2925 8.69238 20.9281 8.89638 20.8295 9.2468C20.7309 9.59722 20.935 9.96126 21.2854 10.0599C22.2646 10.3354 23.2329 10.6845 24.1635 11.0975C24.5601 11.2736 24.7348 11.7704 24.5314 12.1547C24.3384 12.5192 23.9052 12.6913 23.5183 12.5199C18.5992 10.3417 12.4664 10.3101 7.48186 12.52ZM8.63701 17.5025V13.4653C13.0352 11.7062 17.9659 11.7063 22.3639 13.4655V17.5025C22.3639 19.3359 21.6498 21.0602 20.3534 22.3574C19.0674 23.6442 17.335 24.3685 15.5005 24.3685C11.7159 24.3686 8.63701 21.2884 8.63701 17.5025ZM15.5001 30.0695C13.605 30.0695 11.8548 29.1633 10.7568 27.6586C11.8316 27.3248 12.5769 26.2498 12.469 25.1043C13.407 25.4799 14.43 25.6869 15.5004 25.6869C16.5559 25.6869 17.58 25.4866 18.5317 25.1071C18.4641 26.2427 19.2466 27.2684 20.3147 27.5626C19.2248 29.1275 17.4499 30.0695 15.5001 30.0695ZM41.9311 27.374C42.8145 28.0801 42.9449 29.4405 42.1914 30.2935L40.6782 32.024L37.804 29.1488L39.1431 27.6217C39.8586 26.805 41.0835 26.6965 41.9311 27.374ZM43.3338 11.5502L39.4172 14.7325L39.4169 8.29116L43.3337 11.4736C43.3536 11.486 43.3542 11.5374 43.3338 11.5502ZM19.1296 17.0032C19.4937 17.0032 19.7887 16.7081 19.7887 16.3441V14.8917C19.7887 14.5277 19.4937 14.2326 19.1296 14.2326C18.7654 14.2326 18.4704 14.5277 18.4704 14.8917V16.3441C18.4704 16.7082 18.7655 17.0032 19.1296 17.0032ZM11.8707 14.2327C11.5066 14.2327 11.2115 14.5278 11.2115 14.8918V16.3441C11.2115 16.7082 11.5066 17.0033 11.8707 17.0033C12.2348 17.0033 12.5299 16.7082 12.5299 16.3441V14.8918C12.5299 14.5277 12.2347 14.2327 11.8707 14.2327ZM17.5298 20.2814C17.3547 19.9623 16.9542 19.8454 16.6348 20.0205C16.3873 20.1563 15.9841 20.316 15.4754 20.3117C14.9872 20.3066 14.6023 20.1506 14.3655 20.0205C14.046 19.8454 13.6455 19.9621 13.4704 20.2813C13.2952 20.6005 13.412 21.0011 13.7312 21.1764C14.1003 21.379 14.7001 21.6221 15.4616 21.6301C16.2309 21.6381 16.8886 21.385 17.2689 21.1765C17.5881 21.0013 17.7049 20.6006 17.5298 20.2814Z" fill="black"/>
</svg>
