<svg width="57" height="57" viewBox="0 0 57 57" fill="none" xmlns="http://www.w3.org/2000/svg">
<g clip-path="url(#clip0_433_77)">
<path fill-rule="evenodd" clip-rule="evenodd" d="M33.9595 22.9208C34.927 22.787 35.6029 21.894 35.4691 20.9265L34.7919 16.0802L38.1522 12.5358C38.4241 12.282 38.6188 11.941 38.6876 11.5462C38.8559 10.5825 38.211 9.66481 37.2473 9.49659L32.431 8.64338L30.049 4.26154C29.8894 3.96842 29.6455 3.71704 29.329 3.54816C28.4686 3.08926 27.3989 3.41479 26.9401 4.27523L24.6405 8.59195L19.7891 9.49348C19.4394 9.54602 19.1021 9.70366 18.8279 9.96751C18.1243 10.6444 18.1026 11.7637 18.7794 12.4672L22.1764 15.9905L21.5439 20.8127C21.4678 21.1823 21.5085 21.5789 21.6864 21.9444C22.1147 22.824 23.1751 23.1898 24.0546 22.7616L28.4499 20.6221L32.9554 22.7685C33.2569 22.9123 33.6038 22.97 33.9595 22.9208Z" fill="#ABECFF"/>
<path fill-rule="evenodd" clip-rule="evenodd" d="M34.0663 29.168H22.9336C21.7091 29.168 20.707 30.17 20.707 31.3945V33.6213V55.8868H36.2928V38.0743V31.3944C36.2928 30.1698 35.2908 29.168 34.0663 29.168Z" fill="#63D0BC"/>
<path fill-rule="evenodd" clip-rule="evenodd" d="M20.7072 55.8867V33.6211H7.34788C6.12328 33.6211 5.12134 34.623 5.12134 35.8475V55.8865H20.7072V55.8867Z" fill="#63D0BC"/>
<path fill-rule="evenodd" clip-rule="evenodd" d="M36.293 38.0742V55.8867H51.8788V40.3008C51.8788 39.0762 50.8768 38.0742 49.6522 38.0742H36.293Z" fill="#63D0BC"/>
<path d="M49.6522 36.961H37.4062V31.3945C37.4062 29.5529 35.908 28.0547 34.0664 28.0547H22.9337C21.0921 28.0547 19.5939 29.5529 19.5939 31.3945V32.5079H7.34787C5.5063 32.5079 4.00806 34.0061 4.00806 35.8477V55.8867C4.00806 56.5016 4.50647 57 5.12133 57H51.8788C52.4936 57 52.992 56.5016 52.992 55.8867V40.3008C52.992 38.4592 51.4938 36.961 49.6522 36.961ZM35.1797 54.7733H21.8204V51.9898C21.8204 51.375 21.322 50.8765 20.7071 50.8765C20.0923 50.8765 19.5939 51.375 19.5939 51.9898V54.7733H6.2346V35.8476C6.2346 35.2337 6.73402 34.7343 7.34787 34.7343H19.5939V41.9704C19.5939 42.5852 20.0923 43.0836 20.7071 43.0836C21.322 43.0836 21.8204 42.5852 21.8204 41.9704V31.3944C21.8204 30.7805 22.3198 30.2811 22.9337 30.2811H34.0664C34.6803 30.2811 35.1797 30.7805 35.1797 31.3944V54.7733ZM50.7655 54.7734H37.4062V39.1875H49.6522C50.2661 39.1875 50.7655 39.6869 50.7655 40.3008V54.7734Z" fill="black"/>
<path d="M46.8718 44.7539C46.8718 42.9123 45.3781 41.4141 43.5422 41.4141C42.5685 41.4141 41.6466 41.8399 41.0127 42.5822C40.6135 43.0498 40.6689 43.7525 41.1364 44.1518C41.6041 44.5511 42.3067 44.4957 42.706 44.0282C42.9162 43.782 43.221 43.6407 43.5422 43.6407C44.1504 43.6407 44.6453 44.1402 44.6453 44.754C44.6453 45.0565 44.5269 45.3395 44.3123 45.5509C44.0748 45.7847 43.9546 46.1126 43.9846 46.4444C44.0147 46.7763 44.1917 47.0773 44.4672 47.2647C44.9257 47.5765 45.1993 48.0945 45.1993 48.6505C45.1993 49.5713 44.456 50.3204 43.5423 50.3204C43.1758 50.3204 42.8287 50.2023 42.5384 49.979C42.0511 49.6041 41.3522 49.6953 40.9771 50.1825C40.6021 50.6698 40.6933 51.3688 41.1806 51.7438C41.8637 52.2693 42.6803 52.5471 43.5423 52.5471C45.6837 52.5471 47.4259 50.7991 47.4259 48.6506C47.4259 47.741 47.1105 46.8744 46.5517 46.1875C46.7614 45.7455 46.8718 45.2587 46.8718 44.7539Z" fill="black"/>
<path d="M15.1405 45.8674H12.4579C12.7031 45.6419 13.0104 45.4006 13.369 45.1238C14.6422 44.1415 16.2267 42.9189 16.2537 40.6159C16.2735 38.9245 15.1918 37.4639 13.623 37.0638C12.1233 36.6815 10.661 37.364 9.89776 38.803C9.60964 39.3461 9.81649 40.02 10.3597 40.3081C10.9029 40.5962 11.5767 40.3894 11.8648 39.8462C12.244 39.1313 12.7845 39.148 13.0728 39.2213C13.5546 39.3442 14.0365 39.815 14.0274 40.5899C14.014 41.7323 13.2559 42.399 12.009 43.3611C10.8679 44.2416 9.57446 45.2395 9.57446 46.9807C9.57446 47.5955 10.0729 48.0939 10.6877 48.0939H15.1405C15.7554 48.0939 16.2538 47.5955 16.2538 46.9807C16.2538 46.3658 15.7554 45.8674 15.1405 45.8674Z" fill="black"/>
<path d="M29.7344 41.414H29.6134V33.6211C29.6134 33.2233 29.4012 32.8558 29.0568 32.657C28.7124 32.458 28.288 32.4581 27.9435 32.657L26.7092 33.3696C26.1767 33.677 25.9942 34.3579 26.3017 34.8903C26.5293 35.2844 26.9617 35.4865 27.3868 35.4406V41.414H27.2658C26.651 41.414 26.1525 41.9124 26.1525 42.5272C26.1525 43.1421 26.651 43.6405 27.2658 43.6405H29.7344C30.3493 43.6405 30.8477 43.1421 30.8477 42.5272C30.8477 41.9124 30.3493 41.414 29.7344 41.414Z" fill="black"/>
<path d="M21.0029 16.3772L20.4448 20.6324C20.328 21.2466 20.411 21.8678 20.6856 22.4318C21.1846 23.4564 22.214 24.0534 23.2838 24.0534C23.7069 24.0534 24.1367 23.9599 24.5419 23.7625L28.4552 21.8577L32.476 23.7732C32.9825 24.015 33.5483 24.1015 34.112 24.0235C34.8746 23.9181 35.5504 23.522 36.0151 22.9081C36.4796 22.2943 36.6773 21.5364 36.5717 20.7723L35.9686 16.457L38.9394 13.3235C39.3859 12.896 39.6778 12.3484 39.7844 11.7376C39.9169 10.9785 39.7459 10.2134 39.3029 9.58294C38.8599 8.9525 38.1979 8.53235 37.4416 8.40031L33.1532 7.64062L31.0272 3.7298C31.0272 3.72958 31.027 3.72947 31.0269 3.72925C30.7573 3.23384 30.3514 2.83161 29.8531 2.56576C29.1746 2.20395 28.3957 2.12791 27.6599 2.35179C26.9243 2.57567 26.3198 3.07275 25.9576 3.75173L23.9101 7.59531L19.6023 8.39575C19.0181 8.48804 18.4839 8.75367 18.0561 9.16513C17.5014 9.69861 17.1878 10.4162 17.1729 11.1857C17.158 11.9552 17.4437 12.6844 17.978 13.2399L21.0029 16.3772ZM19.5997 10.7699C19.7241 10.6502 19.8615 10.6084 19.9547 10.5944C19.9673 10.5925 19.9799 10.5903 19.9925 10.588L24.844 9.68648C25.1771 9.62458 25.4639 9.41439 25.6232 9.11537L27.9226 4.7991C28.0045 4.64536 28.1416 4.53269 28.3083 4.48193C28.3711 4.46278 28.4353 4.45332 28.4991 4.45332C28.6048 4.45332 28.7095 4.47926 28.8053 4.53036C28.9185 4.5907 29.0105 4.68176 29.0714 4.79364L31.4532 9.17493C31.615 9.47262 31.9035 9.68036 32.2372 9.73947L37.0563 10.5931C37.2294 10.6233 37.3804 10.7192 37.4815 10.863C37.5826 11.0068 37.6215 11.1814 37.5913 11.3547C37.5599 11.5343 37.4661 11.6534 37.393 11.7217C37.3764 11.7371 37.3602 11.7532 37.3445 11.7696L33.9842 15.314C33.7511 15.5598 33.6427 15.8984 33.6895 16.234L34.3665 21.0787C34.3905 21.2522 34.3456 21.4245 34.2398 21.5641C34.1342 21.7036 33.9806 21.7938 33.8072 21.8177C33.6764 21.8358 33.5475 21.817 33.4344 21.7631L28.9289 19.6168C28.6229 19.471 28.2675 19.4726 27.9629 19.6209L23.5674 21.7604C23.2411 21.9195 22.8464 21.7832 22.6875 21.4568C22.6065 21.2903 22.6139 21.1367 22.6344 21.0371C22.6399 21.0106 22.6443 20.984 22.6479 20.9571L23.2803 16.135C23.3244 15.7991 23.2131 15.4615 22.978 15.2176L19.5819 11.6953C19.4608 11.5692 19.3959 11.4036 19.3992 11.2287C19.4026 11.0541 19.4737 10.891 19.5997 10.7699Z" fill="black"/>
<path d="M11.0776 2.07758L15.4722 4.61475C15.6475 4.71605 15.8389 4.76415 16.0278 4.76415C16.4125 4.76415 16.7867 4.56443 16.9929 4.20728C17.3004 3.6748 17.1179 2.99392 16.5854 2.68654L12.1909 0.149375C11.6585 -0.158114 10.9775 0.0243533 10.6701 0.556836C10.3626 1.08932 10.5451 1.7702 11.0776 2.07758Z" fill="black"/>
<path d="M7.86468 15.4244C7.91801 15.4244 7.972 15.4205 8.02644 15.4127L13.0479 14.682C13.6563 14.5935 14.0778 14.0284 13.9893 13.42C13.9007 12.8116 13.336 12.3902 12.7273 12.4786L7.70582 13.2093C7.09741 13.2978 6.67592 13.8629 6.76443 14.4713C6.84514 15.0254 7.32084 15.4244 7.86468 15.4244Z" fill="black"/>
<path d="M15.5138 22.1984L11.9257 25.7865C11.4909 26.2212 11.4909 26.9262 11.9257 27.361C12.1431 27.5785 12.428 27.6871 12.7129 27.6871C12.9978 27.6871 13.2828 27.5785 13.5001 27.361L17.0882 23.7729C17.5229 23.3382 17.5229 22.6333 17.0882 22.1984C16.6534 21.7636 15.9485 21.7637 15.5138 22.1984Z" fill="black"/>
<path d="M40.9726 4.76417C41.1614 4.76417 41.3529 4.71597 41.5283 4.61477L45.9228 2.0776C46.4553 1.77023 46.6378 1.08934 46.3303 0.55686C46.0228 0.0242662 45.342 -0.158089 44.8096 0.149399L40.415 2.68657C39.8825 2.99394 39.7 3.67483 40.0075 4.20731C40.2136 4.56445 40.5879 4.76417 40.9726 4.76417Z" fill="black"/>
<path d="M43.0108 13.4197C42.9223 14.0281 43.3437 14.5932 43.9522 14.6817L48.9736 15.4124C49.0279 15.4203 49.0819 15.4241 49.1354 15.4241C49.6792 15.4241 50.155 15.0251 50.2356 14.4709C50.3241 13.8625 49.9026 13.2974 49.2942 13.2089L44.2728 12.4782C43.6648 12.39 43.0993 12.8113 43.0108 13.4197Z" fill="black"/>
<path d="M39.9117 22.1984C39.477 22.6331 39.477 23.338 39.9117 23.7729L43.4999 27.361C43.7173 27.5784 44.0022 27.6871 44.2871 27.6871C44.5719 27.6871 44.8569 27.5784 45.0743 27.361C45.509 26.9262 45.509 26.2213 45.0743 25.7865L41.4861 22.1984C41.0515 21.7636 40.3466 21.7636 39.9117 22.1984Z" fill="black"/>
<path d="M20.7073 45.8667C20.0924 45.8667 19.594 46.3654 19.594 46.9803C19.594 47.5952 20.0924 48.0936 20.7073 48.0936C21.3221 48.0936 21.8206 47.5952 21.8206 46.9803V46.9795C21.8206 46.3648 21.3221 45.8667 20.7073 45.8667Z" fill="black"/>
</g>
<defs>
<clipPath id="clip0_433_77">
<rect width="57" height="57" fill="white"/>
</clipPath>
</defs>
</svg>
