<svg width="20" height="21" viewBox="0 0 20 21" fill="none" xmlns="http://www.w3.org/2000/svg">
<path d="M15.8333 3.39648H4.16667C3.24619 3.39648 2.5 4.14268 2.5 5.06315V16.7298C2.5 17.6503 3.24619 18.3965 4.16667 18.3965H15.8333C16.7538 18.3965 17.5 17.6503 17.5 16.7298V5.06315C17.5 4.14268 16.7538 3.39648 15.8333 3.39648Z" stroke="#919191" stroke-width="2" stroke-linecap="round" stroke-linejoin="round"/>
<path d="M7.08325 9.22974C7.77361 9.22974 8.33325 8.67009 8.33325 7.97974C8.33325 7.28938 7.77361 6.72974 7.08325 6.72974C6.3929 6.72974 5.83325 7.28938 5.83325 7.97974C5.83325 8.67009 6.3929 9.22974 7.08325 9.22974Z" stroke="#919191" stroke-width="2" stroke-linecap="round" stroke-linejoin="round"/>
<path d="M17.5001 13.3964L13.3334 9.22974L4.16675 18.3964" stroke="#919191" stroke-width="2" stroke-linecap="round" stroke-linejoin="round"/>
</svg>
