<svg width="170" height="49" viewBox="0 0 170 49" fill="none" xmlns="http://www.w3.org/2000/svg">
<path d="M154.322 30.7748H152.532L153.299 23.8934H146.679L145.921 30.7748H144.132L145.807 15.6953H147.588L146.84 22.4613H153.46L154.208 15.6953H155.988L154.322 30.7748Z" fill="#9B9B9B"/>
<path d="M169.984 22.1771C169.984 23.461 169.806 24.6307 169.449 25.6862C169.092 26.7428 168.599 27.6466 167.97 28.4012C167.342 29.1557 166.594 29.7394 165.727 30.1535C164.858 30.5675 163.913 30.7745 162.89 30.7745H158.202L159.877 15.6951H164.556C165.389 15.6951 166.142 15.8534 166.815 16.1679C167.487 16.4835 168.057 16.927 168.525 17.4994C168.992 18.0718 169.352 18.7551 169.604 19.5515C169.857 20.3479 169.984 21.2234 169.984 22.1771ZM168.165 22.2189C168.165 21.461 168.079 20.7777 167.905 20.1669C167.732 19.556 167.483 19.039 167.157 18.6148C166.832 18.1906 166.435 17.8648 165.968 17.6363C165.501 17.4078 164.974 17.2946 164.388 17.2946H161.488L160.162 29.1851H163.062C163.819 29.1851 164.51 29.0256 165.135 28.7066C165.761 28.3876 166.296 27.9283 166.745 27.3276C167.194 26.7269 167.543 25.9984 167.793 25.1387C168.04 24.2801 168.165 23.3061 168.165 22.2189Z" fill="#9B9B9B"/>
<path d="M63.8972 26.8074C63.9718 26.8074 64.0488 26.8233 64.1234 26.8549C64.1992 26.8866 64.2727 26.9409 64.3406 27.0178L65.6099 28.502C65.0544 29.3086 64.3587 29.9172 63.5216 30.3278C62.6845 30.7385 61.6958 30.9432 60.5521 30.9432C59.5045 30.9432 58.5656 30.7453 57.7353 30.3482C56.905 29.9523 56.2013 29.4048 55.6232 28.7068C55.0452 28.0088 54.6029 27.1807 54.2929 26.2237C53.9841 25.2655 53.8291 24.2259 53.8291 23.1037C53.8291 21.9601 54.0056 20.9103 54.3596 19.9521C54.7137 18.9939 55.207 18.1681 55.8427 17.4735C56.4774 16.779 57.2353 16.2394 58.1199 15.8536C59.0034 15.4679 59.9797 15.2744 61.0464 15.2744C61.5645 15.2744 62.0521 15.3253 62.5103 15.4271C62.9673 15.5289 63.3949 15.6692 63.7931 15.848C64.1913 16.0267 64.5578 16.2416 64.8927 16.4894C65.2275 16.7382 65.5239 17.0143 65.783 17.3152L64.7026 18.9249C64.6325 19.0233 64.551 19.1127 64.456 19.193C64.3621 19.2734 64.2297 19.3141 64.0578 19.3141C63.9435 19.3141 63.8372 19.2869 63.7365 19.2304C63.6347 19.1738 63.5273 19.1059 63.4141 19.0245C63.301 18.943 63.1766 18.8571 63.0408 18.762C62.9051 18.6681 62.7433 18.5799 62.5578 18.4996C62.3711 18.4193 62.1539 18.3503 61.9039 18.2937C61.6539 18.2383 61.3621 18.21 61.0283 18.21C60.4469 18.21 59.9175 18.3242 59.4378 18.5516C58.957 18.7801 58.5464 19.1059 58.2013 19.5301C57.8574 19.9544 57.5894 20.4691 57.3959 21.072C57.2036 21.675 57.1075 22.3526 57.1075 23.1026C57.1075 23.8888 57.2036 24.5868 57.3959 25.1965C57.5894 25.8074 57.8507 26.321 58.1821 26.7384C58.5136 27.1558 58.9004 27.4737 59.3416 27.6909C59.7839 27.9081 60.258 28.0179 60.7625 28.0179C61.0532 28.0179 61.318 28.002 61.5578 27.9703C61.7976 27.9387 62.0205 27.8844 62.2263 27.8074C62.4311 27.7305 62.6268 27.6298 62.8134 27.5077C63.0001 27.3855 63.1879 27.2328 63.3768 27.0495C63.4526 26.9794 63.5352 26.9217 63.6234 26.8764C63.7117 26.8312 63.8022 26.8074 63.8972 26.8074Z" fill="#9B9B9B"/>
<path d="M81.16 23.1025C81.16 24.2111 80.988 25.2428 80.6441 26.1964C80.2991 27.15 79.816 27.9804 79.1904 28.6851C78.5649 29.3899 77.8114 29.9419 76.9313 30.3424C76.0512 30.7429 75.0738 30.942 74.0003 30.942C72.9267 30.942 71.9493 30.7417 71.0636 30.3424C70.1801 29.9419 69.4244 29.3899 68.7954 28.6851C68.1676 27.9792 67.6823 27.15 67.3373 26.1964C66.9934 25.2428 66.8214 24.2111 66.8214 23.1025C66.8214 21.995 66.9934 20.9633 67.3373 20.0096C67.6823 19.056 68.1676 18.2279 68.7954 17.5266C69.4244 16.8252 70.1801 16.2743 71.0636 15.8749C71.9482 15.4745 72.9256 15.2754 74.0003 15.2754C75.075 15.2754 76.0512 15.4768 76.9313 15.8806C77.8114 16.2845 78.5649 16.8365 79.1904 17.5379C79.816 18.2392 80.2991 19.0673 80.6441 20.021C80.988 20.9735 81.16 22.0018 81.16 23.1025ZM77.8839 23.1025C77.8839 22.3457 77.7956 21.6635 77.6192 21.056C77.4427 20.4497 77.1882 19.935 76.8567 19.5142C76.5252 19.0933 76.1191 18.7709 75.6395 18.5469C75.1598 18.3218 74.6135 18.2098 74.0015 18.2098C73.3827 18.2098 72.8318 18.3218 72.3487 18.5469C71.8657 18.7709 71.4584 19.0933 71.127 19.5142C70.7955 19.935 70.541 20.4497 70.3645 21.056C70.188 21.6635 70.0998 22.3457 70.0998 23.1025C70.0998 23.8672 70.188 24.5527 70.3645 25.1602C70.541 25.7665 70.7955 26.2812 71.127 26.7021C71.4584 27.1229 71.8657 27.4442 72.3487 27.6648C72.8318 27.8853 73.3827 27.9962 74.0015 27.9962C74.6135 27.9962 75.1598 27.8853 75.6395 27.6648C76.1191 27.4442 76.5252 27.1229 76.8567 26.7021C77.1882 26.2812 77.4427 25.7665 77.6192 25.1602C77.7956 24.5527 77.8839 23.8683 77.8839 23.1025Z" fill="#9B9B9B"/>
<path d="M91.0944 24.597C91.2121 24.8843 91.323 25.1795 91.4304 25.4816C91.539 25.1728 91.651 24.8718 91.7721 24.5811C91.892 24.2904 92.0153 24.0076 92.1408 23.7327L95.6839 15.9792C95.7473 15.8457 95.8106 15.7427 95.8773 15.6692C95.944 15.5957 96.0176 15.5414 96.1002 15.5052C96.1816 15.4701 96.2744 15.4531 96.3796 15.4531C96.4837 15.4531 96.6047 15.4531 96.7439 15.4531H99.1862V30.7735H96.3649V21.9555C96.3649 21.5279 96.3841 21.0641 96.4214 20.5663L92.7664 28.4477C92.6521 28.6932 92.5006 28.8787 92.3072 29.0054C92.1149 29.131 91.8965 29.1943 91.6498 29.1943H91.2132C90.9666 29.1943 90.7483 29.131 90.5549 29.0054C90.3625 28.8787 90.2098 28.6932 90.0967 28.4477L86.4224 20.555C86.4462 20.8005 86.4654 21.0449 86.479 21.2858C86.4914 21.5279 86.4982 21.7507 86.4982 21.9544V30.7724H83.6758V15.4531H86.1192C86.2584 15.4531 86.3794 15.4531 86.4835 15.4531C86.5887 15.4531 86.6815 15.4712 86.7629 15.5052C86.8444 15.5402 86.9201 15.5957 86.9858 15.6692C87.0514 15.7427 87.1159 15.8468 87.1792 15.9792L90.7313 23.7632C90.8558 24.0313 90.9779 24.3085 91.0944 24.597Z" fill="#9B9B9B"/>
<path d="M111.336 15.4429V18.1782H105.673V21.7563H110.01V24.3865H105.673V28.0381H111.336V30.7735H102.452V15.4429H111.336Z" fill="#9B9B9B"/>
<path d="M126.621 23.1025C126.621 24.2111 126.45 25.2338 126.105 26.1693C125.761 27.106 125.277 27.9159 124.652 28.6003C124.027 29.2836 123.274 29.8176 122.394 30.1999C121.514 30.5823 120.535 30.7735 119.463 30.7735H114.102V15.4429H119.463C120.535 15.4429 121.514 15.6352 122.394 16.0209C123.274 16.4067 124.027 16.9406 124.652 17.6205C125.277 18.3015 125.761 19.1092 126.105 20.0459C126.449 20.9826 126.621 22.0018 126.621 23.1025ZM123.344 23.1025C123.344 22.3457 123.256 21.6613 123.079 21.0516C122.903 20.4407 122.648 19.9237 122.317 19.4995C121.985 19.0753 121.58 18.7484 121.101 18.521C120.62 18.2925 120.075 18.1793 119.463 18.1793H117.321V28.0393H119.463C120.075 28.0393 120.62 27.925 121.101 27.6976C121.58 27.4691 121.985 27.1433 122.317 26.7191C122.648 26.2949 122.903 25.7768 123.079 25.167C123.256 24.5573 123.344 23.8684 123.344 23.1025Z" fill="#9B9B9B"/>
<path d="M134.934 24.9442V30.7735H131.733V24.9442L126.732 15.4429H129.554C129.832 15.4429 130.052 15.5142 130.217 15.6579C130.383 15.8015 130.515 15.9859 130.616 16.2099L132.567 20.6715C132.725 21.029 132.87 21.3593 133.003 21.6602C133.135 21.9623 133.253 22.2598 133.354 22.5551C133.448 22.253 133.563 21.9521 133.695 21.6501C133.827 21.348 133.97 21.0222 134.121 20.6715L136.053 16.2099C136.091 16.1183 136.143 16.0278 136.21 15.9362C136.276 15.8445 136.352 15.7631 136.437 15.6884C136.522 15.6149 136.62 15.5549 136.731 15.5097C136.842 15.4633 136.963 15.4407 137.095 15.4407H139.937L134.934 24.9442Z" fill="#9B9B9B"/>
<path d="M14.3759 48.128V17.1807L43.1275 32.6538L14.3759 48.128Z" fill="#9B9B9B"/>
<path d="M0.00012207 40.4018V9.45557L28.7518 24.9287L0.00012207 40.4018Z" fill="#9B9B9B"/>
<path d="M14.3759 32.6538V1.70752L43.1275 17.1806L14.3759 32.6538Z" stroke="#9B9B9B" stroke-width="1.0221" stroke-miterlimit="10"/>
</svg>
