<svg width="120" height="36" viewBox="0 0 120 36" fill="none" xmlns="http://www.w3.org/2000/svg">
<path d="M5.44576 6.50417V9.11621C6.57134 7.24739 8.36549 6.31299 10.8282 6.31299C12.8667 6.31299 14.5172 6.99286 15.7808 8.35149C17.0432 9.71011 17.6757 11.5574 17.6757 13.8934V24.276H12.2603V14.6254C12.2603 13.4794 11.9583 12.5925 11.3531 11.9658C10.7479 11.3402 9.91532 11.0269 8.85309 11.0269C7.79085 11.0269 6.95823 11.3402 6.35302 11.9658C5.7478 12.5925 5.44576 13.4783 5.44576 14.6254V24.276H0V6.50417H5.44576Z" fill="#9B9B9B"/>
<path d="M23.0264 21.9512C21.454 20.2521 20.6689 18.0767 20.6689 15.4217C20.6689 12.7678 21.454 10.5867 23.0264 8.87629C24.5966 7.16699 26.514 6.31177 28.7754 6.31177C31.0367 6.31177 32.7721 7.15115 33.9825 8.82765V6.50295H39.4294V24.2748H33.9825V21.6944C32.6657 23.5632 30.9033 24.4965 28.6951 24.4965C26.4869 24.4987 24.5966 23.6503 23.0264 21.9512ZM32.8038 18.6389C33.5888 17.8742 33.9825 16.7916 33.9825 15.39C33.9825 13.9884 33.59 12.9114 32.8038 12.1569C32.0176 11.4035 31.1159 11.0268 30.0967 11.0268C29.0774 11.0268 28.1747 11.4091 27.3896 12.1727C26.6045 12.9374 26.2109 14.0201 26.2109 15.4217C26.2109 16.8233 26.6034 17.9013 27.3896 18.6547C28.1747 19.4082 29.0786 19.7849 30.0967 19.7849C31.1159 19.786 32.0187 19.4036 32.8038 18.6389Z" fill="#9B9B9B"/>
<path d="M51.4365 19.658H53.3788V24.2757H50.6084C48.6118 24.2757 47.0676 23.8356 45.9737 22.9533C44.8798 22.0732 44.3334 20.5596 44.3334 18.4147V11.0255H42.6772V6.50276H44.3334V2.17236H49.7803V6.50389H53.3471V11.0266H49.7803V18.4159C49.7803 19.2439 50.3324 19.658 51.4365 19.658Z" fill="#9B9B9B"/>
<path d="M68.8575 6.50391H74.3044V24.2757H68.8575V21.6637C67.7319 23.5325 65.9378 24.4669 63.4751 24.4669C61.4377 24.4669 59.7861 23.7882 58.5225 22.4284C57.2589 21.0698 56.6277 19.2225 56.6277 16.8864V6.50391H62.0418V16.1545C62.0418 17.3016 62.345 18.1874 62.9502 18.8141C63.5554 19.4408 64.388 19.7541 65.4503 19.7541C66.5125 19.7541 67.345 19.4408 67.9503 18.8141C68.5555 18.1885 68.8575 17.3016 68.8575 16.1545V6.50391Z" fill="#9B9B9B"/>
<path d="M84.2073 6.50417V9.81644C85.4822 7.48043 87.1802 6.31299 89.3036 6.31299V11.8549H87.9664C86.713 11.8549 85.7741 12.1525 85.1474 12.7464C84.5206 13.3414 84.2073 14.381 84.2073 15.8675V24.276H78.7615V6.50417H84.2073Z" fill="#9B9B9B"/>
<path d="M92.9982 21.9512C91.4269 20.2521 90.6418 18.0767 90.6418 15.4217C90.6418 12.7678 91.4269 10.5867 92.9982 8.87629C94.5695 7.16699 96.4858 6.31177 98.7472 6.31177C101.009 6.31177 102.744 7.15115 103.954 8.82765V6.50295H109.4V24.2748H103.954V21.6944C102.638 23.5632 100.875 24.4965 98.668 24.4965C96.4598 24.4987 94.5695 23.6503 92.9982 21.9512ZM102.777 18.6389C103.562 17.8742 103.955 16.7916 103.955 15.39C103.955 13.9884 103.562 12.9114 102.777 12.1569C101.992 11.4035 101.089 11.0268 100.07 11.0268C99.0503 11.0268 98.1476 11.4091 97.3625 12.1727C96.5763 12.9374 96.1838 14.0201 96.1838 15.4217C96.1838 16.8233 96.5763 17.9013 97.3625 18.6547C98.1476 19.4082 99.0503 19.7849 100.07 19.7849C101.089 19.786 101.99 19.4036 102.777 18.6389Z" fill="#9B9B9B"/>
<path d="M113.859 24.2758V0.70752H119.305V24.2758H113.859Z" fill="#9B9B9B"/>
<path d="M5.86895 30.1306V35.4757H4.99221V31.815L3.36094 35.4757H2.75348L1.11544 31.815V35.4757H0.23877V30.1306H1.18449L3.06121 34.3219L4.93 30.1306H5.86895Z" fill="#9B9B9B"/>
<path d="M11.9448 35.4743V30.1292H12.8216V35.4743H11.9448Z" fill="#9B9B9B"/>
<path d="M22.4122 30.1211H23.289V35.4741H22.4122L19.7742 31.482V35.4741H18.8975V30.1211H19.7742L22.4122 34.1053V30.1211Z" fill="#9B9B9B"/>
<path d="M32.3184 30.121V30.8054H30.2415V32.4276H32.0865V33.1041H30.2415V34.7885H32.3184V35.4729H29.3647V30.1199H32.3184V30.121Z" fill="#9B9B9B"/>
<path d="M39.1931 33.3057V35.4743H38.3164V30.1292H40.1626C40.7678 30.1292 41.2339 30.2785 41.562 30.5783C41.89 30.878 42.054 31.2593 42.054 31.7208C42.054 32.0794 41.9454 32.4029 41.7271 32.6903C41.5088 32.9776 41.1739 33.1643 40.7237 33.2514L42.1389 35.4743H41.0699L39.7316 33.3057H39.1931ZM39.1931 30.8124V32.6201H40.1626C40.4952 32.6201 40.744 32.541 40.9092 32.3815C41.0732 32.2219 41.1547 32.0002 41.1547 31.7163C41.1547 31.4312 41.0732 31.2095 40.9092 31.0511C40.744 30.8927 40.4963 30.8124 40.1626 30.8124H39.1931Z" fill="#9B9B9B"/>
<path d="M51.7069 35.4741L51.3223 34.3825H49.0847L48.7001 35.4741H47.7849L49.7001 30.1211H50.7149L52.63 35.4741H51.7069ZM49.3223 33.6969H51.0836L50.2069 31.1822L49.3223 33.6969Z" fill="#9B9B9B"/>
<path d="M58.3835 30.1292H59.2591V34.8046H61.0668V35.4731H58.3823V30.1292H58.3835Z" fill="#9B9B9B"/>
<path d="M79.9697 30.1292H80.9086L79.3249 35.4743H78.3316L77.2094 31.4289L76.0172 35.4743L75.0329 35.4822L73.5171 30.1292H74.4481L75.5556 34.4822L76.7547 30.1292H77.7389L78.8543 34.4584L79.9697 30.1292Z" fill="#9B9B9B"/>
<path d="M90.1611 35.4741L89.7764 34.3825H87.5389L87.1542 35.4741H86.239L88.1542 30.1211H89.169L91.0841 35.4741H90.1611ZM87.7764 33.6969H89.5377L88.6611 31.1822L87.7764 33.6969Z" fill="#9B9B9B"/>
<path d="M96.5596 30.8123V30.1279H100.289V30.8123H98.8673V35.473H97.9905V30.8123H96.5596Z" fill="#9B9B9B"/>
<path d="M109.05 30.121V30.8054H106.973V32.4276H108.819V33.1041H106.973V34.7885H109.05V35.4729H106.096V30.1199H109.05V30.121Z" fill="#9B9B9B"/>
<path d="M115.925 33.3057V35.4743H115.049V30.1292H116.894C117.499 30.1292 117.965 30.2785 118.293 30.5783C118.621 30.878 118.785 31.2593 118.785 31.7208C118.785 32.0794 118.676 32.4029 118.458 32.6903C118.24 32.9776 117.905 33.1643 117.454 33.2514L118.869 35.4743H117.801L116.463 33.3057H115.925ZM115.925 30.8124V32.6201H116.895C117.227 32.6201 117.476 32.541 117.641 32.3815C117.805 32.2219 117.887 32.0002 117.887 31.7163C117.887 31.4312 117.805 31.2095 117.641 31.0511C117.477 30.8927 117.228 30.8124 116.895 30.8124H115.925Z" fill="#9B9B9B"/>
</svg>
