<svg width="131" height="50" viewBox="0 0 131 50" fill="none" xmlns="http://www.w3.org/2000/svg">
<path d="M23.4959 29.4756C23.4959 29.9021 23.2833 29.9021 23.3534 30.2561C23.4247 30.5401 22.6441 32.5989 22.5027 32.8829C22.0762 34.0186 21.5796 35.1544 21.1542 36.2902C20.5151 37.5673 19.876 38.7043 19.2379 39.9102C18.954 40.4068 15.6168 44.6659 15.2627 44.9498C14.3396 45.589 12.7774 47.434 11.9267 48.0019C11.3588 48.356 9.22873 49.1377 8.73212 49.209C7.80903 49.2791 6.8146 49.3515 5.96277 49.1388C4.47293 48.925 2.27154 46.7248 1.56112 45.305C1.20591 44.6659 0.780573 44.098 0.567899 43.3887C0.283958 42.4656 0.070137 40.9747 0 39.9102C0 33.9462 0.710457 33.0956 2.41411 27.3454C2.55664 26.8477 2.62674 26.4224 2.76928 25.9257C2.84055 25.4291 3.05324 24.9325 3.19577 24.506C3.40845 23.7255 3.62225 22.9449 3.83493 22.2345C4.19014 20.6734 6.03633 17.9754 4.33268 17.6202C3.83493 17.55 3.40956 17.6202 2.98422 17.2661C2.55774 16.9821 2.13246 16.7695 1.70598 16.4855C1.56457 16.343 1.35188 16.2016 1.27948 15.8464C1.42202 15.7751 1.56338 15.7038 1.63465 15.7038C2.62788 15.49 3.55097 15.2774 4.54534 15.0647C5.18449 14.9221 5.89378 14.8509 6.6042 14.7807C6.88702 14.7095 7.1721 14.5669 7.31351 14.2129C7.52731 13.645 7.88138 13.1484 8.02392 12.5092C8.73434 11.1608 9.23098 9.73993 10.0115 8.46276C10.722 7.32699 11.4312 6.33263 12.3543 5.48081C12.4957 5.26813 12.7096 5.05433 12.851 4.91292C13.1349 4.69912 13.4188 4.55771 13.774 4.62898C14.2005 4.77039 14.6258 4.55771 15.1236 4.55771C15.1937 4.55771 15.1937 4.55771 15.265 4.48758C16.2582 4.27377 16.6134 4.70025 16.8974 5.48081C17.2526 6.19123 17.394 6.90051 17.394 7.75234C17.394 8.17882 17.4641 8.5329 17.5365 8.88811C17.6067 9.17205 17.6067 9.52613 17.5365 9.88134C17.4653 10.2365 17.394 10.5918 17.3228 11.0171C17.1814 11.585 17.0388 12.1529 16.8974 12.7208C16.8974 12.9334 16.8974 13.0748 16.8261 13.2886C17.0388 13.43 17.2526 13.43 17.5365 13.43C18.3884 13.3588 19.3115 13.2886 20.1633 13.2162C21.3703 13.2162 22.6486 13.2162 23.8545 13.2162C24.2799 13.2162 24.7064 13.3588 25.203 13.43C25.0616 13.6427 24.9903 13.7841 24.9202 13.8565C24.7788 13.9991 24.565 14.1393 24.4224 14.2117C23.9258 14.4244 23.3579 14.7083 22.8613 14.9222C22.8613 14.9923 22.79 14.9923 22.79 14.9923C22.0094 15.0636 21.1576 15.4188 20.3058 15.3475C19.8092 15.3475 19.3126 15.4188 18.8148 15.5613C18.5309 15.7038 18.1757 15.7038 17.8918 15.774C17.3239 15.8452 16.8273 15.9165 16.2594 15.9878C15.9755 16.059 15.834 16.2717 15.6915 16.5557C15.6202 16.6269 15.6202 16.6971 15.5501 16.7695C14.6983 19.1835 13.5625 21.4551 12.6394 23.7967C12.4969 24.0807 12.3554 24.3646 12.2842 24.5773C11.929 25.2877 11.645 25.9257 11.4324 26.7074C11.2197 27.3466 10.8645 27.9857 10.5093 28.5536C10.2265 29.0502 10.2966 29.6894 9.94249 30.186C9.1608 31.9609 8.23773 37.3558 8.38026 40.0538C8.45153 41.1896 8.73546 42.2541 9.09067 43.3186C9.23208 43.6738 9.51715 43.8865 9.72983 44.1704C9.8011 44.1704 9.87241 44.2405 10.0138 44.2405C10.653 44.2405 11.9301 44.3118 12.5693 43.8865C12.9957 43.6025 15.1247 41.8989 15.5512 41.5437C16.6157 40.4792 19.0298 37.8524 19.7391 36.4327C20.3782 35.2257 20.7334 33.6634 21.3715 32.5288C21.6554 31.8184 22.3658 30.2573 22.7199 29.4767C23.0695 29.5457 23.5672 29.2618 23.4959 29.4756ZM12.4923 18.9686C13.2028 17.1948 13.4154 15.774 11.0726 17.265C10.2921 19.6078 10.0081 21.2401 9.36899 23.4415C7.80788 29.333 10.0794 24.9325 11.0726 22.3058C11.5692 20.9562 11.8532 20.2469 12.4923 18.9686ZM14.6937 10.8044C14.765 10.5216 14.8351 10.1653 14.9064 9.8112C14.9776 9.24332 15.1202 8.67543 15.1904 8.10755C15.2616 7.4684 15.1903 6.82925 15.1202 6.19009C15.0489 5.90615 14.8363 5.83488 14.6937 5.97742C14.4098 6.19009 14.1971 6.33263 14.0546 6.68671C13.7706 7.25459 13.4867 7.89374 13.3442 8.53177C13.274 8.74557 13.1315 8.95824 13.0602 9.17092C12.9188 9.45486 12.7763 9.73767 12.6337 10.094C12.4912 10.8033 12.3498 11.585 12.1371 12.3655C11.8532 14.2106 13.8407 14.2819 14.2672 13.0036C14.4086 12.2954 14.5512 11.5861 14.6937 10.8044Z" fill="#9B9B9B"/>
<path d="M27.8965 31.9597C28.1804 30.8952 30.6646 25.8555 31.1623 25.0025C31.5888 24.3634 32.0141 23.7253 32.3694 23.0149C32.7958 22.447 33.2212 21.8079 33.5052 21.24C33.7891 20.7434 34.2155 20.4594 34.6409 20.3882C35.1375 20.3882 35.5641 20.3169 35.9894 20.3169C36.8412 20.3169 37.339 20.9561 37.7632 21.8792C37.7632 21.9504 37.7632 22.0206 37.7632 22.162C37.9046 23.0851 38.1183 24.0783 38.2609 25.0727C38.4034 25.9957 38.3321 26.989 38.3321 27.9121C38.3321 28.5512 38.4034 29.1904 38.3321 29.8295C38.6862 30.0422 38.6161 30.3261 38.6862 30.256C38.8287 30.1135 39.3254 30.3261 39.4679 30.1847C39.5381 30.0433 39.6806 29.9721 39.7507 29.8307C40.0347 29.618 40.3185 29.4042 40.6025 29.0501C40.8152 28.696 41.029 28.696 41.313 29.0501C41.313 29.2628 41.2417 29.4766 41.029 29.618C40.9578 29.6893 40.8877 29.8307 40.8153 29.9732C40.7451 30.1859 40.6025 30.3997 40.3898 30.4698C40.3186 30.5411 40.2473 30.6112 40.1761 30.6836C40.1048 30.7549 39.9634 30.8261 39.9634 30.8963C39.8921 30.9676 39.822 30.9676 39.7496 31.0388C39.4668 31.3228 39.2529 31.394 38.969 31.394C38.8989 31.394 38.6139 31.4653 38.3299 31.678C38.1172 31.8205 37.9034 31.8205 37.762 31.678C37.2653 31.394 36.7687 31.3239 36.271 31.1101C35.4192 30.8974 34.7812 30.1169 34.4248 29.1225C33.9995 27.8453 33.9995 26.4256 34.2122 25.0772C34.3547 24.438 34.3547 23.8701 34.4248 23.3023C34.4961 22.8758 34.5663 22.4504 34.6387 22.024C34.7801 21.7411 34.78 21.5273 34.7088 21.2434C34.6386 21.2434 34.4961 21.1733 34.4961 21.3147C34.4248 21.3859 34.2823 21.5273 34.2122 21.6687C33.9282 22.2366 33.573 22.8045 33.2178 23.4437C33.0051 23.7977 32.8637 24.2242 32.7925 24.7208C32.8626 25.0048 32.6499 25.2186 32.5786 25.4313C31.9395 26.6383 31.3716 27.7729 30.9463 29.1225C30.5911 30.1169 30.0945 30.9687 29.6691 31.9619C29.03 33.4529 28.2494 34.8013 27.7517 36.3636C27.6103 36.8602 27.3252 37.4281 27.1125 37.9971C26.9711 38.4236 25.195 41.8297 24.7708 42.1861C24.7708 42.3275 24.557 42.3988 24.4156 42.5413C23.5638 43.7483 22.5694 43.6771 21.4348 43.3931C21.2934 43.5357 21.1509 43.3931 21.0083 43.2517C19.8726 42.9678 19.3035 41.9033 19.0207 40.4824C18.8069 39.2754 18.8069 37.9982 18.8069 36.7912C18.8782 34.9461 18.9483 33.0999 19.0909 31.2538C19.4461 29.196 19.1621 29.3374 19.73 27.4211C20.2278 24.653 19.9438 25.0783 20.9371 22.3102C21.0083 21.8135 21.2922 21.4583 21.4348 20.9617C21.9314 19.6845 22.3579 18.5488 22.9246 17.413C23.2086 16.4899 23.4925 16.3485 24.2029 16.4899C24.6995 16.4899 25.3387 16.6325 25.9779 16.7739C26.4032 16.844 26.8297 16.9865 27.3976 17.4832C27.8942 18.4062 28.6046 19.0454 29.315 19.8972C29.9541 21.033 30.0956 21.8859 29.6702 23.2333C29.315 24.653 29.1736 23.5885 28.8184 25.0794C27.8953 28.0603 26.1916 30.4031 25.4111 33.1011C24.3466 36.5027 27.6125 33.1656 27.8965 31.9597Z" fill="#9B9B9B"/>
<path d="M67.1529 29.901C67.0816 30.3976 66.3723 32.1012 66.0171 32.3852C65.8044 32.4564 65.7332 32.6691 65.5906 32.7404C65.3078 33.0956 65.0939 33.3795 64.81 33.6635C64.6675 33.806 64.4548 33.9474 64.3847 34.1612C64.1709 34.5866 63.8869 34.8004 63.5328 35.013C63.3903 35.0843 63.2489 35.1556 63.1787 35.297C62.7523 35.7936 62.1844 36.2201 61.759 36.6454C61.3325 37.0006 60.9072 37.2133 60.4106 37.3558C59.7714 37.4984 59.2035 37.4984 58.6368 37.7111C58.139 37.9249 57.5712 37.9249 57.0044 38.0651C56.7906 38.0651 56.578 38.0651 56.3653 38.0651C55.5135 37.7823 54.6605 37.6398 53.9512 37.0719C53.8799 37.0006 53.7375 36.9294 53.596 36.8581C52.9569 36.5753 52.3189 36.2189 51.8924 35.6511C51.3245 35.935 50.8279 36.2189 50.4014 36.5742C50.1175 36.7167 49.9048 36.857 49.6208 37.0708C49.5507 37.0708 49.4783 37.1409 49.4783 37.1409C49.0518 37.7088 48.4839 37.7801 47.9172 37.9927C46.9228 38.2767 45.9296 38.2767 45.0065 37.7801C44.6513 37.5663 44.2961 37.4249 43.9409 37.2823C41.8831 36.4305 40.7463 34.8682 40.5336 32.668C40.3911 31.5322 40.6037 30.4666 41.1014 29.4734C41.598 28.5503 42.0946 27.6272 42.8051 26.8466C42.8051 26.7765 42.8763 26.7052 42.9476 26.6339C43.8707 25.2142 45.0066 23.8658 46.0711 22.5875C46.8516 21.7357 47.7033 21.0264 48.7678 20.3872C48.9092 20.3159 49.1944 20.2447 49.4071 20.2447C49.8324 20.1734 50.2589 20.1033 50.7555 20.1033C50.8268 20.1033 50.8969 20.1033 50.9682 20.1033C51.3947 20.3159 51.9614 20.3159 52.4591 20.4585C52.6005 20.5298 52.743 20.5999 52.8856 20.5999C53.2396 20.6712 53.5248 20.6712 53.6662 20.954C53.7375 21.0252 53.8087 21.0252 53.8087 21.0252C54.1639 21.0252 54.4478 21.3804 54.8019 21.3804C54.9444 21.3804 55.0859 21.4517 55.1572 21.5219C55.5825 21.9483 56.0803 22.3024 56.3642 22.8002C56.4344 23.0128 56.5056 23.1542 56.5769 23.368C56.7183 24.0072 56.5768 24.4325 55.9377 24.7877C55.2985 25.0717 54.7307 25.497 54.1628 25.9235C54.1628 25.9235 54.1628 25.9235 54.1628 25.9948C53.3822 26.7753 52.4591 27.4858 51.8199 28.4089C51.536 28.7641 51.2521 29.048 50.9682 29.3319C50.329 30.0412 49.8324 30.8229 49.2645 31.6035C49.0507 31.9587 48.7667 32.3128 48.5541 32.5967C48.4127 32.7381 48.3414 32.8807 48.2702 33.0232C47.8437 33.8037 47.5597 34.5843 47.4183 35.366C47.347 35.4361 47.4183 35.5074 47.4183 35.6488C47.5608 35.5787 47.632 35.5074 47.7022 35.4361C48.4126 34.7257 49.1932 34.0164 50.045 33.3784C50.4715 33.0232 50.8256 32.668 51.1096 32.1714C51.251 31.9576 51.4636 31.7449 51.6774 31.5322C52.1028 31.0356 52.5293 30.539 52.8845 29.9711C53.3811 29.1905 53.8777 28.41 54.3743 27.557C55.0135 27.4869 55.5101 27.557 55.9366 28.0536C56.0791 28.195 56.2204 28.3376 56.363 28.4801C56.8596 29.1193 56.9298 29.8286 57.0022 30.539C57.0022 30.6804 56.9309 30.7517 56.8608 30.8931C56.5769 31.5322 56.2216 32.2415 55.8664 32.8807C55.6537 33.3784 55.5825 33.875 55.6537 34.3716C55.7951 34.9395 56.0079 35.5787 56.293 36.1465C56.4344 36.3592 56.647 36.5018 56.9321 36.5018C57.4298 36.4305 57.9264 36.3592 58.423 36.1465C58.8495 35.9327 59.3461 35.7201 59.7715 35.4361C60.2681 35.1522 60.7658 34.8682 61.3326 34.513C61.6878 34.1578 62.1132 33.8739 62.4684 33.5187C63.3915 32.5956 64.8112 30.2539 65.7331 29.3308C65.8044 29.2595 65.8745 29.2595 65.9469 29.1883C66.4424 29.2618 66.7977 29.5457 67.1529 29.901Z" fill="#9B9B9B"/>
<path d="M89.1578 30.6103C88.9451 30.8943 88.8737 31.9588 88.8036 32.314C88.7323 32.5278 88.307 32.7405 88.1645 32.8819C88.0231 33.3083 85.6791 33.8762 85.4665 33.8762C84.756 34.3027 82.911 33.0244 82.6972 32.9531C82.6972 32.9531 81.7039 32.2427 81.6326 32.1726C81.5625 32.0312 80.4256 31.0368 80.2842 30.8943C79.645 29.6872 79.2898 29.3332 78.6518 28.1963C78.0138 29.0481 78.1542 29.1194 77.5874 30.2551C77.0195 31.3196 76.5929 32.4554 75.8825 33.5912C75.6699 33.7337 75.5997 33.9464 75.4572 34.0878C75.2434 34.7982 74.818 35.3661 74.2502 35.9328C73.8237 36.5007 73.5398 37.0686 73.2559 37.779C73.2559 37.8492 73.1857 38.0618 73.1857 38.1331C73.2559 38.6297 72.9719 38.9849 72.7592 39.4103C72.3327 39.908 71.9787 40.4046 71.6948 41.0427C71.2683 42.037 70.8428 42.8176 69.8496 43.4567C69.6358 43.7407 69.3519 43.8832 68.9979 43.8832C68.7852 43.8832 68.5012 43.8832 68.2172 43.8119C67.862 43.8119 67.4367 43.8832 66.9389 43.9533C65.9457 44.3798 64.9514 44.0959 64.525 43.1015C64.3123 42.6038 62.112 41.1139 61.7568 40.7587C61.2602 40.2621 60.4796 38.6297 60.621 37.9906C60.621 37.4227 60.7635 36.9261 60.8336 36.4294C61.1176 35.3649 61.2602 34.0866 61.5441 32.9509C61.7568 32.0991 61.8993 31.2461 62.112 30.3241C62.6086 28.3365 62.9638 26.4202 63.4604 24.574C63.8156 23.4383 64.0283 22.4439 64.2421 21.3093C64.3123 20.6701 64.3123 19.9608 64.525 19.3217C64.5962 18.6113 64.5249 18.8952 64.5962 18.3273C64.6663 18.1146 64.6663 17.9721 64.8089 17.7594C65.0227 17.6169 65.3065 17.6893 65.5192 17.902C65.5905 18.0434 65.8032 18.2572 65.8745 18.3284C66.1585 18.6825 66.017 18.7549 66.5136 18.7549C66.6561 18.7549 66.9389 18.9676 66.9389 19.0389C67.2941 19.678 67.862 20.0321 68.3586 20.4586C68.6426 21.0265 69.1393 21.3817 69.2105 22.091C68.9277 22.091 68.7852 22.091 68.5013 22.0197C68.3599 22.4462 68.2172 22.7301 68.4299 23.2267C68.7851 23.9371 68.7852 24.7177 68.8565 25.5695C68.8565 25.9247 68.9277 26.2799 68.9277 26.4926C69.2105 27.3444 69.2105 28.2675 69.2105 29.1194C69.2105 29.3332 69.2105 29.4746 69.2105 29.6872C69.2818 30.3977 69.2818 31.107 69.2818 31.8174C69.2105 32.3853 69.2818 32.9531 69.353 33.4498C69.353 33.9464 69.353 33.9464 69.1404 34.4441L68.9277 34.3728C68.8564 34.0188 68.8564 33.7337 68.7863 33.4498C68.7863 33.3796 68.6438 33.3083 68.5725 33.2371C68.5013 33.2371 68.4311 33.0945 68.3599 33.2371C68.2886 33.2371 68.2185 33.3796 68.2185 33.4498C68.2185 34.2303 68.2184 34.9407 68.2885 35.65C68.3598 36.0052 68.4311 36.4317 68.3599 36.7858C68.2886 37.0697 68.3599 37.2824 68.5013 37.4249C68.5726 37.4249 68.7852 37.4962 68.8565 37.4249C68.9277 37.4249 68.999 37.2824 68.9277 37.141C68.8564 36.7858 68.999 36.2892 69.1404 35.7926C69.1404 35.7926 69.2105 35.7224 69.2818 35.65C69.2818 35.7213 69.353 35.7926 69.353 35.934C69.4944 36.3604 69.4944 36.7156 69.4944 37.0697C69.5657 37.2824 69.5657 37.3537 69.6358 37.4962C69.6358 37.6387 69.7071 37.7089 69.7071 37.7089C69.3519 38.2055 69.7772 38.348 69.8485 38.7032C69.9899 38.632 70.1324 38.4894 70.2026 38.4193C71.2671 37.141 72.3327 35.934 73.2547 34.4441C73.6087 33.9464 73.9651 33.4498 74.3192 32.9531C74.8158 32.314 75.1711 31.6047 75.455 30.8241C75.5975 30.3264 75.8803 29.6884 76.1642 29.2619C76.9448 27.4157 77.0873 28.6227 77.584 26.9904C77.6541 26.7777 77.2288 25.1442 77.1575 24.8614C77.1575 23.5129 76.8034 23.5842 77.6541 23.3704C77.938 23.3704 79.2163 23.6543 79.429 23.7969C79.8555 24.0107 79.4992 24.0808 79.997 24.0808C80.2809 24.0107 80.4935 24.1521 80.7062 24.2233C80.8476 24.2946 80.92 24.3659 80.9901 24.5786C80.9901 24.7211 81.0614 24.7924 81.1315 25.005C81.558 27.7732 81.8419 28.3411 82.6225 30.1873C83.2616 30.685 84.0422 32.6013 85.4619 32.3162C86.1712 32.1036 86.5264 31.8196 87.2357 31.6771C87.8748 31.5357 88.3716 30.754 89.0107 30.3999C89.082 30.3287 89.1521 30.3287 89.2245 30.3287C89.2991 30.4689 89.229 30.5402 89.1578 30.6103ZM68.2863 30.1137L68.3575 30.2563C68.3575 30.3264 68.4288 30.2563 68.4288 30.2563C68.5001 30.0425 68.5001 29.9022 68.5702 29.7596C68.5702 29.6171 68.5702 29.5458 68.5702 29.4044C68.4989 29.3343 68.4288 29.263 68.3575 29.3343C68.3575 29.4044 68.2863 29.547 68.3575 29.547C68.4288 29.6182 68.4989 29.6884 68.5702 29.7608C68.5001 29.901 68.4288 30.0425 68.2863 30.1137ZM68.4288 30.7529C68.4288 30.6816 68.3575 30.6816 68.3575 30.6816C68.2863 30.6816 68.2863 30.7529 68.2863 30.7529C68.2863 30.8943 68.3575 30.8943 68.3575 30.9667C68.4288 30.8943 68.4288 30.7529 68.4288 30.7529ZM68.5 31.3909C68.5 31.4622 68.5 31.4622 68.5 31.4622C68.5 31.4622 68.5 31.4622 68.5713 31.4622C68.5702 31.3909 68.5702 31.3909 68.5 31.3909ZM68.9255 38.4193C68.8542 38.5618 68.7841 38.5618 68.7841 38.632C68.7841 38.632 68.784 38.7032 68.8541 38.7032C68.8541 38.7032 68.9255 38.632 68.9968 38.632C68.9255 38.5618 68.9255 38.5618 68.9255 38.4193ZM68.9968 37.7813C69.1393 37.71 69.1393 37.5675 68.9968 37.4973C68.9255 37.4973 68.9255 37.4973 68.9255 37.4973C68.9255 37.5686 68.8541 37.6399 68.8541 37.7813C68.8541 37.7813 68.9255 37.7813 68.9255 37.9227L68.9968 37.7813Z" fill="#9B9B9B"/>
<path d="M91.7121 29.6871C91.7121 29.8297 91.5696 29.9711 91.4282 30.0424C91.3569 30.1136 91.2144 30.1838 91.2144 30.3976C91.1431 30.6815 91.0718 30.7528 90.8591 30.824C90.7166 30.8942 90.7166 30.9666 90.6464 31.3919C90.7879 31.3919 90.8591 31.3919 90.9293 31.4632C90.9293 31.4632 90.9293 31.4632 90.9293 31.5345C90.7879 31.5345 90.6465 31.5345 90.4327 31.5345C90.504 31.3218 90.5039 31.108 90.5039 30.9677C90.4327 30.9677 90.3614 30.9677 90.3614 30.9677C90.2902 31.4643 90.2201 31.9609 90.1477 32.4576C90.2902 32.5288 90.3614 32.6001 90.4316 32.6001C90.5028 33.0978 90.5028 33.5232 90.5028 34.0198C90.5028 34.5164 90.6454 34.9429 90.7856 35.297C90.9994 35.5809 91.5674 37.1432 91.78 37.4271C92.7744 38.4215 93.9814 39.6986 95.116 39.7699C95.4701 39.84 97.5301 39.486 97.8842 39.4147C99.5879 38.9181 101.22 37.995 102.782 36.7879C103.989 35.8649 105.124 34.8004 106.331 33.806C106.402 33.7359 106.473 33.6635 106.545 33.5933C106.97 33.0967 107.397 32.6702 107.822 32.1736C108.603 31.3919 109.313 30.6114 109.952 29.6883C110.165 29.3342 110.379 28.9779 110.804 28.8364C110.661 29.4756 110.52 30.0424 110.236 30.6102C110.165 30.824 110.024 31.0367 109.882 31.1781C109.456 31.6747 109.1 32.1012 108.818 32.6691C108.604 32.953 108.32 33.237 108.107 33.5209C108.036 33.5922 107.965 33.7347 107.823 33.9474C108.036 33.8773 108.178 33.8049 108.391 33.7347C108.32 34.1612 107.965 34.2313 107.893 34.5866C107.965 34.6578 107.965 34.728 108.107 34.8004C107.893 35.1556 107.681 35.3682 107.397 35.6522C106.97 36.0074 106.545 36.4339 106.19 36.8592C105.551 37.5696 104.841 38.1375 104.132 38.7054C103.777 38.9893 103.493 39.2722 103.138 39.486C102.854 39.6986 102.57 39.8412 102.286 40.0538C101.861 40.2665 101.434 40.4792 101.009 40.7631C100.298 41.1896 99.5176 41.5437 98.7371 41.6862C98.5244 41.7575 98.3107 41.8288 98.098 41.9C97.2462 42.184 96.3943 42.3265 95.5425 42.3966C94.5481 42.5392 90.3603 41.7575 89.4383 41.4023C86.953 40.4091 86.4563 39.202 85.3206 38.2077C84.8952 37.8536 84.5401 37.2846 84.3274 36.7178C83.9722 35.7947 83.9008 34.8004 83.8307 33.7359C83.8307 31.5345 84.3986 29.4055 85.3206 27.4179C85.5344 26.9914 85.5344 26.9914 85.462 26.3534C85.1067 26.566 84.8941 26.7074 84.7527 27.1339C84.5389 27.7731 84.2549 28.341 83.9008 28.9801C83.9008 28.341 84.1849 27.9156 84.3976 27.419C84.9654 26.1418 85.6045 24.9348 86.3851 23.799C87.1668 22.592 88.0175 21.5275 89.0119 20.5343C90.0051 19.4698 91.0696 18.5467 92.2065 17.8363C92.4904 17.6937 92.7031 17.6224 92.9169 17.481C93.2722 17.3396 93.6261 17.2684 93.8399 17.6224C94.0526 17.8363 94.3366 17.765 94.4792 17.9064C94.6918 18.0478 94.7631 18.3329 94.9056 18.4743C95.6149 18.8283 98.3129 19.5388 98.951 19.9652C99.1648 20.1067 99.3061 20.3917 99.4487 20.6757C99.8027 21.3148 100.088 22.0241 100.584 22.4495C100.726 22.592 100.798 22.8759 100.868 23.0886C101.01 23.9404 101.081 24.721 100.868 25.6441C100.726 26.6384 100.3 27.5604 99.8038 28.4134C99.5199 28.91 99.236 29.3365 99.0233 29.9043C98.8819 30.401 98.5968 30.8274 98.3129 31.324C98.0289 31.8919 97.5324 32.2471 97.0358 32.3885C96.6093 32.6012 96.1127 32.6725 95.6873 32.6012C95.4735 32.53 95.2608 32.6012 95.1194 32.3173C95.1194 32.2471 95.0492 32.2471 95.0492 32.2471C94.4813 32.3173 94.1262 31.6793 93.7009 31.4666C93.6296 31.3953 93.5582 31.1826 93.5582 31.1114C93.7008 30.8286 93.5583 30.686 93.487 30.4722C93.203 29.9055 92.9203 29.2652 92.564 28.6984C92.4938 28.4846 92.2799 28.4145 92.0673 28.6272C91.9949 28.9779 91.7121 29.2618 91.7121 29.6871ZM84.9676 36.0764C85.0389 36.2902 85.109 36.4316 85.1803 36.6443C85.1803 36.857 85.3942 36.9995 85.2516 37.2834C85.1804 37.2133 85.109 37.2133 85.109 37.142C84.7538 36.4327 84.6124 35.5096 84.4699 34.5866C84.3986 34.5164 84.4699 34.4451 84.4699 34.3739C84.4699 33.3094 84.4699 32.315 84.7538 31.2505C84.8251 31.0378 84.8963 30.8252 84.8963 30.6114C84.8963 30.47 84.8963 30.3987 84.8963 30.1148C84.6825 30.5412 84.5412 30.8252 84.4699 31.108C84.3986 31.4632 84.3285 31.7471 84.2561 32.1023C83.9733 33.9485 84.0434 35.651 84.824 37.142C84.9665 37.426 85.1791 37.6398 85.3918 37.9237C85.5343 38.0651 85.6758 38.1364 85.8885 38.2065C85.8885 38.2778 85.9598 38.2065 86.1023 38.2065C85.8885 37.8524 85.6759 37.5674 85.5345 37.2133C85.3207 36.7868 85.3206 36.3615 85.1079 36.0063C85.0389 36.0063 84.9676 36.0764 84.9676 36.0764ZM84.9676 31.5333C84.6124 32.6691 84.6837 33.7347 84.8251 34.7992C84.8251 34.8694 84.8963 34.8694 84.9676 34.9406C85.0389 34.1601 85.109 33.4497 85.1803 32.7392C85.2515 32.2426 85.3228 31.746 85.109 31.3195C85.0389 31.3908 84.9676 31.4621 84.9676 31.5333ZM90.0085 33.3082C90.0085 33.3795 90.0085 33.3795 90.0085 33.4497C90.0085 33.3795 90.0085 33.3795 90.0085 33.3082ZM93.9123 25.8545C93.7709 26.0672 93.5571 26.3511 93.4157 26.635C93.1318 27.1317 93.2019 27.4869 93.5571 27.6995C93.7698 27.8421 94.0538 27.9835 94.1964 28.1962C94.6228 28.6939 95.1907 28.6226 95.7575 28.5514C96.2552 28.4088 96.6093 27.9122 96.8944 27.4156C97.391 26.2086 97.6748 25.9959 98.1013 24.7889C99.2371 22.0909 96.9656 22.73 95.9 23.5818C95.1194 24.1508 94.5515 25.0739 93.9123 25.8545Z" fill="#9B9B9B"/>
<path d="M129.194 32.8818C128.839 33.5922 127.632 35.1533 127.632 35.9339C127.561 36.0051 127.348 36.2178 127.206 36.2891C126.993 36.5018 126.779 36.7857 126.638 37.1409C126.497 37.4961 126.284 37.6387 126.141 37.9226C125.148 39.6964 124.509 40.6908 122.877 42.2519C122.45 42.6071 118.688 46.227 118.404 46.5823C116.345 48.2859 113.577 47.5054 111.518 47.5755C110.95 47.5755 110.382 47.5054 110.027 47.2915C109.388 46.9375 107.968 46.3685 107.542 45.7304C106.902 44.1693 105.27 43.1037 105.127 40.9034C105.057 40.3355 104.773 39.9803 104.702 39.4124C104.772 37.1409 105.127 34.8694 105.411 32.5266C105.838 30.8931 106.192 29.1181 106.476 27.4869C107.186 24.4337 107.399 24.0785 108.747 21.3103C109.458 19.4641 110.096 19.3227 110.806 17.4765C111.303 16.4833 111.871 15.4889 112.439 14.6371C112.864 13.5726 113.574 12.5783 114.212 11.5138C115.561 9.17208 117.052 7.11209 118.614 5.40844C119.679 4.34394 120.815 3.20705 121.88 2.28508C122.519 1.78847 123.157 1.22058 123.798 1.00791C124.01 0.865374 124.223 0.794106 124.437 0.723969C125.43 0.652701 126.354 0.795237 127.063 1.50453C127.774 2.14368 127.987 3.13804 127.774 4.48648C127.632 5.33831 127.561 6.19013 127.347 6.97069C127.277 7.60984 126.992 8.17772 126.637 8.88814C126.14 10.0952 125.572 11.2298 124.792 12.3667C124.295 13.2898 123.727 14.2118 123.231 15.1349C122.379 16.412 121.67 17.7616 120.817 18.9686C119.326 20.9562 118.049 23.0864 116.699 25.074C114.498 28.8365 114.711 29.4756 113.931 33.2381C113.647 34.728 113.789 35.5809 113.717 37.0719C113.788 37.4984 114.001 40.2665 114.072 40.5505C114.286 41.5437 114.499 41.8989 114.924 42.822C115.065 43.106 116.06 43.3186 116.415 43.4612C116.912 43.8164 120.674 41.2609 121.171 40.9057C122.307 40.2665 123.23 39.202 124.223 38.2077C125.287 37.2144 125.785 36.0775 126.708 34.7291C127.985 33.0255 128.412 31.6057 129.76 29.7607C130.756 29.617 130.188 31.1069 129.194 32.8818ZM117.836 20.1044C120.107 16.4844 120.463 15.9154 122.521 12.0115C123.302 10.5217 123.941 9.03068 124.723 7.5397C125.077 6.4752 125.29 5.40957 125.432 4.34507C125.574 3.98986 125.574 3.77719 125.219 3.9186C124.864 3.98873 124.652 4.13127 124.439 4.27381C123.516 4.62902 122.664 5.3383 122.025 6.33267C121.528 6.90055 121.173 7.5397 120.605 8.10759C119.966 8.88814 119.611 9.6687 119.327 10.5918C118.973 11.3022 118.616 12.1529 118.262 12.8633C117.766 14.3543 117.055 15.8453 116.345 17.3363C116.062 18.0455 115.848 18.8261 115.564 19.5365C114.712 21.9506 115.068 20.7436 114.287 23.1565C114.073 23.7244 114.216 25.3579 115.139 24.3635C116.202 22.8024 116.913 21.7379 117.836 20.1044Z" fill="#9B9B9B"/>
</svg>
