<svg width="137" height="55" viewBox="0 0 137 55" fill="none" xmlns="http://www.w3.org/2000/svg">
<path d="M40.0245 37.8745L0 20.7192V0.70752L40.0245 17.8617V37.8745Z" fill="#9B9B9B"/>
<path d="M40.4339 17.6255L0.409424 34.7796V54.7924L40.4339 37.6372V17.6255Z" fill="#9B9B9B"/>
<path d="M40.3254 37.5906L17.204 27.6809C17.1599 27.6617 17.1599 27.5995 17.204 27.5814L40.3254 17.6717C40.3763 17.6502 40.4329 17.6875 40.4329 17.743V37.5205C40.434 37.5759 40.3775 37.6132 40.3254 37.5906Z" fill="#9B9B9B"/>
<path d="M65.1732 19.1212V20.4855C65.1732 20.8781 65.0069 21.11 64.6528 21.2016C64.6313 21.2016 64.5906 21.2254 64.5283 21.2254C64.4661 21.2254 64.362 21.2717 64.2172 21.2944C64.0713 21.3181 63.8632 21.3645 63.6143 21.4109V35.8331H62.1584C61.9299 35.8331 61.7624 35.7867 61.6165 35.7177C61.4706 35.6476 61.3258 35.5096 61.1799 35.3014L53.3177 24.1836C53.3392 24.4381 53.3585 24.6689 53.3585 24.8996C53.3585 25.1304 53.38 25.3623 53.38 25.5693V33.5435C54.2533 33.6826 54.6899 33.7516 54.7318 33.7516C55.0859 33.8444 55.2522 34.0751 55.2522 34.4677V35.832H53.38H50.9252H49.3459V34.4677C49.3459 34.0751 49.5111 33.8432 49.8652 33.7516C49.8867 33.7516 49.9285 33.7516 49.9896 33.7278C50.053 33.7041 50.1559 33.6815 50.3018 33.6588C50.4466 33.6351 50.6763 33.5887 50.9252 33.5423V21.4098C50.6763 21.3634 50.4466 21.317 50.3018 21.2932C50.1559 21.2695 50.0518 21.2242 49.9896 21.2242C49.9274 21.2242 49.8855 21.2005 49.8652 21.2005C49.5111 21.1077 49.3459 20.8769 49.3459 20.4844V19.1201H50.9252H52.3811C52.5055 19.1201 52.6107 19.1439 52.6933 19.1439C52.7759 19.1439 52.8596 19.1676 52.9218 19.2129C52.984 19.2366 53.0462 19.283 53.1084 19.352C53.1718 19.4222 53.2329 19.5138 53.3177 19.6303L61.2206 30.7934C61.2002 30.5162 61.1799 30.2617 61.1584 30.0072C61.1369 29.7527 61.1369 29.4993 61.1369 29.2674V21.4098C60.2636 21.2706 59.8269 21.2016 59.785 21.2016C59.431 21.1088 59.2658 20.8781 59.2658 20.4855V19.1212H61.1369H63.612H65.1732Z" fill="#9B9B9B"/>
<path d="M78.9516 19.121V20.7387V21.5939V23.5125H78.8476H78.5976H77.7446C77.4743 23.5125 77.3295 23.3507 77.2661 23.0736C77.2446 22.8892 77.1835 22.4039 77.1202 21.5939H72.2739V26.2162H77.3702V28.62H72.2739V33.3351H77.1202C77.1835 32.5262 77.2446 32.0409 77.2661 31.8554C77.3295 31.5782 77.4743 31.4165 77.7446 31.4165H78.5976H78.8476H78.9516V33.3351V34.2129V35.8306H69.4662H67.887V34.4663C67.887 34.0738 68.0521 33.8419 68.4062 33.7502C68.4277 33.7502 68.4696 33.7265 68.5306 33.7265C68.594 33.7265 68.6969 33.6801 68.8429 33.6575C68.9877 33.6337 69.2173 33.5873 69.4662 33.5409V21.4095C69.2173 21.3631 68.9877 21.3167 68.8429 21.293C68.6969 21.2692 68.5929 21.224 68.5306 21.224C68.4684 21.224 68.4266 21.2002 68.4062 21.2002C68.0521 21.1075 67.887 20.8767 67.887 20.4842V19.1199H69.4662H78.9516V19.121Z" fill="#9B9B9B"/>
<path d="M104.607 19.1208V20.4851C104.607 20.8777 104.441 21.1096 104.087 21.2012C104.065 21.2012 104.004 21.225 103.858 21.2476C103.712 21.2702 103.526 21.3166 103.276 21.363L99.219 35.8316H96.702L93.4157 24.4139C93.375 24.2748 93.3331 24.113 93.2913 23.9513C93.2506 23.7895 93.1872 23.5813 93.1465 23.3969C93.1046 23.5825 93.0628 23.7895 93.0221 23.9513C92.9802 24.1368 92.9383 24.2748 92.8976 24.4139L89.5695 35.8316H87.0525L83.0173 21.363C82.7673 21.3166 82.5603 21.2702 82.4144 21.2476C82.2685 21.2238 82.2063 21.2012 82.1859 21.2012C81.8318 21.1084 81.6655 20.8777 81.6655 20.4851V19.1208H82.394H83.247H84.7244H87.2833V20.4851C87.2833 20.8777 87.117 21.1096 86.7629 21.2012C86.7414 21.2012 86.7007 21.2012 86.6588 21.225C86.6181 21.2487 86.5344 21.2713 86.4303 21.294C86.3262 21.3166 86.2018 21.3403 86.0762 21.3867L88.2188 29.8235C88.2822 30.0781 88.3432 30.3552 88.4066 30.6324C88.4473 30.9095 88.5107 31.2331 88.5525 31.5566C88.6147 31.2331 88.677 30.9095 88.7392 30.6324C88.8014 30.3315 88.8636 30.0781 88.9473 29.8235L91.901 19.8381C91.9632 19.6525 92.0661 19.4908 92.2336 19.3528C92.401 19.2147 92.5877 19.122 92.8162 19.122H93.6476C93.8976 19.122 94.0854 19.1684 94.2506 19.3075C94.4169 19.4466 94.5209 19.631 94.5843 19.8392L97.5165 29.8247C97.6624 30.31 97.8083 30.8643 97.9124 31.4661C97.9543 31.1652 97.995 30.888 98.0584 30.6109C98.1002 30.3337 98.1624 30.0566 98.2246 29.8258L100.367 21.4127C100.159 21.3664 99.8683 21.2962 99.5142 21.2046C99.1602 21.113 98.9939 20.8811 98.9939 20.4885V19.1242H101.699H103.03H103.903H104.607V19.1208Z" fill="#9B9B9B"/>
<path d="M116.675 30.6075C116.675 31.3699 116.551 32.0407 116.321 32.7104C116.091 33.3813 115.759 33.9593 115.302 34.4435C114.865 34.9288 114.303 35.3213 113.659 35.5996C113.014 35.8768 112.286 36.0159 111.454 36.0159H111.142C109.811 36.0159 108.376 35.715 106.837 35.1381V34.7218V30.8382H106.919H107.169H108.022C108.293 30.8382 108.439 30.9774 108.501 31.2545C108.543 31.4627 108.605 32.1097 108.689 33.1731C109.291 33.3813 110.249 33.474 111.538 33.474C112.329 33.474 112.952 33.2659 113.39 32.8496C113.827 32.4333 114.034 31.8326 114.034 31.0464C114.034 30.6075 113.93 30.2375 113.743 29.9604C113.555 29.6832 113.286 29.4513 112.952 29.2669C112.62 29.0825 112.267 28.9208 111.849 28.7816C111.434 28.6425 110.997 28.5271 110.581 28.3653C110.144 28.2036 109.728 28.0192 109.312 27.811C108.897 27.6029 108.522 27.3031 108.19 26.9558C107.856 26.6085 107.607 26.1933 107.419 25.6617C107.233 25.1526 107.108 24.5067 107.108 23.7431C107.108 23.1424 107.212 22.5406 107.441 21.9636C107.649 21.3856 107.981 20.8539 108.398 20.415C108.814 19.976 109.333 19.6299 109.936 19.3516C110.539 19.0744 111.246 18.9353 112.037 18.9353C113.514 18.9353 114.949 19.2588 116.343 19.8833V24.1594H116.26H116.01H115.157C114.887 24.1594 114.742 23.9976 114.678 23.7205C114.637 23.5123 114.574 22.889 114.492 21.8482C113.971 21.5937 113.14 21.4783 112.059 21.4783C111.663 21.4783 111.351 21.5247 111.06 21.6175C110.768 21.7329 110.518 21.872 110.331 22.0564C110.144 22.2408 109.977 22.4727 109.874 22.7272C109.77 22.9818 109.728 23.2815 109.728 23.5824C109.728 23.975 109.853 24.2985 110.039 24.553C110.227 24.8076 110.477 25.0384 110.81 25.2239C111.142 25.4083 111.517 25.5938 111.933 25.7318C112.348 25.8709 112.764 26.0327 113.201 26.1945C113.639 26.3562 114.054 26.5644 114.47 26.7725C114.885 26.9807 115.26 27.2578 115.594 27.6051C115.926 27.9513 116.197 28.345 116.383 28.8303C116.591 29.3133 116.675 29.9151 116.675 30.6075Z" fill="#9B9B9B"/>
<path d="M127.635 25.6315H125.859V22.0545H122.765V25.6315H120.989V17.1709H122.765V20.7072H125.859V17.1709H127.635V25.6315Z" fill="#9B9B9B"/>
<path d="M136.982 21.397C136.982 22.009 136.887 22.5735 136.697 23.0904C136.507 23.6074 136.24 24.0543 135.895 24.4321C135.55 24.8099 135.134 25.1041 134.648 25.3145C134.162 25.526 133.622 25.6312 133.03 25.6312H130.073V17.1707H133.03C133.621 17.1707 134.162 17.277 134.648 17.4897C135.134 17.7023 135.55 17.9965 135.895 18.372C136.24 18.7476 136.507 19.1933 136.697 19.7103C136.887 20.2273 136.982 20.7895 136.982 21.397ZM135.174 21.397C135.174 20.9784 135.126 20.6017 135.028 20.2646C134.93 19.9275 134.79 19.6424 134.608 19.4083C134.424 19.1741 134.2 18.9942 133.936 18.8686C133.671 18.7431 133.369 18.6797 133.031 18.6797H131.85V24.121H133.031C133.369 24.121 133.67 24.0577 133.936 23.9321C134.199 23.8065 134.424 23.6255 134.608 23.3914C134.79 23.1572 134.93 22.8721 135.028 22.535C135.126 22.199 135.174 21.8189 135.174 21.397Z" fill="#9B9B9B"/>
</svg>
