<svg width="27" height="22" viewBox="0 0 27 22" fill="none" xmlns="http://www.w3.org/2000/svg">
<path d="M3.49882 10.478C3.48851 10.4805 3.47835 10.4832 3.46819 10.4863C1.85381 10.9824 0.707269 12.4486 0.615101 14.1348C0.614746 14.141 0.614542 14.1472 0.61439 14.1534L0.500081 20.993C0.497644 21.1292 0.549999 21.2608 0.645519 21.358C0.740988 21.4552 0.871546 21.51 1.00784 21.51L16.8552 21.5101C17.1357 21.5101 17.3631 21.2827 17.3631 21.0023C17.3631 20.7219 17.1357 20.4945 16.8552 20.4945H15.2017V16.6091C15.2017 16.3287 14.9743 16.1013 14.6938 16.1013C14.4134 16.1013 14.186 16.3287 14.186 16.6091V20.4945H12.5259L12.6305 14.3925C12.7008 13.1774 13.591 12.037 14.7528 11.6726L17.0928 11.1109H17.1396C18.2056 11.9911 19.803 12.082 20.8614 11.1109H20.908L23.248 11.6726C24.4118 12.0376 25.2999 13.1747 25.3703 14.3925L25.4749 20.4945H23.8392V16.6091C23.8392 16.3287 23.6118 16.1013 23.3314 16.1013C23.0509 16.1013 22.8236 16.3287 22.8236 16.6091V20.4945H21.3236C21.0432 20.4945 20.8158 20.7219 20.8158 21.0023C20.8158 21.2827 21.0432 21.5101 21.3236 21.5101H25.9922C26.1285 21.5101 26.2591 21.4554 26.3546 21.3581C26.4501 21.2608 26.5025 21.1291 26.4999 20.9929L26.3855 14.3641C26.3854 14.358 26.3852 14.3519 26.3849 14.3459C26.3075 12.9295 25.4413 11.6297 24.2013 10.9753L24.566 9.94984C24.7658 9.43218 24.5552 8.74145 24.0228 8.50608L23.3478 8.20693C22.9018 7.9584 22.3411 8.03082 21.9727 8.38827C21.928 8.43163 21.8594 8.44265 21.8064 8.41564C21.6743 8.34759 21.4949 8.26644 21.266 8.1857C21.3015 8.1534 21.3366 8.1207 21.371 8.08678C22.0282 7.43723 22.3902 6.57786 22.3902 5.6671V4.6983C22.4856 4.67408 22.573 4.62309 22.6405 4.5491C22.7367 4.44373 22.7842 4.30271 22.7712 4.16063C22.7676 4.12168 22.6786 3.19639 22.1941 2.2644C21.5201 0.967957 20.4242 0.282715 19.0249 0.282715C17.0997 0.282715 16.1206 1.3543 15.6383 2.25323C15.1346 3.19197 15.0726 4.12604 15.0702 4.16535C15.0539 4.43418 15.2503 4.66905 15.5178 4.70048C15.5243 4.70124 15.5384 4.70277 15.5581 4.70449V5.6671C15.5581 5.67365 15.5582 5.6802 15.5584 5.68681C15.5937 6.59604 15.9546 7.41068 16.522 8.01436C16.0046 8.10298 15.3541 8.2184 14.7236 8.34114C14.5499 8.36653 12.4383 8.68051 10.0194 9.29172L9.84012 8.51806C10.028 8.39345 10.2055 8.24948 10.3701 8.08678C11.0274 7.43723 11.3894 6.57786 11.3894 5.6671V5.06961C11.4002 5.06976 11.409 5.06986 11.4131 5.06986H11.4131C11.5516 5.06986 11.6839 5.01334 11.7798 4.91341C11.8756 4.81347 11.9264 4.67875 11.9205 4.54042C11.9187 4.49847 11.8712 3.50057 11.3883 2.49404C10.7179 1.09633 9.55453 0.357516 8.02409 0.357516C6.02508 0.357516 5.07725 1.52498 4.63413 2.50434C4.17609 3.51672 4.17091 4.51985 4.17091 4.56205C4.17091 4.80052 4.33554 5.00004 4.5572 5.05458V5.66705C4.5572 5.6736 4.5573 5.6802 4.55755 5.68675C4.60356 6.873 5.20314 7.89894 6.09369 8.5042L5.90986 9.89906L3.49882 10.478ZM1.62971 14.1813C1.70106 12.9466 2.57175 11.8313 3.75196 11.4617L6.09206 10.8999H6.1334C7.27745 12.006 9.25116 11.7645 10.0015 10.3448C11.9228 9.84579 13.6873 9.53547 14.4631 9.40958L14.8668 10.6006L14.4993 10.6888C14.489 10.6912 14.4787 10.694 14.4686 10.6971C12.8794 11.1859 11.7062 12.6862 11.6156 14.3457C11.6153 14.3517 11.6151 14.3578 11.615 14.3638L11.5098 20.4943H4.28389V16.6091C4.28389 16.3287 4.05655 16.1013 3.77608 16.1013C3.49562 16.1013 3.26827 16.3287 3.26827 16.6091V20.4943H1.52485L1.62971 14.1813ZM19.151 9.07828C19.39 9.06533 19.628 9.02694 19.859 8.96392L20.0943 10.4285C19.4149 10.9312 18.5345 10.8952 17.8724 10.3943L18.0598 8.95834C18.4136 9.05853 18.7839 9.09748 19.151 9.07828ZM21.8695 9.44655C22.1733 9.44655 22.4611 9.32955 22.68 9.11718C22.7553 9.04416 22.8364 9.09118 22.9121 9.12475L23.5731 9.41765C23.623 9.45737 23.6419 9.52495 23.6179 9.58559C23.6158 9.59107 23.6137 9.59671 23.6116 9.60229L23.2469 10.6278L21.0863 10.1091C21.0814 10.108 21.0764 10.1068 21.0714 10.1058L20.9174 9.13937C21.0994 9.203 21.2397 9.26622 21.3427 9.31929C21.5056 9.40247 21.6878 9.44655 21.8695 9.44655ZM19.4549 8.0168C19.2972 8.05032 19.1353 8.06753 18.9742 8.06753C17.6562 8.06753 16.6281 6.94191 16.5738 5.65684V4.67991C16.5738 4.66448 16.5739 4.64909 16.5742 4.63365C17.0513 4.52848 17.5137 4.30759 17.8615 3.95984C18.4869 4.50106 19.3574 4.71455 20.1681 4.71455H21.3746V5.6671C21.3746 6.8042 20.5351 7.78702 19.4549 8.0168ZM16.5479 2.70635C17.0602 1.77208 17.8936 1.29829 19.0249 1.29829C20.0262 1.29829 20.785 1.77274 21.2802 2.70843C21.4662 3.05979 21.5828 3.41673 21.6543 3.69882C21.1305 3.69882 20.6055 3.70933 20.0818 3.6975C19.793 3.68963 19.4685 3.6423 19.1682 3.54186C18.5686 3.3301 18.3239 2.97219 18.2833 2.90658C18.0796 2.56533 17.5974 2.52095 17.3901 2.89404C17.132 3.35447 16.7036 3.59898 16.1798 3.67292C16.2472 3.39632 16.3603 3.04857 16.5479 2.70635ZM17.0343 8.95763L16.8839 10.1163L15.8585 10.3624L15.4754 9.23215C16.0591 9.12388 16.6207 9.02704 17.0343 8.95763ZM5.55962 2.92298C6.02493 1.89456 6.85414 1.37309 8.02424 1.37309C9.14305 1.37309 9.96271 1.88954 10.4606 2.90811C10.6494 3.29435 10.759 3.68668 10.8222 3.99452C10.0411 3.86396 9.21836 3.53901 8.78265 2.83808C8.65276 2.62911 8.53713 2.43396 8.25874 2.43361C8.05273 2.43335 7.86123 2.56396 7.78587 2.75602C7.78318 2.76292 7.58386 3.2881 7.25775 3.57898C7.20767 3.22366 6.79228 2.97514 6.48551 3.16836C6.3611 3.24656 6.25878 3.38672 6.14513 3.48153C5.88239 3.70065 5.57587 3.87488 5.24681 3.97131C5.29718 3.67445 5.38966 3.29866 5.55962 2.92298ZM5.57303 5.65684V4.93448C5.84872 4.84978 6.11329 4.72704 6.35876 4.57596C6.45185 4.69164 6.59459 4.76573 6.75471 4.76573C7.3945 4.76573 7.93598 4.37066 8.30612 3.87442C8.9121 4.5034 9.72917 4.80143 10.3739 4.94266V5.66705C10.3739 6.9571 9.2631 8.06748 7.97346 8.06748C6.65512 8.06748 5.62731 6.94197 5.57303 5.65684ZM7.80258 9.07879C8.1716 9.09692 8.54312 9.05441 8.89839 8.9527L9.10857 9.85981C8.67916 10.6836 7.57401 10.7991 6.89248 10.2177L7.05848 8.95803C7.30096 9.02674 7.55101 9.06615 7.80258 9.07879Z" fill="#00B493"/>
<path d="M18.6436 21.2841C18.7982 21.5141 19.117 21.5774 19.3479 21.4242C19.5787 21.2712 19.6409 20.9498 19.4881 20.7199C19.335 20.4896 19.0138 20.4267 18.7843 20.5797C18.5541 20.7331 18.4901 21.054 18.6436 21.2841Z" fill="#00B493"/>
</svg>
