<svg width="27" height="26" viewBox="0 0 27 26" fill="none" xmlns="http://www.w3.org/2000/svg">
<g clip-path="url(#clip0_435_69)">
<path d="M20.6317 24.582L17.9044 21.9593C17.8091 21.8677 17.68 21.8162 17.5453 21.8162C17.5451 21.8162 17.5448 21.8162 17.5446 21.8162L16.0814 21.8182C16.0782 21.8182 16.075 21.8182 16.0718 21.8182C15.264 21.8182 14.4549 21.6754 13.6976 21.4029L14.5756 20.8368C14.9351 20.605 15.1767 20.2521 15.2562 19.8431C15.3356 19.434 15.2427 19.021 14.9945 18.6801C14.6858 18.2563 14.1888 18.0262 13.6827 18.0262C13.6745 18.0262 13.6662 18.0263 13.658 18.0264L15.6805 16.0816C16.2941 15.4916 16.2941 14.5315 15.6805 13.9415C15.5312 13.7979 15.3572 13.6868 15.1677 13.6118C15.3082 13.3822 15.3833 13.1199 15.3833 12.8465C15.3833 12.4423 15.2195 12.0622 14.9223 11.7764C14.625 11.4906 14.2298 11.3331 13.8094 11.3331C13.5251 11.3331 13.2524 11.4054 13.0136 11.5405C12.9355 11.3582 12.8199 11.1909 12.6706 11.0473C12.3734 10.7615 11.9781 10.604 11.5577 10.604C11.1373 10.604 10.7421 10.7615 10.4448 11.0473L9.71856 11.7456C9.64132 11.582 9.53362 11.4312 9.39752 11.3003C9.10025 11.0144 8.70502 10.8571 8.2846 10.8571C7.86418 10.8571 7.46895 11.0145 7.17168 11.3003L6.84978 11.6098L5.54109 10.3585C5.16094 9.993 5.16094 9.39822 5.54109 9.0327C5.89722 8.69027 6.46252 8.66868 6.84505 8.96776L8.11245 10.1865C8.21163 10.2818 8.34158 10.3295 8.47153 10.3295C8.60147 10.3295 8.73147 10.2818 8.8306 10.1865C9.0289 9.99578 9.0289 9.6866 8.8306 9.49593L6.64416 7.39359C6.26401 7.02801 6.26401 6.43323 6.64416 6.06771C7.02431 5.70213 7.64293 5.70218 8.02308 6.06771L11.8539 9.75823C11.953 9.8536 12.083 9.90125 12.2129 9.90125C12.3429 9.90125 12.4729 9.85355 12.572 9.75823C12.7703 9.56756 12.7703 9.25838 12.572 9.06771L9.66026 6.26082C9.34923 5.89295 9.37173 5.34944 9.7278 5.00706C10.108 4.64153 10.7266 4.64153 11.1067 5.00706L12.1735 6.03289C12.3719 6.22361 12.6934 6.22361 12.8917 6.03289C13.09 5.84222 13.09 5.53304 12.8917 5.34236L11.8249 4.31653C11.0487 3.57025 9.7858 3.57029 9.00965 4.31653C8.75316 4.56317 8.58203 4.86102 8.49504 5.1761C8.15881 4.9428 7.75642 4.81658 7.33362 4.81658C6.80189 4.81658 6.302 5.0157 5.92601 5.37718C5.22737 6.04896 5.158 7.09979 5.7171 7.84735C5.38936 7.93094 5.07949 8.09554 4.82294 8.34222C4.09048 9.04656 4.04965 10.1675 4.6997 10.9187C4.37922 11.0038 4.07661 11.1668 3.82519 11.4085C3.0491 12.1548 3.0491 13.3691 3.82519 14.1155L4.05183 14.3334C3.1949 15.3227 2.72918 16.5572 2.73111 17.8607L2.73233 18.6695L0.648726 20.6731C0.450425 20.8638 0.450425 21.173 0.648726 21.3637C0.747901 21.459 0.877851 21.5067 1.0078 21.5067C1.13775 21.5067 1.26775 21.459 1.36687 21.3637L3.59952 19.2169C3.69494 19.1251 3.74846 19.0006 3.74826 18.8709L3.74674 17.8594C3.74491 16.6458 4.23551 15.5048 5.12799 14.6466L7.64806 12.2234C7.64806 12.2234 7.64806 12.2234 7.64811 12.2234L7.88983 11.9909C7.99525 11.8895 8.13541 11.8337 8.28455 11.8337C8.43369 11.8337 8.57385 11.8895 8.67927 11.9909C8.78475 12.0923 8.84279 12.2271 8.84279 12.3705C8.84279 12.4936 8.79972 12.6102 8.72081 12.705L8.04953 13.3504C7.85123 13.5411 7.85123 13.8503 8.04953 14.041C8.04999 14.0414 8.0505 14.0418 8.05091 14.0422C8.05136 14.0427 8.05172 14.0431 8.05217 14.0435C8.15135 14.1388 8.2813 14.1866 8.41125 14.1866C8.5412 14.1866 8.6712 14.1388 8.77032 14.0435L11.1628 11.7379C11.2683 11.6365 11.4084 11.5807 11.5576 11.5807C11.7067 11.5807 11.8469 11.6366 11.9523 11.7379C12.1549 11.9327 12.1687 12.2412 11.994 12.4518L9.55708 14.8001C9.35878 14.9908 9.35878 15.2999 9.55708 15.4907C9.65625 15.586 9.7862 15.6337 9.91615 15.6337C10.0461 15.6337 10.1761 15.586 10.2752 15.4907L13.4145 12.467C13.5199 12.3656 13.66 12.3098 13.8092 12.3098C13.9583 12.3098 14.0985 12.3657 14.2039 12.467C14.4216 12.6763 14.4216 13.0168 14.2039 13.2261L11.0594 16.2446C10.8611 16.4352 10.861 16.7444 11.0594 16.9351C11.2577 17.1258 11.5793 17.1258 11.7775 16.9351L14.2198 14.592C14.4387 14.424 14.7596 14.4372 14.9622 14.6321C15.1798 14.8413 15.1798 15.1819 14.9622 15.3911L11.5337 18.6879C11.2922 18.9201 11.2698 19.2761 11.4806 19.5345C11.6914 19.7929 12.0564 19.8569 12.3485 19.6867L13.3843 19.0829C13.6454 18.9306 13.9871 18.9998 14.1623 19.2404C14.2527 19.3645 14.2865 19.5149 14.2576 19.6639C14.2286 19.8129 14.1406 19.9414 14.0098 20.0258L11.6135 21.5709C10.8337 22.0737 9.9257 22.3392 8.98696 22.3392C8.98477 22.3392 8.98249 22.3392 8.9803 22.3392L7.35271 22.337C7.35246 22.337 7.35226 22.337 7.352 22.337C7.21733 22.337 7.08814 22.3885 6.99293 22.48L4.76023 24.6268C4.56193 24.8175 4.56193 25.1267 4.76023 25.3174C4.8594 25.4127 4.98935 25.4604 5.1193 25.4604C5.24925 25.4604 5.37925 25.4127 5.47838 25.3174L7.56203 23.3139L8.97888 23.3159C8.98157 23.3159 8.98416 23.3159 8.98691 23.3159C10.1277 23.3159 11.2315 22.993 12.1791 22.382L12.6922 22.0512C13.7408 22.5377 14.9074 22.795 16.0715 22.795C16.0751 22.795 16.0789 22.795 16.0826 22.795L17.335 22.7932L19.9135 25.2725C20.0127 25.3679 20.1426 25.4156 20.2726 25.4156C20.4025 25.4156 20.5325 25.3679 20.6317 25.2725C20.83 25.0819 20.83 24.7727 20.6317 24.582ZM5.79926 12.6201C5.79921 12.6201 5.79921 12.6201 5.79916 12.6202L4.75276 13.6264L4.54339 13.425C4.16324 13.0595 4.16324 12.4647 4.54339 12.0992C4.89952 11.7567 5.46482 11.7351 5.84735 12.0342L6.12797 12.304L5.79926 12.6201Z" fill="#00B493"/>
<path d="M26.3512 19.0825C26.2568 18.9912 26.1257 18.9395 25.9922 18.9395C25.8586 18.9395 25.7276 18.9912 25.6332 19.0825C25.5387 19.1733 25.4844 19.2988 25.4844 19.4277C25.4844 19.5562 25.5387 19.6821 25.6332 19.7729C25.7276 19.8637 25.8586 19.916 25.9922 19.916C26.1257 19.916 26.2568 19.8638 26.3512 19.7729C26.4457 19.6816 26.5 19.5562 26.5 19.4277C26.5 19.2988 26.4457 19.1733 26.3512 19.0825Z" fill="#00B493"/>
<path d="M24.9857 17.7695L23.7728 16.6032L23.7757 14.629C23.7779 13.1374 23.3225 11.6942 22.4585 10.4553L20.2233 7.25036C19.918 6.81256 19.4531 6.51818 18.9143 6.4214C18.3754 6.32463 17.8314 6.43786 17.3824 6.7402C16.6467 7.23556 16.3541 8.12931 16.6143 8.9216L15.2871 7.64543C15.0888 7.4548 14.7672 7.4548 14.5689 7.64543C14.3706 7.8361 14.3706 8.14528 14.5689 8.336L17.42 11.0774C17.6837 11.331 18.0883 11.3545 18.3818 11.1331C18.6753 10.9117 18.748 10.5283 18.5546 10.2215L17.6812 8.8362C17.407 8.40124 17.5316 7.83195 17.9649 7.5402C18.1885 7.38966 18.4596 7.33327 18.7278 7.38146C18.9962 7.42966 19.2277 7.57629 19.3798 7.7943L21.6149 10.9993C22.366 12.0763 22.762 13.331 22.7601 14.6277L22.7569 16.8045C22.7567 16.9342 22.8102 17.0588 22.9056 17.1505L24.2676 18.4601C24.3668 18.5554 24.4967 18.6031 24.6267 18.6031C24.7566 18.6031 24.8866 18.5554 24.9857 18.4601C25.184 18.2694 25.184 17.9603 24.9857 17.7695Z" fill="#00B493"/>
<path d="M14.0932 6.49756C13.9992 6.40674 13.8682 6.35449 13.7346 6.35449C13.6006 6.35449 13.4701 6.40674 13.3751 6.49756C13.2807 6.58838 13.2263 6.71436 13.2263 6.84277C13.2263 6.97168 13.2807 7.09717 13.3751 7.18799C13.4701 7.27881 13.6006 7.33106 13.7346 7.33106C13.8682 7.33106 13.9987 7.27881 14.0932 7.18799C14.1881 7.09717 14.2424 6.97119 14.2424 6.84277C14.2424 6.71436 14.1881 6.58838 14.0932 6.49756Z" fill="#00B493"/>
<path d="M18.806 14.0748C19.0043 13.8841 19.0043 13.5749 18.806 13.3842C18.6077 13.1936 18.2861 13.1936 18.0878 13.3842L17.8662 13.5972C16.918 14.509 16.918 15.9927 17.8662 16.9045C17.9654 16.9999 18.0954 17.0476 18.2253 17.0476C18.3553 17.0476 18.4853 16.9999 18.5844 16.9045C18.7827 16.7139 18.7827 16.4047 18.5844 16.214C18.0321 15.6829 18.0321 14.8187 18.5844 14.2877L18.806 14.0748Z" fill="#00B493"/>
<path d="M24.7379 3.09717C24.4151 3.09717 24.0995 3.18525 23.8267 3.34634C23.5539 3.18525 23.2383 3.09717 22.9155 3.09717C21.9438 3.09717 21.1533 3.87119 21.1533 4.82251C21.1533 5.36167 21.5565 6.00918 22.3858 6.80215C22.9442 7.33603 23.495 7.74238 23.5183 7.75942C23.6093 7.82637 23.718 7.85981 23.8267 7.85981C23.9354 7.85981 24.0441 7.82637 24.1351 7.75942C24.1584 7.74238 24.7092 7.33599 25.2676 6.80215C26.0969 6.00923 26.5001 5.36167 26.5001 4.82251C26.5001 3.87114 25.7096 3.09717 24.7379 3.09717ZM23.8265 6.74687C22.9779 6.06914 22.1689 5.20439 22.1689 4.82251C22.1689 4.40962 22.5038 4.07373 22.9155 4.07373C23.1202 4.07373 23.3113 4.15532 23.4535 4.30356C23.5496 4.40376 23.6849 4.46074 23.8267 4.46074C23.9685 4.46074 24.1038 4.40376 24.1999 4.30356C24.3421 4.15537 24.5332 4.07373 24.7379 4.07373C25.1496 4.07373 25.4845 4.40962 25.4845 4.82251C25.4845 5.20342 24.6753 6.06841 23.8265 6.74687Z" fill="#00B493"/>
<path d="M4.0846 0.461426C3.76178 0.461426 3.44623 0.549512 3.17338 0.710596C2.90053 0.549512 2.58498 0.461426 2.26216 0.461426C1.29051 0.461377 0.5 1.23535 0.5 2.18672C0.5 2.72588 0.903152 3.37339 1.73251 4.16636C2.2909 4.70024 2.84178 5.10664 2.86493 5.12368C2.95593 5.19063 3.06466 5.22407 3.17338 5.22407C3.2821 5.22407 3.39077 5.19063 3.48182 5.12368C3.50503 5.10664 4.05586 4.70024 4.61425 4.16641C5.4436 3.37344 5.84676 2.72593 5.84676 2.18677C5.84676 1.2354 5.05625 0.461426 4.0846 0.461426ZM3.17323 4.11108C2.32452 3.43335 1.51562 2.56865 1.51562 2.18672C1.51562 1.77383 1.85053 1.43794 2.26216 1.43794C2.46691 1.43794 2.65795 1.51953 2.80014 1.66777C2.89632 1.76797 3.0316 1.82495 3.17338 1.82495C3.31516 1.82495 3.45049 1.76797 3.54662 1.66777C3.68881 1.51958 3.87985 1.43794 4.0846 1.43794C4.49623 1.43794 4.83113 1.77383 4.83113 2.18672C4.83113 2.56758 4.02193 3.43262 3.17323 4.11108Z" fill="#00B493"/>
</g>
<defs>
<clipPath id="clip0_435_69">
<rect width="26" height="25" fill="white" transform="translate(0.5 0.460449)"/>
</clipPath>
</defs>
</svg>
