<svg width="23" height="23" viewBox="0 0 23 23" fill="none" xmlns="http://www.w3.org/2000/svg">
<g clip-path="url(#clip0_435_13)">
<path d="M3.9527 0.902832C3.1106 0.902832 2.42554 1.58789 2.42554 2.43C2.42554 3.2721 3.1106 3.95716 3.9527 3.95716C4.79481 3.95716 5.47986 3.2721 5.47986 2.43C5.47986 1.58789 4.79476 0.902832 3.9527 0.902832ZM3.9527 3.05881C3.60595 3.05881 3.32388 2.77675 3.32388 2.43C3.32388 2.08324 3.60595 1.80118 3.9527 1.80118C4.29945 1.80118 4.58152 2.08324 4.58152 2.43C4.58152 2.77675 4.29945 3.05881 3.9527 3.05881Z" fill="#00B493"/>
<path d="M17.4535 6.02308C17.4612 5.89712 17.4156 5.77089 17.3228 5.67808L17.3191 5.67435C17.2263 5.58163 17.1002 5.53595 16.9741 5.54363C13.4323 5.32468 9.96676 6.63667 7.45639 9.14704L5.68427 10.9191C5.72151 10.6404 5.73229 10.3566 5.71468 10.0714C5.71199 9.95783 5.66648 9.84665 5.58275 9.76296C5.49564 9.67586 5.3792 9.63111 5.26079 9.63138C4.01524 9.55879 2.7988 10.0212 1.91631 10.9037L0.131565 12.6884C-0.043855 12.8638 -0.043855 13.1482 0.131565 13.3236L2.59971 15.7918C0.830325 17.9294 0.0410474 22.2774 0.00699658 22.4694C-0.0189233 22.6154 0.0288286 22.7647 0.134665 22.8686C0.219432 22.9518 0.332725 22.9971 0.449252 22.9971C0.478137 22.9971 0.507247 22.9943 0.536176 22.9887C0.724893 22.9514 5.00312 22.0915 7.12837 20.3205L9.67351 22.8656C9.76124 22.9533 9.87615 22.9972 9.99111 22.9972C10.1061 22.9972 10.221 22.9533 10.3087 22.8656L12.0935 21.0809C12.9794 20.1949 13.4421 18.9716 13.3649 17.7217C13.3622 17.6081 13.3167 17.4969 13.2329 17.4132C13.1468 17.3272 13.032 17.2817 12.9152 17.2817C12.9138 17.2817 12.9124 17.2817 12.911 17.2817C12.6308 17.2653 12.352 17.2763 12.0781 17.3128L13.8501 15.5409C16.3605 13.0304 17.6719 9.56463 17.4535 6.02308ZM16.573 6.42414C16.6124 7.67634 16.4456 8.91394 16.0913 10.0919L12.9051 6.9057C14.0833 6.55123 15.321 6.38448 16.573 6.42414ZM2.34087 14.2625L1.71326 13.6349L1.71205 13.6337L1.08445 13.006L2.5516 11.5389C3.16042 10.9301 3.9696 10.5729 4.8197 10.5273C4.77402 11.3773 4.4168 12.1865 3.80806 12.7954L2.34087 14.2625ZM1.03059 21.9557C1.31548 20.6861 2.04083 17.9267 3.23787 16.4299L4.54613 17.7382L3.45951 18.8248C3.28409 19.0002 3.28409 19.2846 3.45951 19.4601C3.54724 19.5478 3.66216 19.5916 3.77711 19.5916C3.89207 19.5916 4.00698 19.5478 4.09471 19.4601L5.18132 18.3734L6.4903 19.6824C5.00159 20.8837 2.28561 21.6497 1.03059 21.9557ZM2.97606 14.8978L3.88119 13.9926L9.00453 19.1159L8.0994 20.021L2.97606 14.8978ZM12.4699 18.1775C12.4242 19.0275 12.067 19.8367 11.4583 20.4456L9.99111 21.9127L9.3635 21.2851L9.36229 21.2839L8.73469 20.6563L10.2018 19.1891C10.8106 18.5803 11.6198 18.2231 12.4699 18.1775ZM9.63982 18.4806L4.51648 13.3573L8.09159 9.78223C9.20803 8.66574 10.5287 7.80517 11.9628 7.23386L15.7632 11.0342C15.1919 12.4684 14.3314 13.7889 13.2149 14.9055L9.63982 18.4806Z" fill="#00B493"/>
<path d="M11.8044 11.1613C10.7286 10.0855 8.97809 10.0855 7.9023 11.1613C6.82651 12.2372 6.82651 13.9876 7.9023 15.0635C8.42348 15.5847 9.11631 15.8716 9.85335 15.8716C10.5904 15.8716 11.2833 15.5846 11.8044 15.0635C12.8802 13.9876 12.8802 12.2372 11.8044 11.1613ZM9.40422 14.9189C9.07894 14.8386 8.78057 14.6713 8.53754 14.4282C8.18607 14.0768 7.9925 13.6094 7.9925 13.1124C7.9925 12.6154 8.18607 12.1481 8.53754 11.7966C8.78048 11.5536 9.07889 11.3862 9.40422 11.3059V14.9189ZM11.1692 14.4283C10.9263 14.6713 10.6278 14.8387 10.3025 14.919V11.306C10.6278 11.3863 10.9262 11.5536 11.1692 11.7967C11.5207 12.1481 11.7142 12.6155 11.7142 13.1125C11.7142 13.6095 11.5207 14.0768 11.1692 14.4283Z" fill="#00B493"/>
<path d="M2.98743 19.9319C2.90383 19.8484 2.78802 19.8003 2.66988 19.8003C2.55173 19.8003 2.43588 19.8483 2.35237 19.9319C2.26881 20.0155 2.2207 20.1313 2.2207 20.2495C2.2207 20.3676 2.26877 20.4835 2.35237 20.567C2.43588 20.651 2.55173 20.6986 2.66988 20.6986C2.78802 20.6986 2.90387 20.651 2.98743 20.567C3.07098 20.4835 3.11905 20.3676 3.11905 20.2495C3.11905 20.1313 3.07103 20.0154 2.98743 19.9319Z" fill="#00B493"/>
<path d="M20.3246 0C18.851 0 17.6521 1.19887 17.6521 2.67249C17.6521 4.14615 18.851 5.34498 20.3246 5.34498C21.7983 5.34498 22.9971 4.14611 22.9971 2.67249C22.9971 1.19887 21.7982 0 20.3246 0ZM20.3246 4.44668C19.3463 4.44668 18.5504 3.65076 18.5504 2.67249C18.5504 1.69423 19.3463 0.898303 20.3246 0.898303C21.3029 0.898303 22.0988 1.69423 22.0988 2.67249C22.0988 3.65076 21.3029 4.44668 20.3246 4.44668Z" fill="#00B493"/>
<path d="M16.5766 2.22314H13.2277C12.9797 2.22314 12.7786 2.42426 12.7786 2.67232C12.7786 2.92038 12.9797 3.12149 13.2277 3.12149H16.5766C16.8246 3.12149 17.0258 2.92038 17.0258 2.67232C17.0258 2.42426 16.8246 2.22314 16.5766 2.22314Z" fill="#00B493"/>
<path d="M11.816 2.35477C11.7325 2.27121 11.6166 2.22314 11.4985 2.22314C11.3803 2.22314 11.2645 2.27117 11.1809 2.35477C11.0974 2.43832 11.0493 2.55417 11.0493 2.67232C11.0493 2.79046 11.0973 2.90632 11.1809 2.98983C11.2645 3.07338 11.3803 3.12149 11.4985 3.12149C11.6166 3.12149 11.7325 3.07343 11.816 2.98983C11.8996 2.90632 11.9477 2.79046 11.9477 2.67232C11.9477 2.55422 11.8996 2.43832 11.816 2.35477Z" fill="#00B493"/>
<path d="M14.4432 0H10.4414C10.1933 0 9.99219 0.201115 9.99219 0.449174C9.99219 0.697232 10.1933 0.898348 10.4414 0.898348H14.4432C14.6912 0.898348 14.8924 0.697232 14.8924 0.449174C14.8924 0.201115 14.6912 0 14.4432 0Z" fill="#00B493"/>
<path d="M22.6949 15.6291C22.3787 15.3128 21.7201 15.0849 20.3779 15.794C20.3518 15.8078 20.3277 15.824 20.3055 15.8419C19.9467 15.7179 19.5623 15.6498 19.162 15.6498C17.2253 15.6498 15.6497 17.2254 15.6497 19.162C15.6497 19.5697 15.7203 19.961 15.8486 20.3254C15.8134 20.359 15.7829 20.3987 15.7594 20.4444C15.0915 21.7444 15.3199 22.3859 15.629 22.695C15.8401 22.9061 16.1167 23.0002 16.4382 23.0002C16.8985 23.0001 17.4507 22.8067 18.0331 22.4871C18.3877 22.6078 18.7671 22.6743 19.162 22.6743C21.0987 22.6743 22.6742 21.0986 22.6742 19.162C22.6742 18.7672 22.6078 18.3879 22.4871 18.0334C23.0298 17.0441 23.2083 16.1425 22.6949 15.6291ZM16.2642 22.0597C16.2092 22.0046 16.1858 21.7526 16.3652 21.2835C16.5587 21.538 16.7861 21.7653 17.0405 21.9588C16.5705 22.1384 16.3186 22.1141 16.2642 22.0597ZM17.9621 21.4831C17.123 21.0475 16.548 20.1709 16.548 19.162C16.548 17.7206 17.7206 16.548 19.162 16.548C20.1709 16.548 21.0476 17.123 21.4831 17.9621C21.0901 18.5892 20.5447 19.2612 19.903 19.903C19.2613 20.5447 18.5892 21.0901 17.9621 21.4831ZM19.162 21.7759C19.1484 21.7759 19.1349 21.7751 19.1214 21.7749C19.6096 21.4075 20.0931 20.9833 20.5383 20.5382C20.9833 20.0931 21.4077 19.6097 21.775 19.1215C21.7751 19.1351 21.7759 19.1484 21.7759 19.1619C21.7759 20.6033 20.6033 21.7759 19.162 21.7759ZM21.9588 17.0406C21.7653 16.7861 21.5379 16.5587 21.2834 16.3651C21.7514 16.1858 22.0036 16.208 22.0597 16.2643C22.1141 16.3187 22.1385 16.5705 21.9588 17.0406Z" fill="#00B493"/>
<path d="M22.5479 11.0493H19.6115C19.3635 11.0493 19.1624 11.2504 19.1624 11.4985C19.1624 11.7465 19.3635 11.9477 19.6115 11.9477H22.5479C22.796 11.9477 22.9971 11.7465 22.9971 11.4985C22.9971 11.2504 22.796 11.0493 22.5479 11.0493Z" fill="#00B493"/>
<path d="M7.41122 5.30029H4.47481C4.22675 5.30029 4.02563 5.50141 4.02563 5.74947C4.02563 5.99753 4.22675 6.19864 4.47481 6.19864H7.41122C7.65923 6.19864 7.86039 5.99753 7.86039 5.74947C7.86039 5.50141 7.65923 5.30029 7.41122 5.30029Z" fill="#00B493"/>
<path d="M2.86149 5.30029H1.39327C1.14525 5.30029 0.944092 5.50141 0.944092 5.74947C0.944092 5.99753 1.14521 6.19864 1.39327 6.19864H2.86149C3.10951 6.19864 3.31067 5.99753 3.31067 5.74947C3.31067 5.50141 3.10951 5.30029 2.86149 5.30029Z" fill="#00B493"/>
</g>
<defs>
<clipPath id="clip0_435_13">
<rect width="23" height="23" fill="white"/>
</clipPath>
</defs>
</svg>
