<svg width="24" height="25" viewBox="0 0 24 25" fill="none" xmlns="http://www.w3.org/2000/svg">
<path d="M17 2.37646H7C4.23858 2.37646 2 4.61504 2 7.37646V17.3765C2 20.1379 4.23858 22.3765 7 22.3765H17C19.7614 22.3765 22 20.1379 22 17.3765V7.37646C22 4.61504 19.7614 2.37646 17 2.37646Z" stroke="black" stroke-width="2" stroke-linecap="round" stroke-linejoin="round"/>
<path d="M16 11.7463C16.1234 12.5785 15.9812 13.4285 15.5937 14.1753C15.2062 14.9221 14.5931 15.5277 13.8416 15.906C13.0901 16.2842 12.2384 16.4159 11.4077 16.2822C10.5771 16.1485 9.80971 15.7564 9.21479 15.1614C8.61987 14.5665 8.22768 13.7992 8.09402 12.9685C7.96035 12.1378 8.09202 11.2862 8.47028 10.5347C8.84854 9.78313 9.45414 9.17002 10.2009 8.78252C10.9477 8.39502 11.7977 8.25287 12.63 8.37628C13.4789 8.50216 14.2648 8.89774 14.8716 9.50458C15.4785 10.1114 15.8741 10.8974 16 11.7463Z" stroke="black" stroke-width="2" stroke-linecap="round" stroke-linejoin="round"/>
<path d="M17.5 6.87646H17.51" stroke="black" stroke-width="2" stroke-linecap="round" stroke-linejoin="round"/>
</svg>
