<svg width="24" height="25" viewBox="0 0 24 25" fill="none" xmlns="http://www.w3.org/2000/svg">
<path d="M22.5401 6.79646C22.4213 6.32187 22.1794 5.88704 21.8387 5.53587C21.4981 5.18471 21.0708 4.92965 20.6001 4.79646C18.8801 4.37646 12.0001 4.37646 12.0001 4.37646C12.0001 4.37646 5.12008 4.37646 3.40008 4.83646C2.92933 4.96965 2.50206 5.22471 2.16143 5.57587C1.8208 5.92704 1.57887 6.36187 1.46008 6.83646C1.1453 8.58202 0.991319 10.3528 1.00008 12.1265C0.988863 13.9135 1.14285 15.6978 1.46008 17.4565C1.59104 17.9163 1.83839 18.3346 2.17823 18.6709C2.51806 19.0073 2.9389 19.2503 3.40008 19.3765C5.12008 19.8365 12.0001 19.8365 12.0001 19.8365C12.0001 19.8365 18.8801 19.8365 20.6001 19.3765C21.0708 19.2433 21.4981 18.9882 21.8387 18.6371C22.1794 18.2859 22.4213 17.8511 22.5401 17.3765C22.8524 15.6441 23.0064 13.8868 23.0001 12.1265C23.0113 10.3394 22.8573 8.55516 22.5401 6.79646V6.79646Z" stroke="black" stroke-width="2" stroke-linecap="round" stroke-linejoin="round"/>
<path d="M9.75 15.3964L15.5 12.1264L9.75 8.85645V15.3964Z" fill="black"/>
</svg>
