<svg fill="none" height="479" viewBox="0 0 1050 479" width="1050" xmlns="http://www.w3.org/2000/svg" xmlns:xlink="http://www.w3.org/1999/xlink"><mask id="a" height="479" maskUnits="userSpaceOnUse" width="1050" x="0" y="0"><rect fill="#3ac4ab" height="478" rx="30" width="1050" y=".795898"/></mask><rect fill="#3ac4ab" height="478" rx="30" width="1050" y=".795898"/><g fill="#54cdb7" mask="url(#a)"><path d="m1264.67 380.334c-3.92 2.304-7.83 5.068-11.38 7.372-4.63 3.225-9.6 5.989-14.23 9.214-18.49 11.518-33.78 21.193-48 30.408-8.89 5.528-19.2 10.135-29.87 14.742-16.71 7.372-34.14 15.204-47.29 28.104-7.12 6.911-12.45 14.743-17.07 23.497-5.69 11.057-8.54 21.653-11.38 33.171-3.56 14.283-7.47 28.565-17.07 43.768-16.36 25.801-43.03 44.69-68.628 48.376-2.845.46-6.401.921-9.601 1.382-24.18 1.382-43.382-1.843-62.228-4.607-27.736-4.147-54.05-8.293-91.387 5.068h8.535c33.069-9.675 57.249-5.99 82.852-2.304 5.334.921 10.667 1.382 16.001 2.304h58.316c25.6-4.608 51.56-23.036 67.56-48.836 9.96-15.665 13.52-30.408 17.43-44.69 2.84-11.518 5.69-22.114 11.02-32.711 4.27-8.293 9.96-16.125 16.71-22.575 12.8-12.9 29.87-20.271 46.58-27.643 10.32-4.607 20.63-9.214 29.87-14.743 14.58-9.214 29.87-18.429 48.01-30.407 4.62-3.225 9.6-5.99 14.22-9.215 3.56-2.303 7.11-4.607 10.67-6.91v-2.765z" opacity=".7"/><path d="m1264.67 354.534c-14.94 10.136-30.59 18.889-45.52 28.104l-9.25 5.528c-14.57 8.293-29.86 17.508-47.29 27.183-8.89 5.068-18.49 8.753-28.8 12.9-16.36 6.45-33.07 13.36-46.58 24.878-6.76 5.99-12.8 12.44-17.78 20.272-6.4 9.675-9.96 19.35-13.87 29.947-4.62 12.439-9.6 24.878-19.2 38.239-16.72 23.036-42.673 40.082-67.209 45.15-2.845.461-6.045 1.382-9.245 1.843-23.113 3.225-41.96 3.225-60.095 3.225-31.647 0-61.517-.461-109.521 18.429-9.245 3.686-17.779 7.371-26.314 11.057h6.757c6.4-2.764 13.156-5.529 20.268-8.293 48.005-18.889 77.518-18.429 109.166-18.429 18.135 0 36.981.461 60.094-3.225 3.201-.46 6.401-.921 9.246-1.842 25.246-5.068 51.203-22.576 68.633-46.072 9.95-13.361 14.57-26.261 19.55-38.7 3.91-10.136 7.47-19.811 13.52-29.486 4.97-7.372 10.66-14.282 17.06-19.811 13.16-11.518 29.87-17.968 45.87-24.418 9.96-4.146 19.92-8.293 29.16-13.361 17.43-9.675 32.72-18.889 47.3-27.182l9.24-5.529c14.94-8.753 29.87-17.968 44.81-27.643z" opacity=".7"/><path d="m1264.67 325.97c-24.18 20.271-51.57 35.014-77.88 49.297l-6.04 3.225c-13.87 7.371-28.81 15.203-46.23 23.957-8.89 4.607-18.14 7.832-28.09 11.518-16 5.989-32.36 11.978-45.52 21.653-6.75 5.068-12.8 11.058-18.13 17.508-7.11 8.753-11.74 17.507-16.71 26.721-5.69 10.597-11.38 21.193-20.98 32.25-17.428 20.272-42.32 35.936-66.144 41.926l-1.067.46c-2.489.461-5.334 1.382-7.823 1.843-23.113 5.068-41.959 7.832-60.094 10.597-29.514 4.607-57.606 8.753-102.41 22.114l-3.2.922c-51.205 15.203-91.386 27.182-144.014 9.214-17.779-5.989-35.914-17.047-54.76-28.104-11.735-6.911-23.825-14.282-35.915-20.271-25.958-12.901-51.56-18.429-78.229-16.586-39.115 2.764-61.517 22.575-85.342 44.229-14.223 12.9-29.158 25.8-48.004 35.935-4.267 2.304-8.89 4.147-12.801 5.529-.711.461-1.778.461-2.489.922h8.178c2.489-.922 5.334-2.304 7.823-3.686 19.202-10.136 34.137-23.036 48.36-35.936 23.469-21.193 45.516-41.004 84.275-43.768 26.313-1.843 51.56 3.686 77.518 16.125 12.09 5.989 24.18 13.361 35.559 20.271 18.846 11.518 36.981 22.115 55.116 28.104 52.983 17.968 93.52 5.989 145.08-9.214l3.201-.922c45.16-12.9 72.895-17.046 102.409-21.653 18.135-2.765 36.982-5.529 60.095-10.597 2.489-.46 4.978-1.382 7.823-1.843l1.067-.46c24.18-5.99 49.426-22.115 67.208-42.847 9.6-11.518 15.64-22.114 21.33-32.711 4.98-9.214 9.6-17.968 16.36-26.261 5.33-6.45 11.02-12.439 17.78-17.046 13.16-9.675 29.51-15.665 45.16-21.654 9.6-3.686 19.56-6.911 28.45-11.518 17.42-8.754 32.71-16.586 46.22-23.957l6.05-3.225c25.96-14.282 52.98-28.565 76.81-48.836z" opacity=".7"/><path d="m1264.67 284.966c-8.18 11.518-16.01 20.732-23.83 28.564-25.25 24.879-55.83 40.083-85.7 54.365l-3.55 1.843c-13.16 6.45-28.09 13.361-45.52 20.732-8.53 3.686-17.78 6.911-27.38 10.136-15.29 5.068-31.29 10.135-44.8 18.889-6.76 4.147-12.8 9.214-18.85 14.743-7.82 7.372-13.87 15.204-19.911 23.497-6.401 8.753-12.801 17.507-22.046 26.26-17.78 17.508-41.604 31.79-64.718 39.161l-2.844.922c-1.778.461-3.912 1.382-5.69 1.843-16.712 5.068-30.936 9.675-44.448 14.282-32.715 10.596-61.162 19.811-110.588 29.486-49.783 9.675-91.031 10.596-142.236-12.9-14.935-6.911-29.869-16.586-45.871-27.183-13.157-8.293-26.313-17.046-40.181-24.418-25.247-13.36-49.783-18.889-75.385-17.507-39.826 2.304-60.095 23.957-81.43 46.533-12.801 13.36-25.958 27.642-43.738 38.239-4.267 2.304-8.178 4.146-12.445 5.989-18.491 6.45-36.981 7.372-53.338 8.293-16.358.922-31.648 1.382-44.094 7.372-10.667 5.068-20.268 10.596-30.58 16.585-6.401 3.686-12.801 7.372-19.557 10.597h5.333c4.979-2.764 9.957-5.529 14.935-8.293 10.312-5.529 19.913-11.057 30.581-16.586 12.09-5.989 27.38-6.911 43.382-7.371 16.357-.922 35.203-1.382 54.049-8.293 4.267-1.382 8.534-3.686 12.446-5.989 18.135-10.597 31.291-24.879 44.093-38.24 21.335-22.575 41.248-43.768 80.363-46.072 25.246-1.382 49.427 4.147 74.318 17.047 13.512 6.911 27.024 15.664 39.826 24.418 16.001 10.596 30.936 20.271 46.226 27.182 51.561 23.958 93.164 22.575 143.303 12.9 49.426-9.675 77.873-18.889 110.588-29.486 13.512-4.607 27.736-9.214 44.448-13.821 1.778-.461 3.912-1.382 5.69-1.843l2.844-.921c23.469-7.372 47.649-21.654 65.784-39.622 9.246-9.214 16.002-17.968 22.402-26.722 6.049-8.292 11.739-16.125 19.559-23.496 6.04-5.529 11.73-10.136 18.49-14.282 13.16-8.293 29.16-13.361 44.09-18.429 9.25-3.225 18.85-5.989 27.74-10.136 17.42-7.371 32-14.282 45.51-20.732l3.56-1.843c29.87-14.282 60.81-29.486 86.05-54.825 7.47-7.372 14.94-16.125 22.76-26.722v-4.146z" opacity=".7"/><path d="m1264.67 224.612c-2.85 3.225-5.69 7.372-8.89 11.518-4.63 6.911-9.25 14.743-13.87 23.036-2.85 5.068-5.69 10.136-8.54 14.743-8.18 13.821-16 24.418-24.53 33.632-24.18 25.8-55.12 38.7-84.63 51.6l-1.42.461c-12.81 5.529-27.38 11.057-44.45 17.507-8.54 3.225-17.43 5.529-26.67 8.293-14.94 4.147-30.23 8.754-43.74 15.665-6.4 3.225-12.801 7.371-19.202 11.978-9.245 6.45-16.712 13.822-24.18 21.193-6.756 6.45-13.512 12.9-22.402 19.811-18.135 14.282-40.892 27.182-63.65 35.936-1.422.461-2.845.921-4.267 1.843-1.423.461-2.489.921-3.912 1.382-17.779 6.911-32.358 14.282-46.582 21.654-28.802 14.743-56.183 29.025-100.987 32.711-48.716 4.146-88.542-6.45-137.613-35.936-11.734-6.911-23.469-15.204-35.559-24.418-14.934-10.597-29.869-21.654-45.515-30.408-24.536-13.36-48.005-19.81-72.54-18.428-40.182 1.843-58.317 24.878-77.519 49.296-11.023 14.283-22.757 29.026-39.47 40.543-3.911 2.765-7.823 4.608-11.734 6.45-16.002 6.451-31.648 7.833-46.938 9.215-17.424 1.382-33.781 2.764-46.582 11.978-9.601 6.911-18.491 13.822-27.736 21.193-18.135 14.283-36.626 29.026-62.584 42.847h5.334c23.825-12.9 41.248-26.721 58.317-40.543 9.245-7.371 18.135-14.282 27.736-21.193 12.445-8.754 28.802-10.136 45.871-11.518 15.645-1.382 31.647-2.764 47.648-9.214 3.912-1.843 8.179-3.686 12.09-6.45 17.069-11.518 28.448-26.261 39.826-41.004 18.847-23.957 36.626-46.993 76.096-48.375 23.825-.922 47.294 5.068 71.474 18.428 15.646 8.754 30.936 19.811 45.515 30.408 12.446 8.753 24.18 17.507 35.915 24.418 49.426 29.486 89.608 40.082 138.679 35.936 45.16-3.686 72.54-17.968 101.699-32.711 14.223-7.372 29.158-14.743 46.582-21.654 1.422-.461 2.489-.921 3.911-1.382 1.423-.461 2.845-.922 4.267-1.843 23.114-8.754 45.871-21.654 64.362-36.397 8.534-6.91 15.646-13.36 22.402-19.81 6.4-6.911 13.512-14.283 22.758-20.733 6.4-4.607 12.45-8.293 18.85-11.518 13.51-6.91 28.44-11.057 43.38-15.664 9.6-2.764 18.49-5.068 27.02-8.293 17.07-6.45 31.65-11.978 44.45-17.507l1.42-.461c29.87-12.9 61.16-26.261 85.34-52.061 8.54-9.214 16.72-20.271 24.9-34.093 2.84-5.068 5.69-10.136 8.53-14.743 4.62-8.293 9.25-16.125 13.87-23.036 2.49-3.685 4.98-6.91 7.11-9.675v-4.607z" opacity=".7"/><path d="m1264.67 160.572c-1.78 1.843-3.56 3.686-4.98 5.99-9.25 10.136-17.07 19.35-24.54 30.407-6.04 9.214-11.38 18.889-17.07 30.407-2.49 5.529-5.33 11.518-7.82 17.508-3.56 7.832-6.76 15.664-10.67 23.035-7.11 13.822-14.22 25.34-22.4 34.554-23.11 26.261-53.69 37.779-83.56 48.836-12.8 4.607-27.03 9.675-43.38 14.282-8.54 2.765-17.43 4.608-26.67 6.911-14.23 3.225-28.807 6.911-42.319 12.44-6.401 2.764-12.801 5.528-19.557 9.214-11.735 5.989-21.691 12.9-32.359 19.811-6.045 4.146-12.09 7.832-18.846 12.439-16.713 10.597-37.337 21.193-62.584 32.711-2.133.921-3.911 1.843-6.045 2.764l-1.778.922c-16.712 8.293-30.936 18.428-44.448 28.103-27.381 19.811-53.339 38.701-96.009 37.318-48.36-1.382-86.764-23.496-132.99-58.511-7.468-5.528-14.935-11.978-23.114-18.428-17.424-13.822-35.203-28.565-53.694-39.622-23.824-13.821-46.582-20.271-69.695-19.811-40.893 1.382-56.539 25.8-73.251 51.601-9.601 15.203-19.558 30.868-35.204 42.846-3.555 2.764-7.111 5.068-11.023 6.911-13.512 6.45-27.736 8.293-41.604 10.136-18.135 2.303-35.203 4.607-48.36 16.586-9.245 8.753-17.779 17.967-26.669 27.643-18.491 19.81-37.337 40.543-65.784 56.207-29.8693 16.586-62.5835 19.35-102.4094 8.754-13.51241-3.686-25.24679-10.597-36.6256-17.047-20.9798-12.439-40.8928-23.957-70.0511-14.282-8.5341 2.764-16.7129 7.832-26.3139 15.664-1.778 1.382-3.555 2.764-5.333 4.607-8.89 7.372-17.424 14.743-26.67 19.35h5.334c7.468-4.607 14.935-10.596 22.402-17.046 1.778-1.382 3.556-2.764 5.334-4.607 9.601-7.832 17.424-12.44 25.6026-15.665 28.4471-9.675 47.6489 1.843 68.6286 13.822 11.3789 6.911 23.46888 13.821 36.9813 17.507 11.0232 2.764 21.3352 4.607 31.2917 5.529h25.9581c16.357-1.843 31.6477-6.45 46.5817-14.743 28.447-15.665 47.649-36.397 66.14-56.668 8.89-9.675 17.424-18.89 26.669-27.183 12.446-11.518 29.514-13.821 47.293-16.125 13.868-1.843 28.447-3.685 41.96-10.135 3.911-1.843 7.823-4.147 11.379-6.911 16.001-12.44 25.958-28.104 35.914-43.308 16.357-25.339 31.647-49.757 71.829-50.678 22.758-.922 45.16 5.528 68.629 19.35 18.49 11.057 36.27 25.339 53.694 39.161 7.822 6.45 15.645 12.439 23.113 18.428 46.582 35.475 85.341 57.59 134.057 58.972 43.026 1.382 69.34-17.507 97.075-37.318 13.513-9.675 27.736-19.811 44.094-28.104l1.777-.921c2.134-.922 3.912-1.843 6.045-2.764 25.247-11.518 45.871-22.576 62.94-33.172 6.756-4.147 12.801-8.293 18.846-12.439 10.668-6.911 20.624-13.822 32.003-19.811 7.112-3.686 13.157-6.45 19.557-9.215 13.157-5.528 27.738-8.753 41.958-11.978 9.25-2.304 18.14-4.607 26.67-6.911 16.36-5.068 30.58-9.675 43.74-14.282 29.87-11.057 61.16-22.575 84.27-49.297 8.18-9.214 15.65-20.732 22.76-35.014 3.91-7.833 7.47-15.665 10.67-23.036 2.84-5.99 5.33-11.979 7.82-17.507 5.69-11.518 11.02-21.193 17.07-29.947 7.11-11.057 14.93-19.811 24.18-30.407 1.07-1.382 2.49-2.765 3.56-4.147z" opacity=".7"/><path d="m-380.288 503.345c4.622 3.225 9.601 5.99 14.934 7.832 5.69 1.843 11.735 3.225 18.136 4.147 8.889.921 17.779.921 26.669.461 11.734 0 23.824-.461 35.559 1.842 28.091 5.99 52.271 25.34 78.585 48.376l2.133 1.843c12.09 10.596 23.825 20.732 37.693 27.182 27.38 12.9 44.448-3.225 62.583-20.732 2.845-2.765 5.6897-5.529 8.89-8.293 8.8897-7.832 16.357-12.9 24.5356-15.665 27.0247-9.214 44.8041 4.608 64.00594 18.89 11.02325 8.293 22.75766 17.046 36.62556 21.654 39.4704 13.821 71.1179 11.517 99.5649-7.372 25.247-16.586 42.671-41.004 59.028-64.5 8.178-11.518 16.712-23.497 25.602-34.093 12.446-14.743 29.514-17.508 48.005-20.733 12.445-2.303 25.602-4.607 37.336-11.057 3.912-1.843 7.468-4.607 10.668-7.371 14.935-12.9 23.469-29.947 32.003-46.072 13.868-26.722 27.025-52.061 67.206-52.982 21.691-.461 43.027 6.45 65.784 20.271 23.469 14.743 45.16 35.015 65.784 54.825l6.045 5.529c40.537 38.24 78.941 74.176 129.435 82.008 41.248 6.45 66.139-17.508 92.808-42.386 12.801-11.979 25.958-24.879 41.604-34.093 2.489-1.382 4.978-2.765 7.468-4.147 19.201-10.596 40.537-20.271 61.161-29.946 18.846-8.754 36.27-16.586 55.472-23.036 7.467-2.304 13.868-4.607 20.268-6.45 13.157-3.686 27.025-6.45 40.182-8.754 9.245-1.843 18.135-3.686 27.025-5.528 17.07-4.147 30.58-7.372 42.67-11.518 26.31-8.293 59.38-17.968 81.79-45.611 7.82-9.675 14.22-21.193 20.26-35.936 4.63-11.057 8.18-22.575 11.74-33.632 1.07-3.225 2.13-6.451 3.2-9.676 4.62-13.821 8.89-25.339 13.87-36.396 5.69-12.9 12.44-24.418 21.33-36.397 14.58-20.271 30.58-36.396 47.65-47.9143v-3.225c-17.78 11.9783-34.14 28.1033-49.43 49.2963-8.89 12.44-15.64 23.958-21.69 36.858-4.97 11.057-9.24 22.575-13.86 36.857-1.07 3.225-2.14 6.45-3.2 9.675-3.56 11.057-7.47 22.575-11.74 33.632-5.69 14.283-12.45 25.801-19.91 35.015-22.05 27.182-54.41 36.857-80.72 45.15-12.09 3.686-25.6 7.372-42.67 11.057-8.54 1.843-17.43 3.686-27.026 5.529-13.157 2.764-27.025 5.068-40.182 8.754-6.401 1.842-12.801 3.685-20.269 6.45-19.557 6.45-36.625 14.282-55.827 23.035-20.624 9.675-42.315 19.35-61.517 29.947-2.489 1.382-4.978 2.764-7.467 4.146-15.646 9.215-28.803 22.115-41.96 34.093-26.313 24.879-50.849 48.376-91.386 41.926-49.782-7.833-87.83-43.768-128.368-81.547l-6.045-5.529c-20.979-19.811-42.67-40.543-66.139-55.286-23.113-14.282-44.804-21.193-66.851-20.732-41.248.461-54.76 26.721-68.984 53.904-8.179 16.125-16.713 32.711-31.292 45.15-3.2 2.764-6.756 5.068-10.312 7.371-11.734 5.99-24.536 8.293-36.981 10.597-18.491 3.225-35.915 6.45-49.071 21.654-9.246 10.596-17.78 22.575-25.958 34.553-16.713 23.497-33.781 47.915-58.672 64.04-28.092 18.429-59.3838 20.732-98.143 6.911-13.8679-4.607-25.24682-13.361-36.27007-21.654-19.55743-14.743-37.69243-28.104-65.42833-18.889-8.1785 2.764-16.0015 7.832-25.2468 15.664-2.8448 2.764-6.0448 5.529-8.8898 8.293-17.779 17.046-34.492 32.711-60.806 20.271-13.512-6.45-24.891-16.585-37.336-27.182l-1.778-1.843c-26.67-23.036-50.85-42.846-79.297-48.836-11.734-2.303-24.18-2.303-35.914-1.843-8.89 0-17.78.461-26.314-.46-6.4-.461-12.445-1.843-17.779-3.686-5.69-1.843-10.668-5.068-15.29-8.754v5.068z" opacity=".7"/><path d="m-380.288 465.567c9.956 17.507 21.335 31.789 38.048 36.857 14.579 4.607 29.869 3.225 44.448 1.843 11.024-.922 22.758-2.304 33.781-.461 24.536 3.225 46.938 19.35 68.629 34.554 16.713 11.518 33.781 23.496 51.916 30.407 27.025 10.136 41.959-6.45 57.6054-23.957 9.9564-11.057 20.2685-22.114 33.7809-26.722 25.6024-8.293 41.9594 6.911 59.73885 23.497 10.66765 10.136 22.04655 20.271 36.27005 26.722 38.7592 17.046 68.2728 15.203 95.6538-5.529 22.046-17.047 37.336-44.69 51.916-71.411 7.823-14.282 16.001-29.025 24.891-41.925 12.09-17.508 30.225-21.654 48.004-25.801 15.291-3.685 31.292-6.91 43.382-19.35 13.868-13.821 20.98-31.789 28.092-48.836 12.09-29.485 22.046-54.825 62.583-54.825h.356c49.427 0 93.164 42.847 129.79 85.233 2.844 3.225 5.333 6.45 8.178 9.675 34.848 40.543 70.762 82.468 116.278 95.829 39.826 11.518 63.65-17.507 88.897-47.915 12.09-14.282 24.18-29.486 38.403-39.621 47.294-35.475 117.345-45.611 179.217-54.826 27.38-4.146 52.98-7.832 76.1-13.36 31.64-7.833 59.74-16.125 78.94-41.926 16.35-22.114 22.75-52.061 29.16-81.546 3.2-14.743 6.4-29.947 10.66-43.769 23.83-74.175 64.01-94.9072 110.24-100.8965v-2.7643c-46.94 5.9893-87.84 26.7215-112.02 102.7398-4.62 14.282-7.82 29.486-11.02 44.229-6.04 29.025-12.44 58.972-28.45 80.165-18.84 25.339-46.58 33.632-77.87 41.464-22.76 5.529-48.36 9.214-75.74 13.361-61.872 9.214-132.279 19.35-179.572 53.443-14.579 10.596-27.025 25.339-38.759 40.082-24.892 29.947-48.36 58.051-86.764 46.993-44.804-12.9-80.719-54.825-115.566-94.907-2.845-3.225-5.334-6.45-8.179-9.675-36.625-42.386-81.074-85.694-131.212-85.694h-.356c-41.604 0-52.627 27.643-64.361 56.208-6.756 17.046-13.868 34.554-27.381 47.914-11.734 11.979-27.38 15.204-42.315 18.89-17.779 4.146-36.625 8.293-49.071 26.261-9.245 13.36-17.424 28.103-25.247 42.386-14.579 26.721-29.514 54.364-51.56 70.95-26.669 20.271-55.8274 22.114-93.8754 5.528-13.868-5.989-24.8912-16.125-35.55889-26.26-18.13503-16.586-34.84781-32.251-61.51691-23.958-14.2236 4.608-24.5356 16.125-34.8477 27.183-15.2901 17.046-29.8691 33.171-55.8271 23.496-18.135-6.45-34.848-18.428-51.561-30.407-21.691-15.204-44.448-31.329-69.339-34.554-11.379-1.382-22.758-.461-34.137.461-14.579 1.382-29.514 2.764-43.737-1.843-17.069-5.529-28.447-20.272-38.404-39.161v5.529z" opacity=".7"/><path d="m-380.289 425.023c3.556 5.068 7.468 10.136 12.09 14.743 8.89 9.215 17.78 15.204 27.736 18.89 14.579 5.067 29.514 5.989 44.093 6.45 11.379.46 22.047.921 32.715 3.685 22.757 5.529 42.315 21.193 63.294 37.779 16.713 13.361 34.137 27.182 53.339 35.015 27.736 11.518 44.093-5.068 61.5164-22.576 9.6009-9.675 19.5574-19.81 32.003-24.878 4.9782-2.304 9.601-3.225 13.5124-4.147 16.0015-2.303 27.0247 5.99 39.825904 15.204 2.844706 1.843 5.689416 4.146 8.889716 6.45 7.82298 5.529 17.42388 11.057 28.44708 15.204 22.7577 7.832 40.8928 9.675 57.2498 6.45 13.1567-2.765 25.6027-9.675 37.3367-20.272 9.245-8.293 17.78-19.35 26.669-35.014 5.334-9.215 10.668-19.811 16.002-29.486 9.601-18.429 19.202-37.779 31.292-52.983 13.512-17.507 32.714-19.35 50.849-21.193 14.579-1.382 28.091-2.764 39.115-11.057 13.512-10.136 20.979-24.418 28.091-38.239 12.446-23.957 24.536-46.072 64.362-49.297 3.911-.461 8.178-.461 12.09-.461 46.582.922 87.119 36.858 120.9 71.411 4.267 4.608 8.89 9.215 13.157 13.822l6.756 7.371c30.581 32.251 65.428 68.647 108.81 80.165 38.048 10.136 61.161-16.586 85.697-44.229 11.734-12.9 23.469-26.721 36.981-35.936 46.582-31.789 114.5-41.925 174.239-50.678 24.891-3.686 48.715-6.911 70.051-11.979 24.89-5.529 55.47-12.439 76.1-37.779 1.06-1.382 2.13-2.764 3.2-4.607 13.86-19.35 20.26-44.689 26.67-69.107 3.2-12.901 6.75-26.261 11.37-38.701 11.38-31.789 26.67-54.364 46.94-69.1072 24.54-18.4286 53.34-23.0358 84.28-24.8787v-2.7643c-30.23 2.3036-60.45 6.9108-85.35 25.3394-20.62 15.2037-36.27 38.2398-47.64 70.4898-4.63 12.439-8.18 26.261-11.38 39.161-6.4 24.418-12.8 49.297-26.32 68.186-1.06 1.382-2.13 2.764-3.2 4.146-19.91 24.418-50.49 31.329-75.03 36.858-20.976 4.607-44.8 8.293-69.691 11.978-60.095 8.754-128.368 18.429-174.95 50.679-13.868 9.675-25.958 23.036-37.692 36.397-24.18 27.643-47.294 53.443-83.919 43.768-42.671-11.057-77.519-47.454-107.744-79.704l-6.756-7.372c-4.267-4.607-8.89-9.214-13.157-13.821-34.136-35.015-75.029-70.95-121.967-72.333-4.267 0-8.178 0-12.445.461-40.893 3.225-53.694 27.182-65.784 50.218-7.112 13.361-14.579 27.643-27.381 37.318-10.667 8.293-24.18 9.675-38.048 11.057-18.846 1.843-38.048 3.686-52.271 22.115-12.09 15.664-22.047 35.014-31.648 53.443-4.978 10.136-10.312 20.272-15.645 29.486-8.89 15.204-17.069 25.8-26.314 34.093-11.379 10.596-23.469 17.046-36.2701 19.811-15.6459 3.225-33.4253 1.382-56.1829-6.45-11.0233-3.686-20.6243-9.675-28.0916-14.743-2.84474-1.843-6.04502-4.147-8.53414-5.99-13.15676-9.675-24.53566-17.968-40.89266-15.664-4.2671.461-8.8898 1.843-14.2236 4.146-12.4456 5.068-22.7577 15.204-32.3586 24.879-17.0684 17.047-33.0694 33.172-59.7384 22.115-18.847-7.833-35.915-21.654-52.628-35.015-20.268-16.125-40.892-32.711-64.006-38.239-10.667-2.304-22.046-3.225-32.714-3.686-14.223-.461-29.158-1.382-43.382-6.45-9.601-3.225-18.49-9.215-27.024-18.429-4.979-5.068-9.246-10.596-13.157-16.586v5.068z" opacity=".7"/><path d="m-380.288 384.942c3.911 4.146 7.823 8.293 12.801 11.979 9.957 7.832 18.846 13.36 28.092 17.507 14.223 5.989 28.447 8.293 42.315 11.057 11.378 2.304 22.046 4.147 32.358 7.832 20.624 7.372 38.759 23.497 57.961 40.543 17.068 15.204 34.492 31.329 54.405 40.543 28.803 13.361 47.293-3.685 66.8509-21.653 8.8897-8.293 18.135-16.586 28.8027-22.115 5.3338-2.764 9.2453-4.607 13.1568-5.528 14.5791-4.607 23.4688 0 35.20326 5.989 2.84471 1.382 5.68942 2.764 8.889719 4.147 7.822951 3.685 17.423821 7.832 28.447121 10.135 17.7794 4.147 38.4036 7.833 57.6054 1.843 12.8012-4.146 24.1801-11.978 35.5591-23.957 8.178-9.214 16.001-20.732 24.18-37.318 3.556-6.911 7.112-14.282 10.667-22.115 10.668-22.575 21.336-45.61 35.915-62.196 15.29-17.508 35.203-16.586 54.761-16.125 12.445.46 24.535.921 34.136-3.686 13.157-6.45 20.98-17.047 29.158-28.565 13.157-17.967 26.67-36.857 65.073-42.386 3.912-.46 8.179-.921 12.09-1.382 48.36-4.146 89.608 27.643 123.745 58.972 5.689 5.068 11.023 10.136 16.713 15.664l7.111 6.911c33.07 31.79 67.207 64.501 109.166 74.636 36.27 8.754 58.672-15.203 82.852-40.543 11.379-11.978 22.758-23.957 35.915-32.711 45.871-29.485 111.655-38.7 169.971-46.993 22.758-3.225 44.093-6.45 63.295-10.135 23.473-5.068 52.983-11.058 72.893-33.172 1.07-1.382 2.14-2.764 3.2-3.686 13.87-17.968 20.98-40.543 28.09-62.657 3.56-11.518 7.12-23.036 11.74-33.633 11.73-28.103 27.02-48.3749 46.23-61.7357 27.38-18.8893 61.51-22.1143 94.23-24.8786 3.91-.4607 7.46-.9215 11.38-.9215v-2.7643c-3.92.4607-7.83.9214-11.38.9214-33.07 3.2251-67.21 5.9894-94.95 25.3395-19.91 13.3607-35.2 34.0932-47.29 62.6572-4.62 11.057-8.18 22.575-11.73 34.093-6.76 21.654-13.87 44.229-27.38 61.276-1.07 1.382-2.14 2.764-3.2 3.685-19.56 21.654-48.72 27.643-71.833 32.711-19.202 4.147-40.537 6.911-63.295 10.136-58.316 8.293-124.811 17.507-171.038 47.915-13.157 8.753-24.891 21.193-36.27 33.171-23.469 24.879-45.871 48.375-81.074 40.083-41.249-9.676-75.385-42.386-108.099-74.176l-7.112-6.911c-5.689-5.528-11.379-10.596-16.713-15.664-34.492-31.789-76.451-63.579-125.167-59.433-4.267.461-8.178.922-12.446 1.383-39.114 5.528-53.693 25.8-66.495 43.307-8.178 11.057-15.646 21.654-28.447 28.104-9.245 4.607-20.979 4.146-33.069 3.685-18.847-.46-40.182-1.382-56.183 16.586-14.935 17.047-25.958 40.083-36.626 62.658-3.556 7.832-7.112 14.743-10.668 21.653-8.178 16.126-15.646 27.643-23.824 36.858-10.668 11.978-22.0467 19.35-34.4923 23.496-18.4906 5.529-39.1148 2.304-56.5386-1.843-11.0233-2.764-20.26855-6.45-28.0915-10.135-3.2003-1.382-6.0451-2.765-8.53422-4.147-11.37888-5.989-21.33528-10.596-36.62558-5.989-3.9115 1.382-7.823 3.225-13.1568 5.529-10.6677 5.528-19.9129 14.282-29.1582 22.575-19.2018 17.507-36.9818 34.093-64.7168 21.193-19.558-9.215-36.982-24.879-54.05-40.083-19.202-17.507-37.692-33.632-58.316-41.004-10.313-3.685-20.98-5.528-32.359-7.832-13.868-2.764-28.092-5.528-41.96-11.057-9.245-3.686-17.779-9.214-27.735-17.046-5.334-4.147-9.957-8.754-13.868-13.361v2.764z" opacity=".7"/><path d="m-380.288 345.78c3.911 2.764 8.534 5.529 13.867 9.214l3.201 1.843c7.467 4.608 16.001 9.675 25.602 13.822 12.801 5.989 25.603 10.136 38.404 14.282 12.445 4.147 24.18 8.293 34.848 13.361 18.846 8.754 35.203 25.8 52.627 43.307 17.068 17.508 34.847 35.475 55.471 46.072 30.226 15.664 52.272-3.225 73.2518-21.193 7.8229-6.45 15.6459-13.361 23.8245-18.429 4.267-2.764 8.5341-5.528 12.4456-7.371 13.5123-6.911 21.3352-5.068 32.7141-2.764 2.1335.46 4.62263.921 7.11175 1.842 2.13353.461 3.91154.922 6.400664 1.383 6.400596 1.382 13.867886 3.225 22.046486 4.146 19.5573 2.764 39.826 4.607 57.961-2.764 12.4456-5.068 23.4691-13.822 33.7811-27.643 9.601-12.44 16.712-27.643 21.691-39.622 2.133-4.607 4.267-9.675 6.045-14.743 11.023-26.261 22.402-53.443 39.826-70.95 17.424-17.508 39.826-13.361 59.383-9.675 10.312 1.843 19.913 3.685 28.091 2.303 14.224-2.764 22.403-10.596 32.359-19.811 13.512-12.439 28.803-26.721 64.006-34.553 3.911-.922 8.179-1.843 12.09-2.304 50.494-9.675 94.231 19.35 126.945 46.072 6.756 5.528 13.157 11.057 20.269 17.046l1.778 1.382c3.2 2.765 6.045 5.529 9.245 7.833 32.359 28.564 65.784 58.05 106.321 66.804 34.137 7.371 56.539-14.283 80.008-36.858 10.667-10.596 22.046-21.653 34.492-29.025 45.515-28.104 109.165-36.857 165.704-44.689 20.269-2.765 39.47-5.529 57.25-8.754 22.398-4.146 50.498-9.675 70.048-29.025 1.07-.922 2.14-2.304 3.2-3.225 13.52-15.204 21.34-35.475 28.81-54.825 3.55-9.676 7.46-19.351 12.09-29.026 12.09-24.418 27.02-42.3856 45.51-53.9035 24.89-15.6644 54.76-19.3501 83.92-23.0359 14.58-1.8428 29.16-3.6857 43.38-6.9107v-2.7643c-14.22 3.225-29.16 5.0679-43.38 7.3715-29.16 3.6857-59.38 7.3714-84.63 23.4965-19.2 11.9786-34.49 29.9464-46.58 54.8254-4.62 9.214-8.54 19.35-12.09 29.025-7.83 19.811-14.94 39.161-28.45 53.904-1.07.921-2.13 2.304-3.2 3.225-19.2 18.889-46.58 23.957-68.984 28.564-17.779 3.225-36.981 5.99-57.25 8.754-56.538 7.832-120.544 16.586-166.415 45.15-12.801 7.832-23.825 18.89-34.848 29.486-23.113 22.575-44.804 43.768-78.229 36.397-39.826-8.754-71.829-36.858-105.255-66.343-3.2-2.765-6.045-5.529-9.245-7.833l-1.778-1.382c-7.112-5.989-13.512-11.978-20.268-17.046-32.715-26.722-77.163-56.208-128.368-46.533-3.911.922-8.179 1.382-12.09 2.304-35.914 7.832-51.916 23.036-65.073 35.014-9.601 8.754-17.779 16.586-31.292 19.35-7.467 1.383-17.068-.46-27.38-2.303-19.913-3.686-42.671-8.293-61.161 10.136-17.78 17.968-29.158 45.15-40.182 71.871-2.133 5.068-4.267 9.675-6.045 14.743-4.978 11.979-12.09 26.722-21.335 39.161-9.956 13.361-20.9797 22.115-32.7141 26.722-17.7795 7.371-37.6924 5.068-56.8942 2.303-8.1786-.921-15.64597-2.764-22.046563-4.146-2.133537-.461-4.267017-.921-6.400557-1.382-2.48912-.461-4.97828-.922-7.11178-1.843-11.3788-2.764-19.5574-4.607-33.7809 2.764-3.9115 1.843-8.1786 4.607-12.4456 7.372-8.5342 5.068-16.3572 11.978-24.1801 18.889-21.6912 18.429-41.9592 36.397-71.4732 21.193-20.269-10.596-38.048-28.564-55.116-45.611-17.424-17.968-34.137-34.554-52.983-43.768-10.668-5.068-22.402-9.214-34.848-13.361-12.445-4.146-25.247-8.753-38.048-14.282-9.601-4.146-17.779-9.214-25.247-13.822l-3.2-1.842c-5.689-3.686-10.668-6.45-14.579-9.675v2.303z" opacity=".7"/><path d="m-380.289 306.619c4.267 1.382 8.89 2.764 14.935 5.529 6.045 2.303 12.446 5.989 19.202 9.214 3.2 1.843 6.756 3.686 10.312 5.068 6.756 3.686 13.868 6.911 20.624 10.136 18.491 9.214 36.27 17.507 50.494 26.26 16.712 10.597 31.647 27.183 47.293 45.151 17.424 19.811 35.203 40.082 56.539 52.521 32.714 18.429 57.961-2.764 82.4962-23.035 5.3338-4.608 11.0233-9.215 16.7127-13.361 2.8447-1.843 5.3338-4.147 7.4674-5.529 1.4223-.921 2.8446-2.303 4.267-3.225 14.5791-11.057 20.2686-11.057 34.1365-11.978h1.0669c5.33378-.461 11.73436 0 19.20173.46 2.84471 0 6.04507.461 9.24537.461h.7111c19.5573.921 40.1815 1.843 57.6054-7.371 12.09-5.99 22.0465-16.126 32.0027-31.329 8.179-12.9 14.224-27.643 19.558-41.925l2.489-6.911c10.667-29.025 22.402-61.736 42.67-80.165 20.269-17.968 45.16-8.754 65.073-1.382 7.823 2.764 14.935 5.529 20.98 6.45 17.068 1.843 26.313-3.686 40.537-11.979 12.801-7.832 28.803-17.507 57.961-25.8 3.912-1.382 8.179-2.303 12.09-3.686 40.893-11.978 81.074-1.842 129.79 33.172 7.112 5.068 14.224 10.597 22.758 17.507 4.978 4.147 9.956 7.833 14.579 11.979 33.07 27.182 64.717 52.522 103.832 59.893 32.358 6.45 54.049-12.9 76.807-33.171 10.312-9.215 21.335-18.89 33.07-25.801 45.515-26.26 107.743-35.014 163.215-42.385 17.424-2.304 33.781-4.608 49.427-7.372 22.402-3.686 48.001-8.293 66.851-24.418 1.07-.921 2.13-1.843 3.2-2.764 13.51-13.361 22.05-30.408 30.22-47.454 3.92-7.832 7.83-16.125 12.09-23.957 12.09-21.1933 27.03-36.397 45.16-46.5328 22.05-12.4393 48.01-16.5858 73.26-20.7322 23.11-3.6857 46.58-7.8322 67.56-17.9679 2.84-1.3822 5.33-2.7643 8.18-4.6072v-3.225c-2.85 1.8429-5.69 3.6857-8.89 5.0678-20.63 10.1358-44.1 13.8216-66.85 17.5073-25.25 4.1464-51.21 8.2929-73.61 21.1929-18.49 10.5965-33.43 25.8002-45.87 47.4541-4.62 7.832-8.54 16.125-12.45 23.957-8.53 17.507-16.35 33.632-29.51 46.532-1.07.922-2.13 1.843-3.2 2.765-18.49 15.664-43.739 20.271-66.141 23.957-15.291 2.764-32.003 5.068-49.427 7.371-55.472 7.372-118.056 15.665-163.571 42.386-12.09 6.911-22.758 16.586-33.425 25.801-22.402 20.271-43.738 39.16-75.385 32.71-38.759-7.371-70.051-32.71-103.121-59.893-4.978-4.146-9.601-7.832-14.579-11.978-8.534-6.911-15.646-12.44-22.758-17.508-49.427-35.475-89.964-45.611-131.212-33.632-3.911 1.382-8.178 2.304-12.09 3.686-29.158 8.293-45.515 17.968-58.317 26.261-13.868 8.293-23.113 13.821-39.47 11.978-5.689-.46-12.801-3.225-20.624-5.989-20.269-7.372-45.871-17.047-66.851 1.843-20.624 18.428-32.714 51.6-43.382 81.086l-2.489 6.911c-5.333 14.282-11.023 29.025-19.202 41.464-9.6004 14.743-19.2013 24.418-30.9357 30.408-17.0683 8.753-37.3368 7.832-56.8942 6.91h-.7112c-3.2003 0-6.04506-.46-9.24536-.46-7.46737-.461-13.86794-.922-19.20174-.461h-1.0668c-13.8679.921-20.2685.921-35.2032 12.439-1.4224.922-2.8448 2.304-4.2671 3.225-2.1336 1.843-4.6227 3.686-7.4674 5.529-5.6894 4.146-11.3788 8.753-16.7126 13.361-23.8247 19.81-48.7157 40.543-80.3627 22.575-21.336-11.979-39.115-32.25-56.183-52.061-15.646-17.968-30.581-35.015-48.005-45.611-14.579-8.754-32.003-17.508-50.494-26.722-6.756-3.225-13.868-6.45-20.624-10.136-3.556-1.843-6.756-3.685-10.312-5.068-6.756-3.685-13.512-6.91-19.202-9.214-6.4-2.764-11.023-4.146-15.29-5.528v4.146z" opacity=".7"/><path d="m-380.289 268.379c4.267-.46 9.246-.46 15.646.922 9.246 2.303 19.558 7.371 29.87 13.361 23.469 12.9 49.427 29.946 69.34 45.611 14.934 11.978 28.447 28.564 42.315 46.532 17.423 22.114 35.203 45.15 57.605 58.972 36.981 23.036 68.273-4.607 96.0089-28.565l4.9783-4.146c4.2671-3.686 7.8229-7.372 11.0232-10.597l2.4892-2.764c11.7344-11.979 15.6459-16.125 28.4471-20.732 7.1117-2.304 17.0682-3.225 28.09145-3.686l5.68945-.461c18.135-.921 37.3368-1.843 52.9827-11.518 11.7344-6.91 21.3353-18.428 30.225-35.014 7.4677-13.822 12.8017-29.947 17.0687-44.229 9.601-31.329 21.691-70.029 44.804-88.458 23.469-18.428 51.205-2.303 71.473 10.136 4.623 2.765 9.245 5.529 13.157 7.372 22.758 11.057 34.136 5.989 61.161-5.529 10.312-4.607 22.758-9.675 39.471-15.664 4.267-1.382 8.178-3.225 12.09-4.607 42.315-17.047 83.207-11.058 132.634 20.271 7.468 4.607 14.935 10.136 23.825 16.125 6.756 5.068 13.512 9.675 19.913 14.743 32.714 24.879 63.65 47.915 102.054 54.365 30.58 5.068 51.916-11.979 74.318-29.486 9.956-7.832 20.268-16.125 31.647-22.114 45.871-24.879 107.743-32.711 162.149-39.622 13.868-1.843 27.024-3.686 39.47-5.529 21.335-3.225 45.871-6.91 64.003-20.271 1.07-.922 2.14-1.382 3.2-2.304 13.87-11.057 22.76-25.8 31.65-40.082 3.91-6.45 7.82-12.9 12.09-18.89 12.45-17.5068 27.03-30.4069 44.45-38.6998 18.85-9.2143 40.89-13.8215 61.87-17.968 24.18-4.6071 49.43-9.675 70.41-22.5751 16-9.675 28.09-25.80014 38.05-45.611v-5.0678c-10.32 20.73225-22.41 37.7787-38.76 47.9145-20.63 12.4394-45.52 17.5073-69.7 22.1144-21.33 4.1465-43.38 8.7537-62.23 17.968-17.78 8.7536-32.71 21.6537-45.16 39.6218-4.26 6.45-8.53 12.9-12.44 18.889-9.25 14.743-17.78 28.565-30.94 39.161-1.06.922-2.13 1.382-2.84 2.304-17.782 12.9-40.895 16.586-63.297 19.811-12.446 1.842-25.603 3.685-39.471 5.528-54.761 6.911-116.633 15.204-162.859 40.083-11.379 5.989-21.691 14.282-32.003 22.575-22.047 17.507-42.671 34.553-72.896 29.485-38.048-6.45-68.629-29.485-101.343-53.903-6.401-5.068-13.157-10.136-19.913-14.743-8.89-6.45-16.357-11.518-23.824-16.586-49.783-31.79-91.387-37.779-134.413-20.732-3.911 1.382-7.823 3.225-12.09 4.607-16.713 5.989-29.158 11.518-39.47 16.125-27.381 11.978-37.337 16.125-59.739 5.528-3.556-1.842-8.179-4.607-12.802-7.371-20.624-12.439-49.071-29.025-73.251-9.675-23.824 18.889-35.914 58.05-45.515 89.84-4.267 14.282-9.601 30.407-16.7128 43.768-8.5341 16.125-18.135 27.182-29.1583 34.093-15.2903 9.214-34.1366 10.136-52.2716 11.057l-5.68932.461c-11.02325.46-20.97978 1.382-28.44708 3.685-13.5124 4.608-17.7795 9.215-29.1583 21.193l-2.4892 2.765c-3.2003 3.225-6.7561 6.91-11.0232 10.596l-4.9783 4.147c-27.3803 23.957-57.9609 50.679-93.8759 28.564-22.046-13.821-39.825-36.397-57.249-58.511-14.224-17.968-27.381-35.014-42.671-46.993-20.269-15.664-46.226-32.711-69.695-45.611-10.668-5.989-20.98-11.518-30.581-13.361-6.756-1.382-11.734-1.382-16.001-.921v2.303z" opacity=".7"/><path d="m-380.289 231.061c4.267-2.764 9.245-4.607 16.713-4.147 10.312.922 21.691 6.911 30.58 11.979 19.913 11.518 42.671 29.947 67.562 54.365 13.157 12.9 24.892 29.486 37.337 47.454 17.424 24.878 35.203 50.678 58.672 66.804 39.471 26.721 77.5186-4.147 102.7654-29.486 3.5559-3.686 7.1118-7.833 10.3121-12.44 4.267-5.528 7.1118-10.596 9.6009-14.743 4.9783-8.293 8.5341-14.282 17.4238-19.81 7.4674-4.608 17.7794-6.911 27.73592-8.293 3.2003-.461 6.04503-.922 9.24533-1.383 17.42385-2.303 35.20325-4.607 49.42685-14.742 11.3788-8.293 20.2685-20.272 28.4471-38.701 6.045-13.821 10.3121-29.486 14.5796-46.532 9.245-37.318 21.335-74.175 44.093-89.84 28.091-19.35 59.383 8.754 78.229 25.34 1.778 1.382 3.2 2.764 4.623 4.146 30.58 26.722 43.026 21.193 102.409-4.607 3.912-1.843 8.179-3.686 12.09-5.989 44.093-22.576 85.697-19.811 135.835 7.371 8.534 4.607 17.424 10.597 24.536 15.204 8.534 5.528 16.713 11.518 24.536 17.046 32.358 22.575 62.583 44.229 100.631 49.297 28.803 4.146 49.427-10.597 71.474-25.8 9.6-6.911 19.557-13.822 29.869-18.89 47.649-23.496 110.232-30.868 165.349-37.778 8.889-.922 17.779-2.304 25.958-3.225h1.066c20.98-2.765 42.316-5.529 59.739-15.665 1.067-.46 2.134-1.382 2.845-1.843 13.868-9.214 23.466-20.732 33.426-32.711 3.91-4.6067 7.47-9.2139 11.73-13.8211 12.45-13.8215 27.03-23.9572 43.74-31.3287 15.65-6.45 33.07-10.5965 49.78-14.2822 25.96-5.9893 52.99-11.9787 73.97-28.1037 28.44-21.19301 40.18-64.0397 52.98-109.1899 4.62-16.1254 9.24-32.7114 14.58-48.8364v-6.45c-6.4 17.508-11.74 35.936-16.71 54.365-12.45 44.6895-24.54 86.6147-52.28 107.8077-20.62 15.6643-47.29 21.6537-73.25 27.643-17.07 3.6857-34.49 7.8322-50.14 14.7429-17.06 7.3715-31.64 17.968-44.44 31.7895-4.27 4.6072-8.18 9.2143-11.74 13.8219-9.95 11.978-19.2 23.496-33.068 32.25-1.067.461-1.778 1.382-2.845 1.843-17.068 10.135-38.404 12.9-59.028 15.203h-1.066c-8.535.922-17.069 2.304-25.958 3.225-55.117 6.45-117.7 14.283-165.705 37.779-10.668 5.068-20.624 12.439-30.225 18.889-21.691 15.204-41.959 29.947-70.051 25.801-37.337-5.529-67.562-26.722-99.92-49.297-8.179-5.529-16.357-11.518-24.536-17.047-7.467-4.607-16.001-10.596-24.891-15.203-50.494-28.104-92.809-30.408-137.257-7.832-3.912 1.842-8.179 4.146-12.09 5.528-58.673 25.8-70.763 30.868-100.632 5.068-1.422-1.382-2.845-2.764-4.623-4.146-19.202-17.047-51.56-46.072-80.718-25.34-23.469 16.586-35.559 53.904-45.1601 91.683-4.2671 17.046-8.1786 32.25-14.2236 46.071-7.8229 17.508-16.3571 29.486-27.736 37.319-14.2235 10.135-31.6473 12.439-48.71557 14.742-3.2003.461-6.400622.922-9.24533 1.383-10.3121 1.382-20.9797 3.685-28.4471 8.753-9.2453 5.99-12.8012 11.979-18.1351 20.732-2.4891 4.147-5.3338 8.754-9.2453 14.283-3.5559 4.607-6.7562 8.753-10.312 11.978-24.8913 24.879-62.2279 55.286-100.6319 29.025-23.113-15.664-40.892-41.464-57.961-65.882-12.445-17.968-24.18-34.554-37.337-47.915-25.246-24.418-48.004-42.846-67.917-54.364-8.89-5.529-20.624-11.518-31.292-12.44-7.467-.46-12.445 1.383-16.713 4.147v3.225z" opacity=".7"/><path d="m-380.288 194.665c4.622-5.068 9.601-9.675 17.779-10.136 8.534-.921 18.491 2.765 30.937 10.597 24.18 15.664 48.004 41.925 65.783 63.118 11.379 13.361 21.336 29.947 32.003 47.454 17.069 28.104 34.848 56.668 59.384 75.097 36.981 27.182 78.2293 4.607 104.5429-25.8 3.5558-4.147 6.7561-8.754 9.6008-14.283 4.2671-7.832 7.1118-15.203 9.2453-21.653 3.2003-9.215 6.0451-17.047 13.1568-24.418 7.4674-7.372 18.135-10.597 27.7359-12.9 3.9115-.922 8.17854-1.843 12.09002-2.765 16.35708-3.225 33.42538-6.911 46.93778-17.968 11.0232-9.214 19.5574-22.575 26.6691-42.386 5.3339-15.203 8.8897-32.25 12.09-48.375v-.461c6.4006-31.789 17.7794-75.5572 43.3824-91.6823 22.757-13.8215 49.782-.4607 81.785 41.9253 29.869 39.161 47.649 41.464 104.543 11.979 3.911-2.304 8.178-4.608 12.09-6.911 45.515-27.6432 88.186-29.486 138.68-5.068 7.467 3.686 15.29 7.832 25.602 13.821 9.956 5.99 19.557 12.44 29.158 18.429 32.003 20.732 61.873 40.543 99.209 45.15 27.381 3.225 47.294-9.214 68.985-22.114 8.889-5.529 18.135-11.057 28.091-15.664 52.627-23.497 121.612-30.408 177.083-36.397l6.401-.461c18.846-1.843 38.404-4.146 54.761-11.057 1.066-.461 2.133-.921 2.844-1.382 14.579-6.911 25.247-16.1251 36.626-25.3394 3.203-2.7643 6.753-5.5286 10.313-8.7536 12.8-10.1358 27.02-17.968 43.38-23.9573 11.38-4.1465 24.18-7.3715 36.27-10.1358 28.45-6.9107 57.96-14.2822 79.3-34.09303 24.18-22.11437 32.71-60.81467 41.6-101.35767 5.69-25.8002 11.74-52.5222 22.05-76.4792 4.98-11.518 10.31-21.193 16-30.868l2.84-3.225c7.47-12.9 12.45-23.957 16.01-33.632v-6.911c-3.56 11.057-9.25 23.497-17.78 38.7l-1.78 3.225c-5.34 9.675-11.03 19.811-16 31.329-10.32 23.957-16.36 51.14-22.05 76.9397-8.89 40.0824-17.42 78.3219-40.89 99.97559-20.98 19.35011-50.14 26.72161-78.59 33.63231-12.09 3.225-24.89 5.9893-36.27 10.1358-16.71 5.9893-30.93 13.8215-43.74 23.9572-3.55 2.7643-7.11 5.5286-10.307 8.7537-11.024 9.675-21.691 18.4287-35.915 25.3397-1.067.46-1.778.921-2.845 1.382-16.001 6.911-35.558 8.753-54.049 11.057l-6.401.461c-55.827 5.528-124.811 12.9-177.794 36.396-9.957 4.608-19.202 10.136-28.447 15.665-21.335 12.9-41.248 25.339-67.918 22.114-36.981-4.146-66.85-23.957-98.498-44.689-9.601-6.45-19.201-12.44-29.158-18.89-10.312-5.989-18.135-10.596-25.602-14.282-50.85-24.4181-94.231-23.0359-140.102 5.068-3.912 2.303-8.179 4.607-12.09 6.911-59.384 30.868-74.318 25.339-102.054-11.058-32.714-43.307-60.45-57.1285-84.275-42.3856-26.669 16.1251-38.0478 60.8146-44.4484 93.5256v.461c-3.2003 16.125-6.7561 33.171-11.7344 47.914-6.7561 19.35-14.9348 32.25-25.958 41.004-13.1568 10.596-29.8695 14.282-46.22654 17.507-4.267065.922-8.17852 1.843-12.08999 2.765-9.95647 2.303-20.97977 5.989-28.80267 13.36-7.823 7.372-10.6677 15.665-13.868 25.34-2.1335 6.45-4.6226 13.361-8.8897 21.193-2.8447 5.068-6.0451 9.675-9.6009 13.821-25.6024 29.947-66.1394 52.061-102.4094 25.34-24.18-17.968-41.96-46.533-59.028-74.176-10.668-17.507-20.98-34.093-32.358-47.454-17.78-21.193-41.604-47.914-66.14-63.579-12.801-8.292-23.113-11.978-32.003-11.057-7.823.461-13.157 4.607-17.424 9.675v3.686z" opacity=".7"/><path d="m-380.288 158.729c4.622-8.293 9.601-15.204 18.49-17.508 8.89-1.843 19.558.922 31.648 9.675 24.18 16.586 46.938 46.994 64.006 71.872 9.601 13.822 18.135 29.486 27.025 46.072 17.068 31.329 34.492 64.04 60.45 84.311 36.625 29.025 81.4295 11.057 106.6763-22.114 3.5559-4.607 6.7562-10.136 9.2453-15.665 4.2671-9.675 5.6894-18.428 7.4673-27.182 2.1336-11.057 3.9115-20.732 10.6677-29.947 5.6894-7.832 13.868-12.9 27.736-17.507 4.6226-1.382 9.60089-2.764 14.57914-4.146 16.00146-4.607 32.35846-9.215 45.15966-20.732 11.0233-10.136 18.8462-24.879 24.8913-46.072 4.267-15.204 6.7562-31.79 9.2453-47.915l.3556-3.685c7.4674-50.6793 22.0465-82.008 42.6704-93.0652 36.27-19.35015 70.762 36.3966 80.363 53.9039 26.669 48.8363 47.649 63.5793 106.321 28.5643 3.912-2.303 8.179-5.068 12.09-7.8321 47.649-34.093 89.964-39.1609 141.525-17.9679 7.823 3.225 16.357 7.3715 26.313 12.9001 11.379 6.4499 22.758 12.8999 33.426 19.8109 31.647 19.35 61.516 37.779 98.498 41.004 25.602 2.303 46.582-8.293 66.85-18.429 8.179-4.146 17.069-8.754 25.958-11.979 55.472-21.653 123.745-29.0248 169.972-32.2498l6.756-.4607c16.357-1.3821 33.07-2.3036 48.004-6.45 1.067-.4607 1.778-.4608 2.845-.9215 16.713-5.0679 29.514-11.9786 43.382-19.3501l4.978-2.7642c12.446-6.4501 26.674-11.9787 42.674-16.1251 6.04-1.8429 12.44-3.225 19.2-4.6072 32.36-7.8322 65.78-16.1251 88.18-41.464538 20.27-23.496562 25.96-58.971762 32.01-96.289762 4.62-28.1041 9.24-57.1291 20.62-82.4681 5.34-12.44 12.09-23.036 18.14-32.25 9.95-15.665 16.35-26.261 21.33-35.936 5.69-11.518 8.54-21.654 9.25-35.015.71-11.978-.71-25.339-2.49-41.004-.36-3.225-.71-6.91-1.07-10.135-2.13-21.193-4.62-62.197 5.69-93.065 3.91-11.518 9.25-21.193 16-28.565 2.85-3.685 5.34-7.371 8.18-11.518v-4.146c-3.2 4.607-6.76 8.754-9.6 13.361-6.76 7.371-12.45 17.507-16.36 29.486-10.66 31.789-8.18 73.254-5.69 94.907.36 3.686.71 6.911 1.07 10.136 1.78 15.204 3.2 28.565 2.49 40.082-.71 12.901-3.56 22.576-8.89 33.633-4.62 9.214-11.02 19.811-20.98 35.475-6.04 9.214-12.8 19.811-18.49 32.711-11.38 25.8-16 55.286-20.62 83.3897-6.05 36.8573-11.74 71.8717-31.65 94.90758-21.69 24.87872-54.76 32.71092-87.12 40.54312-6.76 1.8428-13.16 3.225-19.2 4.6071-16.36 4.6072-30.584 9.6751-43.029 16.5859l-4.979 2.7643c-14.223 7.3714-26.313 13.8214-43.026 18.8893-1.067.4607-1.778.4607-2.845.9214-14.579 4.1465-31.291 5.0679-47.648 6.4501l-6.757.4607c-46.582 3.6857-114.855 10.5968-170.682 32.2498-8.89 3.686-17.78 7.833-25.958 11.979-20.98 10.596-40.893 20.732-65.784 18.429-36.626-3.225-66.14-21.654-97.431-41.004-10.668-6.45-22.047-13.3609-33.426-19.811-9.956-5.5286-18.846-9.675-26.669-12.9-52.272-21.6537-95.298-16.1252-143.302 17.9679-3.912 2.7643-8.179 5.5291-12.09 7.8321-56.539 33.632-76.452 22.114-103.832-27.6429-9.957-17.968-45.16-75.09689-82.852-54.8254-21.3357 11.518-36.2704 43.3074-44.0933 94.9073l-.3557 3.686c-2.4891 16.125-4.9782 32.711-9.2453 47.454-6.045 20.732-13.5123 35.014-24.18 44.69-12.4456 11.517-28.8027 16.125-44.44857 20.271-4.97825 1.382-9.95653 2.764-14.57913 4.146-14.2236 4.608-22.7577 10.136-28.8027 18.429-7.1118 9.675-9.2453 19.811-11.3788 31.329-1.778 8.293-3.2003 17.046-7.1118 26.721-2.4891 5.529-5.3338 10.597-8.8897 15.204-23.8245 31.79-68.629 50.218-103.832 22.115-25.602-20.272-43.026-52.522-59.739-83.851-8.89-16.586-17.424-32.25-27.025-46.532-17.068-24.879-40.181-55.747-64.361-72.333-12.801-8.754-23.469-11.979-33.07-9.675-8.534 1.843-13.868 8.293-18.135 15.664v4.608z" opacity=".7"/><path d="m-361.442 96.0713c-9.245 3.225-14.579 12.4397-18.846 22.5747v5.529c4.978-11.518 9.6-21.654 19.557-25.3395 9.601-3.225 19.913-.9214 32.359 8.2925 18.49 13.361 39.47 40.544 62.228 80.626 7.823 13.361 14.579 28.104 22.046 43.307 16.713 35.476 34.137 71.872 61.517 95.369 36.626 31.328 85.6968 15.664 108.4545-18.89 3.5559-5.068 6.4006-11.057 8.5341-17.507 3.5559-11.057 4.6227-21.654 5.3338-32.25 1.0668-12.9 2.1336-25.34 8.5341-36.397 5.3339-9.214 13.8681-16.125 27.736-22.114 5.3339-2.304 11.0233-4.147 16.35715-5.989 15.6459-5.529 31.64735-11.058 43.73735-23.497 10.6677-11.057 18.1351-26.722 23.1133-49.757 3.2003-15.204 4.9782-31.3292 6.7562-46.9935l.7112-6.4501c3.9115-35.9359 14.2235-81.5469 42.3153-94.447 32.003-14.7429 62.583 26.72163 79.296 66.3433 24.891 59.8932 49.782 84.7723 108.099 45.1503 3.912-2.7643 8.179-5.5286 12.09-9.2144 48.716-40.0823 92.097-49.2967 144.725-30.868 8.178 2.7643 17.423 6.9108 27.38 11.5179 12.801 6.4501 25.247 13.3608 37.337 20.7323 31.292 18.4287 60.805 35.4752 97.787 37.7792 24.18 1.382 45.159-6.911 65.428-15.204 7.467-2.7643 14.935-5.9894 22.758-8.7537 47.293-15.6643 103.832-25.8001 159.303-28.1037 4.979 0 9.957-.4607 14.935-.4607 12.09-.4607 24.891-.9214 36.626-2.3036l2.845-.4607c17.423-2.3036 32.358-5.0679 49.426-9.2143 13.513-3.225 27.736-5.9893 42.313-8.7536 38.05-6.9108 76.81-16.5858 98.86-47.91456 17.06-24.41804 20.26-57.58964 23.82-93.06514 2.85-29.946 5.69-60.814 17.78-87.075 4.98-11.057 11.02-19.811 18.49-29.947 4.27-5.528 8.18-10.596 11.74-15.664 4.62-5.989 8.88-11.518 12.44-16.586 8.53-11.979 13.51-22.575 16.71-34.554 3.56-15.203 3.56-32.711 2.85-52.521-1.07-31.79-1.07-64.501 6.75-91.222 3.2-11.518 8.18-21.193 13.87-29.486 9.6-15.665 20.98-31.329 33.07-46.072v-3.686c-12.44 15.665-24.53 31.79-34.49 48.376-6.05 8.293-10.67 18.889-14.22 30.407-7.83 27.182-7.83 60.354-6.76 92.143.71 19.35 1.07 36.858-2.49 51.601-2.84 11.978-7.82 22.114-16 33.632-3.91 5.068-8.18 10.596-12.45 16.586-3.55 4.607-7.46 10.135-11.73 15.664-6.76 8.754-13.51 18.889-18.85 30.407-12.09 26.722-15.29 58.051-18.13 87.997-3.2 34.554-6.4 67.7257-23.12 91.68297-21.69 30.86803-60.09 40.54303-97.78 47.45383-14.581 2.7643-28.805 5.5286-42.317 8.7536-17.068 4.6072-32.003 7.3715-49.427 9.2144l-2.845.4607c-11.734 1.3821-24.18 1.8428-36.27 1.8428-4.978 0-9.956.4607-14.934.4607-55.828 2.3036-112.722 12.4394-160.015 28.1037-7.823 2.7643-15.291 5.5287-22.758 8.7537-20.98 8.2926-40.893 16.5856-64.717 14.7426-36.27-2.303-65.784-19.3498-97.076-37.3178-12.09-6.9107-24.536-14.2822-37.337-20.7322-9.956-5.0679-19.202-8.7537-27.38-11.9787-52.983-18.4287-97.076-9.2143-146.147 30.8681-3.911 3.225-8.178 6.45-12.09 8.7535-56.894 38.7001-81.074 14.2822-105.254-44.2288-17.069-40.54308-48.716-82.9291-81.786-67.7254-28.8023 13.3608-39.4701 59.8932-43.3815 96.7506l-.7111 6.9107c-1.778 15.6644-3.2004 31.789-6.4007 46.532-4.9783 22.115-12.09 37.318-22.4021 48.376-11.7344 11.978-27.73591 17.968-43.02623 23.036-5.33387 1.842-11.02327 3.685-16.35707 5.989-9.6009 4.146-21.3354 10.136-28.8028 23.036-6.7561 11.518-7.8229 24.418-8.8897 37.778-.7112 10.136-1.7779 20.733-5.3338 31.329-2.1335 5.99-4.6226 11.979-8.1785 17.047-22.4021 33.632-70.0515 48.836-105.6095 18.428-27.025-23.035-44.093-59.432-60.806-94.447-7.112-14.743-14.224-29.946-22.047-43.768-22.757-40.082-44.093-67.725-62.939-81.547-14.579-8.7532-25.602-11.5175-35.914-7.8317z" opacity=".7"/><path d="m-325.883 60.5968c-12.801-9.6751-24.18-12.4394-34.848-7.3715-10.312 5.0679-15.29 17.5073-19.913 30.4073v6.9108c0-.4607.356-.4608.356-.9215 4.978-14.7429 9.601-28.1037 20.268-33.6323 9.957-4.6071 20.624-2.3036 33.07 6.9108 26.669 20.7322 51.205 69.5686 60.45 89.3786 5.69 12.44 11.379 26.261 16.713 39.161 16.357 40.083 33.425 81.087 62.583 107.808 33.781 31.329 87.4753 23.957 110.233-15.204 3.2003-5.528 6.0449-12.439 7.8229-19.35 2.8447-11.978 3.2003-24.418 3.2003-36.396 0-15.665.3556-29.947 6.4006-43.308 4.9783-11.057 13.5124-19.35 27.7359-26.721 5.6894-2.765 11.7344-5.529 17.7794-7.832 15.29036-6.45 30.9363-12.9 42.6707-26.261 10.6677-12.44 17.4238-29.0254 21.3353-52.9827 2.4891-14.7429 3.556-30.868 4.2671-46.0717.3556-3.225.3556-6.9107.7111-10.1358 1.4224-24.41796 8.8898-83.3897 41.604-95.8291 34.1367-13.3608 63.2947 34.0931 77.8737 78.78264 14.579 45.15026 30.581 69.56826 49.783 77.86116 16.712 7.3715 36.625 1.8429 60.45-16.1251 3.911-2.7643 7.823-6.45 12.09-10.1358 50.138-46.07163 94.231-58.97172 147.569-43.76805 8.89 2.7643 18.135 5.98935 28.447 10.59655 14.224 6.45 27.736 13.8215 40.893 21.1929 31.292 17.0466 60.806 33.6324 97.431 34.5538 24.18.4607 46.227-5.5286 67.562-11.9786 5.334-1.3822 11.023-3.225 16.713-4.6072 37.337-10.1357 93.52-23.4965 148.991-23.9573 16.002 0 32.715.9215 48.716 1.8429h2.845c5.689.4607 11.023.9214 16.357.9214 11.734.9215 22.758 1.8429 34.492 1.8429 12.446 0 27.025.0001 41.959-1.3821 30.222-2.7643 70.412-13.3608 90.672-50.2182 14.23-25.8001 15.29-58.9717 16.01-91.2216.71-31.329 1.77-63.579 14.22-90.301 5.69-11.978 13.16-21.193 19.2-28.104 6.4-7.371 13.16-14.282 19.56-20.271 2.84-2.764 5.69-5.529 8.18-8.293 8.89-9.214 17.78-19.811 23.82-34.554 6.76-16.586 8.53-35.936 9.25-54.364.35-5.068.35-10.136.35-15.665.71-24.878 1.42-50.678 7.11-73.254 2.85-11.057 6.76-21.653 12.09-30.868 12.8-28.103 33.78-53.443 55.48-77.861v-3.686c-22.05 24.879-44.1 51.14-59.39 81.087-5.33 9.214-9.24 19.81-12.09 31.328-6.04 23.036-6.4 49.297-7.11 74.176 0 5.068-.36 10.596-.36 15.664-.71 17.968-2.13 36.858-8.89 52.983-5.68 14.282-14.57 24.878-23.46 33.632-2.49 2.764-5.34 5.528-8.18 8.293-6.4 6.45-12.8 12.9-19.56 20.732-6.04 6.911-13.51 16.586-19.56 28.564-12.8 27.183-13.87 59.894-14.58 91.222-1.06 33.172-1.77 64.5008-15.64 89.8402-19.56 35.4752-59.39 46.0717-88.9 48.836-14.579 1.3822-29.158 1.3821-41.603 1.3821-11.735 0-22.758-.9214-34.492-1.8428-5.334-.4608-10.668-.9215-16.358-.9215h-2.844c-15.646-.9214-32.359-1.8428-48.716-1.8428-55.827.4607-112.01 13.8215-149.347 23.9572-5.69 1.3822-11.023 3.2251-16.713 4.6072-22.046 6.45-43.026 12.4394-66.851 11.9786-36.27-.9214-65.428-17.0465-96.364-34.093-13.157-7.3715-26.669-14.743-41.248-21.1931-10.313-4.60713-19.558-7.83209-28.448-10.59639-54.049-15.66441-98.853-2.76433-149.347 43.76809-4.267 3.6857-8.178 7.3715-12.09 10.1358-23.113 17.5072-42.315 23.0358-58.672 16.125-18.491-7.8321-34.136-32.2502-48.36-76.479-14.935-45.611-45.16-94.4469-80.3631-80.1647-34.1365 13.3608-41.6039 73.25393-43.0262 98.5934-.3556 3.225-.3557 6.45-.7112 10.1357-1.0668 15.2037-1.7779 30.8681-4.267 45.611-3.9115 23.4966-10.3122 40.082-20.6243 51.6-11.3788 12.9-26.669074 19.35-41.9594 25.8-6.045 2.304-12.09 5.068-17.7794 7.833-9.6009 5.068-21.691 12.9-28.8027 27.643-6.4006 13.821-6.4006 28.564-6.4006 44.689 0 11.979-.3556 23.957-3.2003 35.936-1.7779 6.911-4.2671 12.9-7.4674 18.429-22.0464 38.239-74.3184 45.15-107.3874 14.743-28.448-26.261-45.516-67.265-61.873-106.887-5.334-12.9-11.023-26.721-16.713-39.161-11.378-26.26-34.847-71.4107-60.805-91.6822z" opacity=".7"/><path d="m-264.722 116.343c-4.622-11.979-42.67-109.18995-81.785-109.18995-4.267 0-8.89 1.38216-13.157 3.68575-11.379 6.9107-16.001 23.0358-20.624 39.1609v7.8322c.355-1.8429 1.067-3.2251 1.422-5.0679 4.623-17.0465 9.246-33.1716 19.913-40.0824 33.781-20.73222 73.963 55.7468 92.098 104.1224 3.911 10.596 7.823 21.653 11.734 32.711 16.002 45.61 32.714 92.604 63.295 122.55 22.046 22.115 56.183 28.565 82.852 16.125 19.202-8.753 32.0031-26.261 35.9145-48.836 2.4892-13.36 1.7781-27.182 1.0669-40.543-.7112-17.968-1.7779-35.014 3.9115-50.218 8.5341-23.036 27.0247-31.789 46.9376-41.004 14.93476-7.371 30.58071-14.7426 41.604-28.5641 20.2685-25.8001 20.9797-65.4218 21.6909-103.2006 0-4.1464-.0001-8.2929.3555-11.9786.3556-19.8109 4.9783-85.6937 40.8927-97.6717 35.9144-11.979 64.0064 41.4643 76.8074 91.2217 14.579 55.286 32.714 86.6147 55.472 95.3683 19.557 7.3715 42.315-2.3035 68.273-28.5644 60.094-61.2753 110.588-74.6361 179.928-46.9931 15.645 5.9894 30.225 13.82151 44.448 21.19298 30.936 16.12512 60.095 31.32872 96.009 31.32882h1.067c36.27-.4608 71.118-7.8322 104.899-14.743 51.56-10.59644 104.543-21.65367 161.081-7.37144 9.246 2.30359 18.491 5.06794 27.381 7.83224 21.335 6.45 43.737 13.3608 66.139 13.8215 28.803.4607 65.786-12.9001 82.146-52.061 11.37-27.1823 10.31-59.4325 8.88-90.3006-1.42-32.25-2.48-65.422 10.32-92.143 9.6-19.811 25.6-32.25 41.25-44.69 14.57-11.518 29.86-23.496 40.18-41.464 14.22-24.879 16-56.668 17.78-87.076 1.06-18.428 2.49-37.779 6.04-55.286 12.45-57.589 50.85-96.29 87.83-134.068 1.42-1.383 2.85-3.225 4.62-4.608v-3.225c-1.77 1.843-3.91 4.147-5.69 5.99-37.33 38.239-76.09 77.4-88.54 135.45-3.91 17.968-4.97 37.319-6.04 55.747-1.78 31.79-3.91 61.276-17.43 85.694-9.95 17.507-24.89 29.485-39.47 40.543-15.64 12.439-32 24.878-41.96 45.611-13.51 27.182-12.09 60.814-10.66 93.525 1.06 30.8681 2.49 62.6576-8.54 88.9184-16 37.3181-51.202 50.6789-79.294 50.6789-.355 0-.711 0-1.066 0-22.047-.4607-44.449-6.9108-65.784-13.8215-8.89-2.76433-18.491-5.52861-27.381-7.8322-56.894-14.28223-110.232-3.22507-161.792 7.3714-33.781 6.9108-68.629 14.2823-104.544 14.743-.355 0-.711 0-1.066 0-35.559 0-64.717-15.2037-95.298-31.32878-14.224-7.37142-28.803-15.20372-44.449-21.19302-68.984-27.643-121.611-13.8215-181.705 47.4538-25.247 25.8002-47.649 35.0145-66.496 28.1038-22.046-8.7537-39.825-39.161-54.049-93.9863-13.157-50.6788-41.96-105.0435-79.2964-92.6045-37.3368 12.44-41.9595 79.7045-42.6706 99.976 0 4.1464 0 7.8321-.3555 11.9786-.7112 37.7788-1.4224 76.479-21.3354 101.3577-10.66764 13.8215-25.95796 21.193-40.8927 28.1037-19.913 9.675-39.1147 18.889-48.0045 42.386-6.045 16.125-4.9783 34.093-4.2671 51.6.7112 13.361 1.4224 27.183-1.0667 39.622-3.9115 21.654-16.3571 38.239-34.4921 46.993-25.958 11.979-59.383 5.529-81.074-15.664-30.225-29.947-46.582-76.479-62.584-121.63-3.556-10.135-7.467-21.193-11.379-31.789z" opacity=".7"/><path d="m-380.289 467.871c9.601 17.047 21.335 30.868 37.693 35.936 14.579 4.607 29.869 3.225 44.804 1.843 11.023-.921 22.402-2.303 33.425-.461 24.536 3.225 46.582 18.89 68.273 34.094 16.713 11.517 33.781 23.957 51.916 30.407 27.38 10.136 43.382-7.372 58.6721-24.418 9.9565-11.057 19.9131-22.115 33.4255-26.261 24.8912-8.293 40.5371 6.45 58.67212 23.036 11.02328 10.136 22.04648 20.732 36.26998 26.721 39.1148 17.047 68.9843 15.204 96.3643-5.528 22.402-17.047 37.693-45.15 52.272-71.872 7.823-14.282 16.001-29.025 24.891-41.925 12.09-17.047 29.158-21.193 47.293-25.34 15.291-3.685 31.292-6.91 43.738-19.81 14.223-14.283 21.335-32.251 28.447-49.297 11.734-29.025 22.046-53.904 61.517-54.365 49.427 0 93.164 42.847 129.434 84.772l8.179 9.675c34.847 40.543 71.117 82.929 116.988 95.829 40.182 11.518 65.429-18.889 89.609-47.914 11.734-14.282 24.18-29.025 38.403-39.622 46.938-34.093 116.633-44.229 178.506-52.982 27.38-4.147 53.337-7.832 76.097-13.361 32-7.832 60.09-16.125 79.65-42.386 16.71-22.114 23.11-52.522 29.51-82.008 3.2-14.743 6.41-29.946 10.67-43.768 23.47-73.7144 63.3-93.9859 109.17-99.9753v-5.5285c-46.58 6.45-88.9 27.643-113.08 103.2008-4.62 14.282-7.82 29.486-11.02 44.229-6.4 29.946-12.45 58.511-28.45 79.704-18.85 25.339-46.23 33.171-77.16 41.003-22.76 5.529-48.362 9.215-75.743 13.361-62.228 9.214-132.279 19.35-179.928 53.904-14.579 10.596-27.024 25.8-39.114 40.082-24.536 29.486-48.005 57.59-86.053 46.993-44.804-12.9-80.363-54.364-114.855-94.447l-8.179-9.675c-36.981-42.846-81.429-86.154-131.923-86.154h-.356c-42.315 0-53.338 27.643-65.428 57.129-6.756 16.586-13.868 34.093-27.025 47.454-11.734 11.518-27.025 15.204-41.959 18.429-18.135 4.146-36.981 8.293-49.783 26.721-9.245 13.361-17.424 28.104-25.246 42.386-14.58 26.722-29.514 53.904-51.205 70.49-26.669 20.271-55.1165 21.654-93.1645 5.068-13.5123-5.989-24.5357-16.125-35.20333-26.261-18.13503-17.047-35.20327-32.711-62.22807-23.957-14.2235 4.607-24.8912 16.125-35.2032 27.643-15.2899 16.585-29.5139 32.711-54.7609 23.036-17.779-6.451-34.847-18.429-51.205-29.947-22.046-15.664-44.448-31.329-69.695-35.015-11.379-1.382-23.113-.46-34.492.461-14.579 1.382-29.514 2.764-43.382-1.843-17.424-5.528-28.803-21.193-38.759-40.082v10.596z"/><path d="m-264.011 115.883c-4.622-12.439-43.026-109.65069-82.852-109.6507-4.623 0-8.89 1.38212-13.512 4.1464-10.668 6.4501-15.646 21.193-20.269 36.3967v16.1251c.711-2.7644 1.423-5.5287 2.489-8.293 4.623-17.0465 8.89-32.7108 19.558-39.1609 33.069-20.2715 72.54 55.7468 90.675 103.2004 3.911 10.597 7.823 21.654 11.734 32.711 16.002 45.611 32.714 92.604 63.651 123.472 22.402 22.115 56.894 29.025 83.919 16.586 19.5569-9.214 32.3581-26.722 36.6252-49.757 2.4891-13.361 1.7779-27.643 1.0667-41.004-.7111-17.968-1.7779-34.554 3.9115-49.758 8.5342-22.114 26.6692-31.328 46.2266-40.543 14.93471-7.371 30.58057-14.7426 41.9594-29.0248 20.6242-26.2609 21.3354-65.8825 22.0466-104.122 0-4.1465 0-8.293.3556-11.9787.3556-19.8108 4.9782-84.7715 40.1815-96.2895 35.2029-11.518 62.5839 41.4642 75.3849 90.3002 14.579 55.7467 33.07 87.5362 56.183 96.2899 19.913 7.8321 43.026-1.8429 69.34-28.5645 59.739-61.2753 109.877-74.1754 178.861-46.5324 15.646 5.9893 30.225 13.82154 44.448 21.19301 31.292 16.58579 60.806 31.78949 97.432 31.78949 36.27-.4607 71.118-7.8322 105.254-14.7429 53.694-11.05724 104.188-21.65375 160.726-7.3715 9.245 2.3036 18.491 5.0679 27.38 7.8322 21.691 6.45 43.738 13.3608 66.496 13.8215 29.158.4607 66.49-13.3608 83.21-52.5217 11.73-27.1823 10.31-59.8932 8.89-91.2223-1.43-33.171-2.49-64.961 10.31-91.222 9.6-19.35 24.89-31.328 40.89-44.228 14.94-11.518 30.23-23.497 40.54-41.926 14.22-25.339 16.36-57.128 18.13-87.997 1.07-18.428 2.49-37.318 6.05-54.825 12.44-57.129 50.49-95.829 87.47-133.608 1.43-1.382 2.49-2.764 3.92-4.146v-6.911c-2.14 2.304-4.27 4.607-6.41 6.45-37.33 38.24-76.09 77.861-88.89 136.372-3.91 17.968-4.98 37.318-6.4 55.747-1.78 31.329-3.91 60.815-17.43 85.233-9.95 17.507-24.89 29.025-39.11 40.543-16 12.439-32.36 25.339-42.32 45.611-13.51 27.643-12.09 61.736-11.02 94.447 1.07 30.407 2.49 62.1964-8.53 87.9965-16.01 37.3181-51.565 50.2182-79.656 49.7575-22.047-.4608-44.093-6.9108-65.428-13.8215-8.89-2.76435-18.491-5.52864-27.736-7.83223-57.25-14.28222-110.588-3.22507-162.149 7.37143-33.781 6.9107-68.628 14.2823-104.543 14.743-35.559.4607-65.073-15.2037-96.009-31.32882-14.223-7.37148-29.158-15.20368-44.804-21.65368-69.34-27.643-122.322-13.8216-182.773 47.4538-24.891 25.3394-46.937 35.0145-65.428 27.643-21.691-8.2929-39.47-39.62168-53.338-93.0648-13.513-51.1396-42.315-106.4252-80.3633-93.5252-38.048 12.439-42.6707 80.6251-43.3818 101.3573 0 4.1465 0 7.8322-.3555 11.9787-.7112 37.3181-1.4225 76.0183-20.9799 100.4363-10.66764 13.3608-25.95794 20.7322-40.5371 27.6427-19.2018 9.215-39.4703 18.89-48.3601 43.308-6.045 16.125-5.3337 34.553-4.267 52.521.7112 13.361 1.4223 26.722-1.0668 39.622-3.9115 21.193-16.0015 37.779-33.7805 46.072-25.603 11.978-58.673 5.528-80.008-15.665-29.869-29.946-46.582-76.479-62.228-121.168-3.2-11.057-7.112-22.115-11.379-32.711z"/><path d="m1226.26 284.505c12.09-5.529 25.25-8.754 38.41-11.518v-2.765c-13.16 2.765-26.67 5.99-39.12 11.979-14.22 6.911-24.89 16.586-33.07 29.486-22.76 37.318-12.44 84.311-2.84 129.461 8.89 41.004 18.49 83.851 3.91 120.247-8.89 23.036-26.32 41.004-49.07 49.758-19.21 7.371-41.25 7.371-62.59 7.371-11.38 0-23.47 0-34.49.922-2.84.46-5.33.46-8.18.921h72.54c11.38-.921 22.76-2.764 33.07-6.911 23.47-9.214 41.61-27.643 50.85-51.6 14.94-37.779 5.33-80.625-3.91-122.551-9.96-46.071-19.56-90.3 2.49-126.236 7.82-12.439 18.13-21.654 32-28.564z" opacity=".7"/></g></svg>